<?xml version="1.0" encoding="UTF-8"?>
<svg width="264px" height="265px" viewBox="0 0 264 265" version="1.1" xmlns="http://www.w3.org/2000/svg" xmlns:xlink="http://www.w3.org/1999/xlink">
    <title>illust_handle_light_pink</title>
    <g id="components" stroke="none" stroke-width="1" fill="none" fill-rule="evenodd">
        <g id="illust" transform="translate(-707.000000, -898.000000)">
            <g id="handle" transform="translate(707.000000, 898.000000)">
                <g id="Group-3" transform="translate(59.610838, 59.609204)" stroke="#EDE1DD" stroke-width="0.983">
                    <path d="M144.778631,72.3898259 C144.778631,112.369604 112.369604,144.779652 72.3888047,144.779652 C32.4100476,144.779652 0,112.369604 0,72.3898259 C0,32.4100476 32.4100476,0 72.3888047,0 C112.369604,0 144.778631,32.4100476 144.778631,72.3898259 Z" id="Stroke-1"></path>
                </g>
                <g id="Group-6" transform="translate(44.563586, 44.562667)" stroke="#EDE1DD" stroke-width="1.187">
                    <path d="M174.872727,87.4363633 C174.872727,135.726201 135.726201,174.872727 87.4363633,174.872727 C39.1465259,174.872727 0,135.726201 0,87.4363633 C0,39.1465259 39.1465259,0 87.4363633,0 C135.726201,0 174.872727,39.1465259 174.872727,87.4363633 Z" id="Stroke-4"></path>
                </g>
                <path d="M184.147051,67.7909056 L184.141945,67.7909056 L181.033587,71.5721969 L181.034608,71.5762815 L181.033587,71.5721969 C181.166335,71.6763535 181.298063,71.78051 181.422642,71.894878 L184.559592,68.1299249 C184.424802,68.0104512 184.283884,67.901189 184.141945,67.7909056" id="Fill-7" fill="#EDE1DD"></path>
                <path d="M191.671034,74.8379133 L191.344269,75.1473196 L191.344269,75.1524253 C191.870157,75.7212017 192.42668,76.2644497 192.928061,76.8567124 L189.614453,79.8149628 L189.614453,79.8200685 L189.935092,80.1927855 L189.940197,80.1938067 L193.272186,77.2559792 L194.787562,79.0184715 L194.792667,79.0184715 L195.138835,78.7305092 L195.138835,78.7264247 C194.005366,77.4111929 192.895384,76.0755383 191.67614,74.8379133 L191.671034,74.8379133 Z" id="Fill-9" fill="#EDE1DD"></path>
                <path d="M196.963208,85.1281724 C197.832201,84.5165079 198.006816,83.2053607 197.281805,82.2526346 C196.545561,81.3080776 195.269133,81.0864896 194.431796,81.7563592 C193.59548,82.4262288 193.482133,83.6934669 194.177531,84.5849245 C194.863739,85.48353 196.078899,85.7510694 196.963208,85.1281724 M197.273636,85.5672637 C196.159569,86.3382264 194.627855,86.0083974 193.782349,84.882077 C192.914378,83.7710737 193.058359,82.1821757 194.100945,81.332585 C195.145574,80.4829943 196.746726,80.7607451 197.676987,81.955482 C198.585804,83.1655361 198.372385,84.8075336 197.273636,85.5672637" id="Fill-11" fill="#EDE1DD"></path>
                <path d="M186.781701,75.7740969 C186.812335,74.8428148 186.830716,73.899279 186.836843,72.9445106 C186.845012,71.9876999 186.841948,71.0176143 186.792934,70.0720362 L186.293595,69.6380506 L186.279299,69.6380506 L183.051467,73.2998682 L183.053509,73.3151854 L183.437459,73.649099 L183.451755,73.6480779 L186.21803,70.5529944 C186.261939,71.4955091 186.269087,72.4553832 186.254791,73.4111728 C186.245601,74.3628778 186.223136,75.302329 186.189438,76.2305477 L186.619339,76.6430894 L186.634656,76.6430894 L190.08714,73.1926482 L190.086119,73.1783522 L189.71238,72.81891 L189.699106,72.8209523 L186.781701,75.7740969 L186.776595,75.7689912" id="Fill-13" fill="#EDE1DD"></path>
                <path d="M49.8688304,128.111438 L54.7590827,128.308518 L54.7621461,128.305455 C54.7999284,127.491604 54.8683449,126.677753 54.9204232,125.863903 C54.9796495,125.051073 55.0113049,124.23518 55.126694,123.427456 L55.1236306,123.423372 L54.6651375,123.375378 L54.661053,123.378441 C54.5579175,124.108558 54.5191141,124.843781 54.4690781,125.579004 L54.3189702,127.78263 L52.5738373,127.700938 C52.6759516,126.344861 52.7382413,124.98572 52.8709898,123.632706 L52.8689476,123.628621 L52.4084122,123.583691 L52.4043276,123.586754 C52.2715791,124.947938 52.2082682,126.315248 52.106154,127.678473 L50.36,127.596782 L50.517256,125.28083 C50.5703554,124.507825 50.6122222,123.735841 50.7194422,122.968963 L50.7163788,122.964878 L50.2568646,122.916885 L50.25278,122.919948 C50.1322852,123.778729 50.095524,124.6467 50.0322132,125.511608 C49.9770715,126.376516 49.9055915,127.241424 49.8657669,128.107353 L49.8688304,128.111438 Z" id="Fill-15" fill="#EDE1DD"></path>
                <path d="M58.5684554,104.920777 C56.8641683,105.654978 55.1353737,106.452491 53.3902409,107.315356 L53.2125621,107.952549 L53.2197101,107.965824 L57.9006281,109.348451 L57.913903,109.341303 L58.049715,108.850134 L58.042567,108.836859 L54.0693008,107.632932 C55.8021799,106.777214 57.5340379,105.991955 59.2332193,105.265923 C59.2914245,105.077012 59.3639256,104.891164 59.4374479,104.706337 L59.431321,104.693062 L54.8474115,103.016346 L54.8341366,103.024515 C54.7728681,103.185855 54.7034304,103.345154 54.6533944,103.509558 L54.6605424,103.52079 L58.5684554,104.920777 L58.5664131,104.927925" id="Fill-17" fill="#EDE1DD"></path>
                <path d="M55.670044,100.882362 L60.2182135,102.690805 L60.2222981,102.688763 L60.6664952,101.548147 C60.8206877,101.170324 60.9963243,100.801691 61.1607282,100.427953 L62.1614481,98.193693 L61.7376739,97.993549 L60.8339626,100.011327 C60.5317044,100.683239 60.2222981,101.352087 59.9700759,102.045443 L55.8650823,100.382002 L55.8609977,100.384044 L55.6680018,100.877256 L55.670044,100.882362 Z" id="Fill-19" fill="#EDE1DD"></path>
                <g id="Group-23" transform="translate(49.812157, 130.398797)" fill="#EDE1DD">
                    <polygon id="Fill-21" points="0.118452551 5.20986996 4.988282 4.95969001 4.99747229 4.94845744 4.98317629 4.4715838 4.97194372 4.46137238 2.76831781 4.56042322 2.69683782 2.55387785 2.6651824 1.55009459 2.6794784 0.546311335 4.88514659 0.55958619 4.89535802 0.552438191 4.9045483 0.0714799877 4.89433687 0.0612685609 0.0183805683 0 0.00919028414 0.0112325695 0 0.522825053 0.00919028414 0.529973052 2.22302762 0.543247907 2.20771048 1.55315802 2.24140819 2.56204699 2.31186703 4.58084607 0.101093126 4.67989691 0.0919028414 4.69215062 0.108241124 5.19965854"></polygon>
                </g>
                <path d="M75.2113452,75.361249 C74.4526362,74.6045822 73.1649753,74.6913794 72.3358074,75.5562872 C71.4913224,76.4068991 71.5362527,77.7405114 72.332744,78.4410153 C73.1455736,79.1568363 74.3699236,79.0108129 75.1684572,78.2092159 C75.9516736,77.3933229 75.9710754,76.1179157 75.2113452,75.361249 M75.5840623,74.9732147 C76.5296404,75.9300254 76.5061541,77.5311771 75.5299417,78.5482353 C75.2858886,78.8045421 74.9999687,78.9995803 74.6987316,79.140498 C74.4056636,79.2895848 74.0911517,79.3804665 73.7735763,79.4100797 C73.1374044,79.469306 72.4869365,79.2895848 71.9804498,78.8474301 C71.473963,78.4042541 71.2115293,77.7782937 71.2043813,77.1145509 C71.2002968,76.7837007 71.2605442,76.4436602 71.3830813,76.1148522 C71.5137876,75.7942134 71.7149527,75.4899129 71.9743229,75.218289 C73.0220153,74.1246452 74.6384842,74.0153829 75.5840623,74.9732147" id="Fill-24" fill="#EDE1DD"></path>
                <path d="M100.404365,55.4594844 L102.289394,59.9759985 L102.2945,59.9770196 C103.817024,59.392926 105.314019,58.7393947 106.871261,58.2502674 L106.873304,58.2461828 L106.723196,57.8091337 L106.719111,57.8070914 C105.312998,58.2512885 103.955899,58.8251707 102.583483,59.3592283 L101.920762,57.7427595 C103.192084,57.2607801 104.435836,56.7042574 105.733708,56.2968214 L105.736772,56.2917157 L105.582579,55.8556878 L105.578495,55.8546666 C104.272453,56.2641449 103.021553,56.823731 101.743083,57.309795 L101.081382,55.692305 C102.522215,55.1296553 103.949772,54.5292234 105.426344,54.0605189 L105.428387,54.0564344 L105.278279,53.6193853 L105.273173,53.617343 C103.617901,54.1411892 102.024918,54.8314817 100.406407,55.4553999 L100.404365,55.4594844 Z" id="Fill-26" fill="#EDE1DD"></path>
                <path d="M112.961765,55.65391 C111.390226,54.6011119 109.778863,53.6637029 108.088872,52.6915751 L107.453721,52.877423 L107.446573,52.8896768 L108.908849,57.5471085 L108.922124,57.5532354 L109.410231,57.4112965 L109.4184,57.3980217 L108.201198,53.4288401 C109.881998,54.4009679 111.485192,55.3496095 113.044477,56.3942384 L113.624486,56.2584265 L113.632656,56.2461727 L112.469574,51.5060284 L112.456299,51.4978593 L111.951855,51.6163118 L111.945728,51.6285655 L112.961765,55.65391 L112.954617,55.6549311" id="Fill-28" fill="#EDE1DD"></path>
                <path d="M81.0849579,66.8403238 L84.1167305,70.6839049 L84.1208151,70.6839049 C84.7671984,70.1855873 85.4023492,69.6719525 86.0569016,69.1838463 L88.0583413,67.771606 L87.7908019,67.385614 L85.9844005,68.6610212 C85.3778417,69.0796897 84.8162133,69.5596268 84.2290562,70.004845 L81.5087321,66.5094736 L81.5036264,66.5094736 L81.0849579,66.8352181 L81.0849579,66.8403238 Z" id="Fill-30" fill="#EDE1DD"></path>
                <path d="M75.4183308,71.7446679 L78.7860594,75.2972233 L78.7911651,75.2972233 C79.391597,74.7447851 79.95731,74.1525224 80.5863339,73.6327607 L82.4427713,72.0356936 L82.1425554,71.6752302 C81.0335944,72.6463369 79.8827666,73.570471 78.8350742,74.6089731 L75.8084073,71.3750143 L75.8033016,71.3750143 L75.4183308,71.7395622 L75.4183308,71.7446679 Z" id="Fill-32" fill="#EDE1DD"></path>
                <path d="M92.1998918,63.2109785 C91.3196668,62.6187158 90.4128921,62.0141993 89.5153077,61.4556343 C89.6378448,62.5104746 89.7746779,63.5571459 89.9247859,64.5966691 C90.67022,64.1146898 91.4197388,63.6378162 92.1998918,63.2109785 L92.1998918,63.2109785 Z M92.6338774,63.5060888 C92.1896803,63.7644379 91.736293,64.008491 91.3002651,64.2790938 L89.9993293,65.1082616 L90.1913041,66.3509923 L89.7328111,66.6399756 C89.4540391,64.8815679 89.2140706,63.0986528 89.0129055,61.2922514 C89.2089649,61.1697143 89.3999185,61.0410503 89.5990414,60.9236189 C91.156284,61.9131062 92.6716597,62.9271009 94.1451686,63.9645818 L93.6815698,64.2300789 L92.6338774,63.5060888 Z" id="Fill-34" fill="#EDE1DD"></path>
                <path d="M99.3114358,58.3458463 L98.9785432,58.4959543 L98.8141393,58.5704977 C98.3107159,58.8002548 97.8021869,59.0198005 97.3028481,59.2587479 L97.5183092,59.7049872 C98.0145845,59.4680821 98.5200502,59.2495576 99.0204101,59.0208216 C99.2981609,59.9551672 98.804949,60.9456756 97.8767303,61.4225492 C96.8698836,61.9372051 95.6475758,61.5849109 95.1461948,60.6372905 C94.6458348,59.6896701 95.1043279,58.479616 96.171422,57.935347 C96.8688625,57.5616087 97.6765863,57.6575962 98.2474051,58.0098904 L98.6058262,57.6106236 C97.8879629,57.1439614 96.8555876,57.0234666 95.9539186,57.4901288 C94.6060103,58.1783789 94.0300858,59.6968181 94.6672788,60.8813436 C95.305493,62.0658691 96.8402705,62.5080239 98.0952548,61.8667463 C99.356366,61.2407858 99.9731362,59.8081226 99.4247826,58.5664131 C99.3910849,58.4898274 99.3533026,58.4163052 99.3114358,58.3458463" id="Fill-36" fill="#EDE1DD"></path>
                <path d="M70.6725702,83.4690197 C70.3212971,83.9152591 69.8301275,84.1858619 69.3175139,84.2695956 C68.810006,84.3563927 68.2902443,84.2644899 67.8572798,83.9438511 C67.4283999,83.6272968 67.1700508,83.1402118 67.1230783,82.619429 C67.0822325,82.103752 67.2445942,81.5472292 67.6142479,81.0785247 C68.1023541,80.4586911 68.8253231,80.1615386 69.4941716,80.228934 L69.633047,79.7091724 C68.781414,79.6029735 67.8531953,79.9767118 67.2241714,80.773203 C66.2683818,81.9485383 66.4521875,83.5946203 67.5458313,84.3829424 C68.6353906,85.16718 70.1722103,84.8659429 71.0626467,83.7743414 C71.651846,83.0278861 71.7702986,82.0669908 71.4874421,81.2470133 L71.0269067,81.4849395 C71.2393044,82.1303017 71.1371901,82.8798204 70.6725702,83.4690197" id="Fill-38" fill="#EDE1DD"></path>
                <path d="M54.8562954,111.200498 C54.337555,111.065707 53.8045185,111.171906 53.3603214,111.460889 C52.9212301,111.749873 52.6016124,112.228789 52.4688639,112.809819 C52.2084725,113.978006 52.8497501,115.096157 53.9005059,115.306513 C54.9512617,115.516868 56.0040598,114.792878 56.2501552,113.688001 C56.3767769,113.134542 56.2675146,112.579041 56.0224404,112.130759 C55.7814507,111.683498 55.3740148,111.335289 54.8562954,111.200498 M54.9992554,110.681757 C56.3052969,111.039157 57.0129488,112.4177 56.7321345,113.800327 C56.4257917,115.175806 55.1044331,116.085644 53.7830745,115.83138 C52.4617159,115.578137 51.6570554,114.175087 51.9868845,112.697493 C52.291185,111.214794 53.7105734,110.329463 54.9992554,110.681757" id="Fill-40" fill="#EDE1DD"></path>
                <path d="M64.4125571,93.9011155 L64.1654406,94.3310166 L62.1221341,93.2169499 C61.0775051,93.539631 60.0614681,93.9031578 59.0137758,94.2758748 L58.8514141,93.7826629 C59.860303,93.4283264 60.8171137,93.0699053 61.8413198,92.7717317 C61.5809285,91.7679484 61.3287062,90.7457846 61.0887377,89.7072825 L61.5880765,89.5765762 C61.8392776,90.6620509 62.1017112,91.7281239 62.3753775,92.773774 L64.4125571,93.9011155 Z" id="Fill-42" fill="#EDE1DD"></path>
                <path d="M212.075916,114.858742 C212.127994,115.137513 212.098381,115.410159 211.99014,115.673613 C211.819609,116.042246 211.57045,116.254644 211.246748,116.315912 L211.206923,116.324081 C210.997589,116.363906 210.781107,116.327145 210.558498,116.217882 C210.207225,116.005485 209.995848,115.703227 209.923347,115.306002 C209.731372,114.400248 209.5057,113.501643 209.298408,112.598953 L211.435659,112.080212 C211.648057,113.006389 211.879856,113.928481 212.075916,114.858742 L212.075916,114.858742 Z M211.74915,111.458336 L207.006963,112.642862 L206.999815,112.656137 L207.109078,113.119736 L207.12031,113.127905 L208.852168,112.707194 C209.060481,113.621117 209.29126,114.528912 209.481192,115.445899 L208.513149,116.315912 C208.13022,116.664122 207.931098,116.844864 207.919865,116.864266 L208.025043,117.438148 L208.032191,117.441211 C208.578502,116.954126 209.122771,116.45683 209.66704,115.951364 C209.754858,116.130064 209.891692,116.30468 210.078561,116.478274 C210.473743,116.790743 210.880158,116.912259 211.294742,116.836695 L211.342735,116.827505 C211.687882,116.764194 211.985034,116.569156 212.236235,116.235242 C212.524197,115.784918 212.620185,115.294769 212.524197,114.769902 C212.287292,113.665026 212.014647,112.568319 211.760383,111.466506 L211.74915,111.458336 Z" id="Fill-44" fill="#EDE1DD"></path>
                <path d="M206.376816,102.612994 C207.377536,102.230066 207.833987,101.017969 207.393874,99.9028816 C206.931297,98.7990264 205.7192,98.2833493 204.750136,98.7234618 C203.767797,99.1707223 203.375678,100.35729 203.812727,101.399877 C204.227311,102.452675 205.376097,102.994902 206.376816,102.612994 M206.573897,103.113354 C205.313807,103.58308 203.871953,102.901978 203.355255,101.59083 C202.803838,100.295 203.302156,98.8031109 204.528548,98.2333133 C205.742687,97.6696425 207.258062,98.3201104 207.850325,99.7119279 C208.406848,101.121105 207.836029,102.643629 206.573897,103.113354" id="Fill-46" fill="#EDE1DD"></path>
                <path d="M211.027815,108.785189 L208.664891,109.461186 C207.630473,109.752211 206.553168,109.12523 206.241719,108.067326 C205.886362,107.022697 206.418377,105.89025 207.43135,105.537955 L209.756492,104.740443 L209.581877,104.227829 L207.261841,105.040659 C205.995624,105.493025 205.325754,106.914456 205.769951,108.215391 C206.155943,109.534708 207.508957,110.319967 208.808872,109.96563 L211.176902,109.304951 L211.027815,108.785189 Z" id="Fill-48" fill="#EDE1DD"></path>
                <path d="M200.405582,95.4632596 L200.180931,95.0221259 L202.234449,93.9264398 C202.554067,92.868536 202.796077,91.8259493 203.063617,90.7455804 L203.566019,90.8803712 C203.312776,91.9147887 203.074849,92.9165297 202.76238,93.9366512 C203.74574,94.2685226 204.739312,94.6187746 205.742074,94.9874071 L205.576649,95.4755133 C204.530999,95.0905425 203.492497,94.7259945 202.467269,94.3808483 L200.405582,95.4632596 Z" id="Fill-50" fill="#EDE1DD"></path>
                <path d="M209.624765,127.14462 C209.573708,126.503342 209.689097,125.982559 209.858607,125.614948 C210.019947,125.248358 210.20171,125.040045 210.20171,125.040045 C210.051603,124.587678 210.052624,124.613207 210.047518,124.598911 C210.042412,124.598911 210.001567,124.635672 209.924981,124.709194 C209.840226,124.793949 209.75445,124.899127 209.666632,125.024728 C209.554306,125.196279 209.460361,125.387233 209.383775,125.599631 C209.33476,125.742591 209.295957,125.875339 209.269407,125.997876 C209.187716,126.380805 209.184652,126.750459 209.186695,127.111943 L209.189758,127.204867 C209.198948,127.492829 209.242858,127.788961 209.319443,128.09224 C209.460361,128.613023 209.67378,129.001057 209.957657,129.255322 C210.455975,129.680117 211.171796,129.586172 211.529196,129.037818 C211.804905,128.617107 211.831454,128.013612 211.875363,127.523464 L211.94378,126.681021 C211.956034,126.401228 211.975435,126.121435 212.018323,125.843684 C212.063254,125.555722 212.160262,125.185047 212.464563,125.070679 C212.902633,124.905254 213.263096,125.390297 213.424437,125.743612 C213.590883,126.119392 213.673596,126.536019 213.692997,126.945497 C213.707293,127.136451 213.687892,128.12798 213.201828,128.846865 L213.334576,129.295146 C213.378485,129.263491 213.420352,129.219582 213.464261,129.165461 C213.520424,129.10215 213.594968,128.995951 213.685849,128.846865 C213.740991,128.740666 213.782858,128.65489 213.81145,128.587494 C213.869655,128.442492 213.916628,128.308722 213.951346,128.187206 C214.054482,127.796109 214.098391,127.400927 214.085116,127.005744 L214.082053,126.911799 C214.077968,126.640175 214.030996,126.35834 213.952368,126.068335 C213.897226,125.869213 213.831873,125.691534 213.75835,125.533257 C213.717505,125.435227 213.652152,125.317795 213.565354,125.180962 C213.4806,125.063531 213.41831,124.982861 213.375422,124.939973 C213.165067,124.72349 212.876083,124.527431 212.567698,124.55296 L212.541148,124.555002 C211.258593,124.667328 211.581274,126.773945 211.449547,127.60107 C211.449547,127.60107 211.453631,128.852991 210.830734,129.037818 C210.284423,129.20018 209.945404,128.598727 209.805507,128.223968 C209.680928,127.889033 209.637019,127.523464 209.624765,127.172191 L209.624765,127.14462" id="Fill-52" fill="#EDE1DD"></path>
                <path d="M209.113172,136.345115 L209.524693,136.643289 C210.23745,135.681373 210.999223,134.69597 211.646627,133.679933 C212.243996,134.589771 212.758652,135.514926 213.292709,136.461526 L213.735885,136.19705 C213.002705,134.839951 212.155156,133.517571 211.32701,132.238079 L214.172934,132.273819 L214.182125,131.743846 L209.287788,131.714233 L209.278598,132.21153 L210.712282,132.22991 L211.344369,133.205102 C210.981864,133.743244 210.641823,134.275259 210.262979,134.798084 L209.113172,136.345115 Z" id="Fill-54" fill="#EDE1DD"></path>
                <path d="M138.437947,53.7337533 L138.566611,53.695971 C138.823939,53.6142796 139.091479,53.4805099 139.254861,53.2538162 C139.4499,52.9862768 139.362081,52.6217289 139.107817,52.4256695 C138.912779,52.2735193 138.678937,52.2061238 138.438968,52.1479187 C138.233719,52.0989039 138.025406,52.0611216 137.816071,52.0264027 C137.404551,51.9600285 136.985882,51.906929 136.582531,51.8088993 C136.337457,51.7496731 136.093404,51.6751296 135.863647,51.5658674 C135.662481,51.4688588 135.468464,51.3422371 135.328568,51.1635372 C135.188671,50.9919852 135.12536,50.7775452 135.133529,50.5559573 L135.134551,50.5304287 C135.146804,50.2220436 135.377583,49.9483774 135.617551,49.7768254 C135.665545,49.7410854 135.753363,49.6900283 135.879985,49.6246751 C136.027029,49.5583009 136.151609,49.5123494 136.252702,49.4868209 C136.418127,49.4367849 136.602954,49.3990026 136.807182,49.373474 C137.104335,49.3407975 137.389234,49.3346706 137.659836,49.3530512 L137.75276,49.359178 C138.147943,49.3857278 138.534956,49.4704826 138.911757,49.6114003 C139.028168,49.659394 139.154789,49.7186203 139.292644,49.7911214 C139.354933,49.8268614 139.436625,49.8748551 139.533633,49.9432717 C139.670466,50.0566185 139.767475,50.1454579 139.821596,50.210811 C139.87061,50.2628893 139.908393,50.310883 139.934942,50.3588767 L139.422329,50.4334201 C138.765734,49.8789397 137.829346,49.7829523 137.638392,49.7768254 C137.227893,49.7645717 136.828626,49.7676351 136.435486,49.8799608 C136.065833,49.9861596 135.577727,50.2373607 135.68801,50.6958538 C135.763575,51.0134292 136.066854,51.1686429 136.346647,51.2564611 C136.88581,51.4249497 137.445397,51.5015354 137.995792,51.6077342 C138.477772,51.7037216 139.076161,51.7792862 139.458069,52.1101364 C139.957408,52.5482066 139.962513,53.2721968 139.481555,53.7020979 C139.195635,53.9379818 138.784115,54.1156607 138.248015,54.2024578 C137.936566,54.2494303 137.637371,54.2627052 137.349409,54.2433035 L137.256485,54.2371766 C136.896022,54.2126692 136.532495,54.1340412 136.16182,54.0023138 C136.043368,53.9573835 135.915725,53.8991784 135.779913,53.8297407 C135.579769,53.7214996 135.40209,53.5989625 135.245855,53.4621293 C135.132508,53.3600151 135.038563,53.2660699 134.965041,53.1721248 C134.900709,53.0883911 134.870075,53.044482 134.870075,53.0403974 C134.885392,53.0393763 134.894582,53.0271226 135.36635,52.9250083 C135.36635,52.9250083 136.089319,53.695971 137.371874,53.7827681 C137.723147,53.8062544 138.089738,53.824635 138.437947,53.7337533" id="Fill-57" fill="#EDE1DD"></path>
                <path d="M153.082971,52.3793096 C153.356638,52.4548742 153.587416,52.5988553 153.776327,52.811253 C154.029571,53.1257649 154.10922,53.441298 154.019359,53.7588734 L154.008127,53.7966557 C153.950943,54.0019054 153.822279,54.1806053 153.623156,54.3337767 C153.274946,54.5553647 152.909377,54.6135698 152.520322,54.5053287 C152.074082,54.385855 151.629885,54.250043 151.179561,54.1438442 L149.823484,53.8405648 L150.315675,51.6971863 L151.706471,52.0076137 C152.168027,52.116876 152.623457,52.2567725 153.082971,52.3793096 L153.082971,52.3793096 Z M149.898027,51.1457693 L148.835018,55.9165479 L148.844208,55.9288016 L149.309849,56.0329582 L149.322103,56.0258102 L149.720348,54.2888465 L151.092764,54.5951893 C151.547173,54.7054727 151.996476,54.8412846 152.447821,54.9628006 L152.79603,56.2096158 C152.936948,56.7058912 153.011491,56.962198 153.022724,56.9805786 L153.586395,57.1368134 L153.5915,57.1317077 C153.398504,56.4291615 153.195297,55.7235519 152.984942,55.0169212 C153.185086,55.0159 153.402589,54.9689275 153.642558,54.8770246 C154.099008,54.6585001 154.390034,54.3470516 154.508487,53.9426791 L154.52074,53.8946854 C154.61877,53.5587294 154.576903,53.2064352 154.389013,52.8357604 C154.115347,52.3803308 153.717101,52.081136 153.203466,51.9391971 C152.121055,51.6154949 151.014136,51.3857378 149.912323,51.1386213 L149.898027,51.1457693 Z" id="Fill-59" fill="#EDE1DD"></path>
                <path d="M146.790588,52.9883191 C146.993795,51.935521 146.203431,50.9194841 145.02299,50.718319 C144.433791,50.6202893 143.87012,50.7366995 143.436134,51.0297675 C143.001128,51.3310046 142.69989,51.7843919 142.62841,52.3153861 C142.55693,52.8463803 142.725419,53.3549094 143.047079,53.7470281 C143.368739,54.1473161 143.841528,54.4557012 144.401114,54.5496463 C145.517223,54.7406 146.586359,54.0411172 146.790588,52.9883191 M147.321582,53.0792008 C147.054043,54.397496 145.71124,55.2756787 144.322486,55.0387736 C142.936796,54.7742977 141.929949,53.5948779 142.094353,52.2520753 C142.257736,50.9235686 143.613813,49.9493985 145.102639,50.2291916 C146.594529,50.4834561 147.587079,51.7598845 147.321582,53.0792008" id="Fill-61" fill="#EDE1DD"></path>
                <polyline id="Fill-63" fill="#EDE1DD" points="164.171968 55.691488 164.166862 55.6925092 162.256304 60.1988118 162.258347 60.2028964 162.256304 60.1988118 162.715819 60.4081461 164.660074 55.9089914 164.166862 55.6925092"></polyline>
                <path d="M168.962557,62.5936978 C168.488747,60.8015924 167.962858,58.9614933 167.361405,57.1193519 L166.75791,56.848749 L166.743614,56.8538548 L164.683969,61.278466 L164.688054,61.2917409 L165.153695,61.500054 L165.167991,61.4949482 L166.9458,57.7442912 C167.542147,59.5721366 168.055782,61.414278 168.521423,63.2002565 C168.700123,63.2870537 168.87576,63.3799776 169.046291,63.4820919 L169.060587,63.4790285 L171.399003,59.1943138 L171.393898,59.1789966 C171.24379,59.0932207 171.094703,59.0074447 170.939489,58.9318801 L170.927235,58.9369858 L168.962557,62.5936978 L168.955409,62.5906343" id="Fill-65" fill="#EDE1DD"></path>
                <path d="M124.363333,52.7838864 C123.811916,51.8689425 123.24314,50.9519564 122.66211,50.0727525 C122.332281,51.0816415 122.016748,52.0884882 121.718574,53.0932926 C122.598799,52.9830092 123.47596,52.8369858 124.363333,52.7838864 L124.363333,52.7838864 Z M124.633936,53.2352314 C123.606667,53.2975211 122.59063,53.4578405 121.571529,53.5885468 L121.225362,54.7965586 L120.68722,54.863954 C121.171241,53.15354 121.699172,51.435978 122.275097,49.7133103 L122.961304,49.6224286 C123.958961,51.1561849 124.912708,52.7307869 125.813356,54.2900718 L125.28032,54.333981 L124.633936,53.2352314 Z" id="Fill-67" fill="#EDE1DD"></path>
                <path d="M176.773686,65.02463 L176.466322,64.8275495 L176.315193,64.7305409 L174.917248,63.8339777 L174.65073,64.251625 L176.040505,65.1420614 C175.397185,65.8640093 174.263717,66.0151384 173.386555,65.4524888 C172.444041,64.8265284 172.080514,63.6317914 172.622741,62.7076573 C173.163946,61.7814809 174.452628,61.5037301 175.451306,62.1664517 C176.117091,62.5922682 176.490829,63.2846029 176.489808,63.9595782 L177.023866,64.0443331 C177.044289,63.1855521 176.570478,62.2940945 175.715782,61.746762 C174.45365,60.9073827 172.8188,61.2852055 172.156079,62.4401179 C171.47804,63.6174954 171.950829,65.0879409 173.123101,65.8721785 C174.307626,66.6319086 175.887334,66.3470098 176.647064,65.2370277 C176.694037,65.1686112 176.735903,65.0971312 176.773686,65.02463" id="Fill-69" fill="#EDE1DD"></path>
                <path d="M131.409626,51.8146177 L131.410648,51.8146177 L131.409626,51.8146177 Z" id="Fill-71" fill="#EDE1DD"></path>
                <path d="M132.164557,51.593234 C132.518894,51.35735 132.75682,50.956041 132.761926,50.4955056 C132.772137,49.754156 132.15843,49.1424916 131.392573,49.1292167 L131.394616,49.5999635 L131.395637,49.5999635 C131.884764,49.6152806 132.275862,50.0094417 132.272798,50.4873365 C132.270756,50.9652313 131.882722,51.3450963 131.405848,51.3440752 L131.404827,51.3440752 L131.404827,51.3461175 L128.207629,51.4451683 L128.124917,49.7000355 L131.386446,49.5989423 L131.390531,49.5948578 L131.387468,49.1333013 L131.383383,49.1302379 L127.569415,49.2497115 L127.566352,49.252775 L127.826743,54.1399639 L127.830828,54.1430273 L131.415038,54.0307016 L131.419123,54.0276382 L131.41606,53.5650605 L131.411975,53.5619971 L128.310765,53.6590056 L128.229073,51.9128517 L131.409933,51.814822 L131.40789,51.5891494 L131.410954,51.814822 C131.891912,51.8240122 132.279946,52.2212368 132.275862,52.7032161 C132.272798,53.1862166 131.88987,53.5701662 131.420144,53.5619971 C131.421165,53.7018936 131.423208,54.0307016 131.423208,54.0307016 C132.14005,54.0439764 132.728228,53.4527348 132.738439,52.7113852 C132.743545,52.2508499 132.517873,51.8413717 132.164557,51.593234" id="Fill-73" fill="#EDE1DD"></path>
                <path d="M159.818122,56.8554886 L159.819143,56.8554886 L159.818122,56.8554886 Z" id="Fill-75" fill="#EDE1DD"></path>
                <path d="M160.604913,56.9101197 C161.020518,56.81209 161.387108,56.5190221 161.554575,56.0911633 C161.82722,55.4008708 161.468799,54.6166333 160.753999,54.3388824 L160.589595,54.7800161 L160.589595,54.7800161 C161.044004,54.9638218 161.270698,55.4682663 161.098124,55.9134845 C160.926572,56.3597238 160.428255,56.5813118 159.982016,56.4148655 L159.979973,56.4138444 L159.979973,56.4158867 L159.233518,56.1258821 L158.47583,55.8726388 L156.957391,55.3681943 L157.500639,53.7078163 L159.048691,54.2224722 L159.821696,54.4808213 L160.583469,54.7759315 L160.586532,54.7738892 L160.748894,54.3409247 L160.74583,54.3368402 C160.157652,54.0948293 159.555178,53.8906008 158.94964,53.6955626 L157.139154,53.0941095 L157.136091,53.0961518 L155.644201,57.7576681 L155.646244,57.7617527 L157.34951,58.3264446 C157.917265,58.5102503 158.483999,58.701204 159.037459,58.9299399 L159.041543,58.9278977 L159.202884,58.4949332 L159.200841,58.4898274 L158.477872,58.2079921 L157.740607,57.9629178 L156.26812,57.4737905 L156.811367,55.8134125 C157.813108,56.1636644 158.838336,56.4454998 159.817612,56.854978 L159.89624,56.6446226 L159.818633,56.8559992 C160.267935,57.0316357 160.490545,57.5371013 160.315929,57.9864041 C160.142335,58.436728 159.64606,58.6634217 159.207989,58.4928909 C159.159996,58.6246183 159.044607,58.9319822 159.044607,58.9319822 C159.712434,59.1923736 160.474206,58.844164 160.746851,58.1548926 C160.91534,57.7260127 160.847945,57.2644562 160.604913,56.9101197" id="Fill-77" fill="#EDE1DD"></path>
                <path d="M132.062443,0 C137.07319,0 141.134274,3.17064803 141.134274,8.18037402 C141.134274,8.18037402 141.134274,8.18854317 141.133253,8.20488145 C141.117936,8.87883562 141.029097,9.54564179 140.869799,10.2012154 C140.112111,13.3299966 136.841391,27.4483153 136.841391,38.1366157 L136.842102,37.8880875 C141.130629,38.5484425 144.272654,41.4693048 144.272654,45.077731 L144.272654,45.077731 L119.727448,45.077731 C119.727448,41.4343177 122.930699,38.4918662 127.282355,37.8695182 C127.229484,27.2151802 124.006491,13.3040803 123.254066,10.2012154 C123.095789,9.54564179 123.004907,8.87883562 122.990611,8.20488145 L122.990611,8.20488145 L122.990611,8.18037402 C122.990611,3.17064803 127.051696,0 132.062443,0 Z" id="Combined-Shape" fill="#EDE1DD"></path>
                <path d="M38.7063112,38.6176761 C42.2486552,35.074311 47.3635589,34.4442659 50.9059029,37.987631 L50.9059029,37.987631 L50.9232623,38.0049904 C51.3899245,38.4920755 51.7973604,39.0271543 52.1486335,39.6030787 C53.8243286,42.3509737 61.4951525,54.6475739 69.0526295,62.2050509 L68.8778037,62.0280815 C72.3772201,59.4633946 76.6640675,59.3066842 79.2156541,61.8582708 L79.2156541,61.8582708 L61.859292,79.214633 C59.2826229,76.6379639 59.4669563,72.2917505 62.1044497,68.7745247 C54.533178,61.2788614 42.4168502,53.7218065 39.6917139,52.0589772 C39.1157895,51.7077041 38.5807107,51.3002682 38.0936256,50.833606 C38.0823931,50.8233945 38.0762662,50.8172677 38.0762662,50.8172677 C34.5329011,47.2739026 35.1629461,42.16002 38.7063112,38.6176761 Z" id="Combined-Shape" fill="#EDE1DD"></path>
                <path d="M213.181507,38.0750408 C216.724872,34.5326969 221.838755,35.1627419 225.38212,38.7050859 C228.924464,42.248451 229.554509,47.3623335 226.012165,50.9046775 C226.012165,50.9046775 226.006038,50.9108043 225.993784,50.9220369 C225.506699,51.3886991 224.97162,51.7961351 224.396717,52.1474081 C221.647801,53.8231033 209.351201,61.4939271 201.793724,69.0514041 L201.971227,68.8775764 C204.536401,72.3768097 204.692052,76.6630847 202.140708,79.2144287 L202.140708,79.2144287 L184.784346,61.8580666 C187.361015,59.2813975 191.706426,59.466533 195.224181,62.1042089 C202.719544,54.5325883 210.277938,42.4167072 211.939797,39.6904886 C212.291071,39.1145641 212.698506,38.5805065 213.165169,38.0924003 L213.165169,38.0924003 Z" id="Combined-Shape" fill="#EDE1DD"></path>
                <path d="M132.062443,218.963727 C137.07319,218.963727 141.134274,222.134375 141.134274,227.144101 C141.134274,227.144101 141.134274,227.152271 141.133253,227.168609 C141.117936,227.842563 141.029097,228.509369 140.869799,229.164943 C140.112111,232.293724 136.841391,246.412043 136.841391,257.100343 L136.842102,256.851815 C141.130629,257.51217 144.272654,260.433032 144.272654,264.041458 L144.272654,264.041458 L119.727448,264.041458 C119.727448,260.398045 122.930699,257.455594 127.282355,256.833246 C127.229484,246.178908 124.006491,232.267808 123.254066,229.164943 C123.095789,228.509369 123.004907,227.842563 122.990611,227.168609 L122.990611,227.168609 L122.990611,227.144101 C122.990611,222.134375 127.051696,218.963727 132.062443,218.963727 Z" id="Combined-Shape" fill="#EDE1DD" transform="translate(132.000051, 241.502593) scale(1, -1) translate(-132.000051, -241.502593) "></path>
                <path d="M38.7063112,187.820268 C42.2486552,184.276903 47.3635589,183.646858 50.9059029,187.190223 L50.9059029,187.190223 L50.9232623,187.207582 C51.3899245,187.694667 51.7973604,188.229746 52.1486335,188.80567 C53.8243286,191.553565 61.4951525,203.850165 69.0526295,211.407642 L68.8778037,211.230673 C72.3772201,208.665986 76.6640675,208.509276 79.2156541,211.060862 L79.2156541,211.060862 L61.859292,228.417225 C59.2826229,225.840555 59.4669563,221.494342 62.1044497,217.977116 C54.533178,210.481453 42.4168502,202.924398 39.6917139,201.261569 C39.1157895,200.910296 38.5807107,200.50286 38.0936256,200.036198 C38.0823931,200.025986 38.0762662,200.019859 38.0762662,200.019859 C34.5329011,196.476494 35.1629461,191.362612 38.7063112,187.820268 Z" id="Combined-Shape" fill="#EDE1DD" transform="translate(57.464262, 206.622025) scale(1, -1) translate(-57.464262, -206.622025) "></path>
                <path d="M213.181507,187.189667 C216.724872,183.647323 221.838755,184.277368 225.38212,187.819712 C228.924464,191.363077 229.554509,196.47696 226.012165,200.019304 C226.012165,200.019304 226.006038,200.02543 225.993784,200.036663 C225.506699,200.503325 224.97162,200.910761 224.396717,201.262034 C221.647801,202.937729 209.351201,210.608553 201.793724,218.16603 L201.971227,217.992202 C204.536401,221.491436 204.692052,225.777711 202.140708,228.329055 L202.140708,228.329055 L184.784346,210.972693 C187.361015,208.396024 191.706426,208.581159 195.224181,211.218835 C202.719544,203.647214 210.277938,191.531333 211.939797,188.805115 C212.291071,188.22919 212.698506,187.695133 213.165169,187.207026 L213.165169,187.207026 Z" id="Combined-Shape" fill="#EDE1DD" transform="translate(206.579574, 206.578042) scale(1, -1) translate(-206.579574, -206.578042) "></path>
                <path d="M38.1376369,127.157792 C27.4493364,127.157792 13.3310177,123.887072 10.2022365,123.128363 C9.54666293,122.970086 8.8808779,122.880226 8.20590259,122.864909 C8.18956431,122.864909 8.18139517,122.864909 8.18139517,122.864909 C3.17166917,122.864909 0,126.925993 0,131.93674 C0,136.947487 3.17166917,141.008572 8.18139517,141.008572 C8.18139517,141.008572 8.18956431,141.008572 8.20590259,141.008572 C8.8808779,140.993255 9.54666293,140.903394 10.2022365,140.745117 C13.3310177,139.986408 27.4493364,136.715688 38.1376369,136.715688" id="Fill-83" fill="#EDE1DD"></path>
                <path d="M225.862363,136.839961 C236.550664,136.839961 250.668982,140.110681 253.796742,140.86939 C254.453337,141.027667 255.119122,141.117528 255.794097,141.132845 C255.809415,141.132845 255.818605,141.132845 255.818605,141.132845 C260.828331,141.132845 264,137.07176 264,132.061013 C264,127.051287 260.828331,122.989182 255.818605,122.989182 C255.818605,122.989182 255.809415,122.989182 255.794097,122.990203 C255.119122,123.004499 254.453337,123.094359 253.796742,123.253658 C250.668982,124.011346 236.550664,127.282066 225.862363,127.282066" id="Fill-86" fill="#EDE1DD"></path>
                <path d="M45.07865,119.72612 C40.9675296,119.72612 37.7488879,123.804564 37.7488879,129.01035 L37.7488879,134.988119 C37.7488879,140.192883 40.9675296,144.271327 45.07865,144.271327" id="Fill-95" fill="#EDE1DD"></path>
                <path d="M218.920737,144.271633 C223.031858,144.271633 226.251521,140.193189 226.251521,134.987404 L226.251521,129.009635 C226.251521,123.80487 223.031858,119.726427 218.920737,119.726427" id="Fill-98" fill="#EDE1DD"></path>
                <path d="M126.570635,84.3194274 C128.091117,83.014407 130.049669,82.4752437 131.97248,82.4691168 L131.99903,82.4691168 C133.932053,82.4752437 135.845674,82.985815 137.400875,84.3194274 C138.634415,85.3793735 139.642283,87.0305612 139.659642,88.8093917 C139.670875,89.9428601 139.245058,91.0273136 138.617056,91.9402152 C137.690879,90.9027342 136.274554,90.2185686 134.76939,90.2185686 L129.225606,90.2185686 C127.713294,90.2185686 126.293906,90.9068188 125.36875,91.9524689 C124.743811,91.0385462 124.322079,89.9520504 124.311868,88.8093917 C124.293487,87.0387303 125.338116,85.3773312 126.570635,84.3194274 M151.589652,114.274648 C151.589652,122.355971 144.916485,127.909966 137.152737,128.487933 L137.152737,100.062384 C144.916485,100.640351 151.589652,106.193325 151.589652,114.274648 M185.374158,123.376093 L173.188862,125.478625 C171.466195,125.873808 170.219379,125.624649 170.146878,127.381014 C170.012087,130.677263 169.597503,136.015797 168.625376,140.070754 C165.482298,153.160782 156.326733,159.371372 144.623417,161.724085 C142.871136,162.076379 140.701208,161.781269 139.230762,160.672308 C137.623484,159.462254 137.152737,157.556802 137.152737,155.637053 L137.152737,130.18303 L144.433484,130.18303 C157.810453,130.18303 166.975209,123.799867 166.975209,114.274648 C166.975209,104.749429 157.810453,98.3672872 144.433484,98.3672872 L137.247703,98.3672872 C138.270888,97.8413987 139.054105,96.9785332 139.429885,95.9328831 C142.831311,94.6993427 145.146242,92.0096529 145.146242,88.8093917 C145.146242,84.4062245 140.777794,80.9578256 135.201333,80.9578256 L128.798769,80.9578256 C123.22333,80.9578256 118.854881,84.4062245 118.854881,88.8093917 C118.854881,92.0198643 121.182065,94.715681 124.600851,95.9441156 C125.015435,96.98466 125.865026,97.843441 126.934162,98.3672872 L126.848386,98.3672872 L126.848386,103.942726 L126.848386,117.361562 L126.848386,133.698824 L126.848386,148.027498 C126.848386,150.491515 126.866767,152.957575 126.848386,155.421592 C126.814689,159.876838 123.85848,162.335749 119.446123,161.739402 C107.71013,159.396901 98.5239305,153.187332 95.3757476,140.070754 C94.4025987,136.015797 93.9880147,130.677263 93.8522027,127.381014 C93.7817439,125.624649 92.5339075,125.873808 90.8112398,125.478625 L78.6249231,123.376093 C78.6249231,123.376093 80.3465696,144.837448 101.1064,157.927476 C105.662739,161.237 108.07672,162.386807 111.419941,164.536312 C115.581098,167.212727 119.644225,170.037207 123.591962,173.018944 C126.57472,175.272606 131.862197,178.819035 131.862197,183.037375 C131.862197,183.080263 131.887725,182.311343 131.931634,180.989984 C131.974522,182.311343 132.000051,183.080263 132.000051,183.037375 C132.000051,178.819035 137.287528,175.272606 140.270286,173.018944 C144.218023,170.037207 148.280129,167.212727 152.442306,164.536312 C155.549644,162.537936 157.873764,161.385066 161.842946,158.576923 C183.598391,145.560417 185.374158,123.376093 185.374158,123.376093" id="Fill-103" fill="#EDE1DD"></path>
            </g>
        </g>
    </g>
</svg>