<?xml version="1.0" encoding="UTF-8"?>
<svg width="860px" height="62px" viewBox="0 0 860 62" version="1.1" xmlns="http://www.w3.org/2000/svg" xmlns:xlink="http://www.w3.org/1999/xlink">
    <title>illust_text_section2</title>
    <defs>
        <polygon id="path-1" points="9.37550666e-14 0 34.5933574 0 34.5933574 40.4430479 9.37550666e-14 40.4430479"></polygon>
    </defs>
    <g id="components" stroke="none" stroke-width="1" fill="none" fill-rule="evenodd">
        <g id="illust" transform="translate(-111.000000, -2464.000000)">
            <g id="Group" transform="translate(111.000000, 2464.000000)">
                <path d="M43.3261232,41.2372955 C42.795855,39.8163748 42.0726122,38.5076104 41.1539205,37.3093528 C40.2344043,36.11192 39.148303,35.0818968 37.894792,34.2176339 C36.641281,33.3550205 35.2624189,32.6721868 33.7582057,32.1707824 C32.5327337,31.7815343 31.3204567,31.5168126 30.1238485,31.3766172 C28.9247662,31.238896 27.5186898,31.1679736 25.9039697,31.1679736 L17.7982068,31.1679736 L17.7982068,36.5151876 L17.7982068,41.6133488 C17.7982068,43.1736401 17.8114016,44.6085804 17.8402654,45.9165201 C17.8674798,47.2261092 17.8814993,48.3542691 17.8814993,49.3001751 C17.9367527,51.4187736 18.0348895,53.1588448 18.1742601,54.5228627 C18.312806,55.8893546 18.7177231,57.0166899 19.3857125,57.9073424 C19.8871169,58.5209031 20.6392235,59.0355023 21.6420323,59.4536142 C22.6448411,59.8709014 24.0929761,60.0803697 25.9872622,60.0803697 C27.6028069,60.0803697 29.3577223,59.9690381 31.2520084,59.7455503 C33.144645,59.5237119 34.9828529,58.9390149 36.7666321,57.9906349 C39.1062444,56.7659877 40.9164132,55.1364234 42.1979633,53.1027667 C43.4795133,51.0699347 44.1202883,48.6321857 44.1202883,45.7903443 C44.1202883,44.1756243 43.8547419,42.6573915 43.3261232,41.2372955 M38.7301911,8.60642507 C37.310095,6.43422246 35.5411601,4.87475582 33.424211,3.92720047 C30.917189,2.8130601 27.7133138,2.25557758 23.8150596,2.25557758 C22.6448411,2.25557758 21.5859542,2.31165571 20.6392235,2.42381195 C19.6916681,2.53514352 18.9684253,2.67368947 18.4670209,2.84027449 C18.4109428,3.17509387 18.3548646,3.48187419 18.2996112,3.76061546 C18.2435331,4.03935672 18.2022991,4.38654628 18.1742601,4.80465817 C18.1453963,5.22194538 18.118182,5.73819399 18.0909676,6.35010528 C18.0621038,6.96366592 18.0200452,7.77102596 17.9656165,8.77383476 C17.9095384,10.7241989 17.8674798,12.8683625 17.8402654,15.2079748 C17.8114016,17.5467624 17.7982068,19.7766925 17.7982068,21.8928169 L17.7982068,27.240031 L17.7982068,29.9152873 L22.4774314,29.9152873 C23.7581568,29.9152873 24.7890046,29.8864236 25.5691503,29.8311701 C30.5831943,29.5524289 34.3849612,28.1323329 36.9752757,25.5692327 C39.5655902,23.007782 40.8611598,19.8327706 40.8611598,16.0433739 C40.8611598,13.2584353 40.1511117,10.7786277 38.7301911,8.60642507 M52.9773331,50.3038086 C52.3637725,51.9193534 51.5564125,53.3402741 50.5544283,54.5649213 C49.5516195,55.7903932 48.4366545,56.8352606 47.2120072,57.6986988 C45.9857106,58.5629616 44.759414,59.2169315 43.5347668,59.6622578 C41.4178176,60.4432281 39.0501662,60.9157688 36.4326374,61.0823538 C33.8134591,61.2505882 31.2792227,61.333056 28.8282789,61.333056 L2.48689958e-14,61.333056 L2.48689958e-14,60.4976569 C1.39205695,60.2758184 2.7156656,59.91296 3.96917659,59.4115556 C5.22268759,58.9101512 6.23786656,58.2141227 7.0188369,57.3226455 C7.29757816,56.9886508 7.5202413,56.5012659 7.68765099,55.8596662 C7.85506068,55.2205405 8.00762616,54.4816288 8.14699679,53.6462297 C8.28554275,52.8100059 8.38367946,51.9325482 8.43975759,51.0130319 C8.49418635,50.0943403 8.52305009,49.1896682 8.52305009,48.298191 C8.52305009,47.5180454 8.53624495,46.4599831 8.56510869,45.1231796 C8.59232307,43.7863761 8.62036213,42.3233968 8.64840119,40.7358911 C8.67561558,39.1483854 8.69045979,37.5188211 8.69045979,35.8471982 L8.69045979,31.0013886 L8.69045979,26.5720415 L8.69045979,22.8956257 C8.69045979,21.6701538 8.67561558,20.4174675 8.64840119,19.1350928 C8.62036213,17.8543674 8.6063426,16.3773686 8.6063426,14.7065704 C8.6063426,13.7037616 8.57830354,12.6885826 8.52305009,11.6560854 C8.46697197,10.6260622 8.36883525,9.63809761 8.2302893,8.68971758 C8.09091867,7.74381158 7.92350898,6.89274359 7.7288849,6.14146167 C7.53343615,5.38935507 7.2695391,4.84671676 6.93554439,4.51189737 C6.10014529,3.6220695 5.26474618,3.02170371 4.4285224,2.71492339 C3.5931233,2.40979242 2.42290481,2.17228508 0.91951629,2.00487538 L0.91951629,1.16947628 L29.0789811,1.16947628 C31.1959302,1.16947628 33.2155674,1.29482738 35.1370678,1.54552958 C37.0593929,1.79623178 38.9107956,2.25557758 40.6937501,2.92439167 C43.5347668,3.98245391 45.8743791,5.59799868 47.7134116,7.77102596 C49.5516195,9.94322857 50.4711358,12.7009528 50.4711358,16.0433739 C50.4711358,19.7197897 49.2868978,22.6869821 46.9192464,24.9424773 C44.5507704,27.198797 41.473071,28.7170298 37.6861483,29.4971754 L37.6861483,29.8311701 C39.6917659,30.0538333 41.6685198,30.5412181 43.6188839,31.2925001 C45.5675987,32.0454313 47.3084946,33.0622597 48.8407469,34.3438097 C50.3721744,35.6253598 51.598471,37.1427678 52.5179873,38.8968585 C53.4375036,40.6525986 53.8968494,42.6441967 53.8968494,44.8716527 C53.8968494,46.8772703 53.5900691,48.6882638 52.9773331,50.3038086" id="Fill-1" fill="#EDE1DD"></path>
                <path d="M92.4597133,24.6084825 C91.0387926,23.1331331 89.130487,22.3933967 86.7356213,22.3933967 C85.17533,22.3933967 83.7692535,22.8535672 82.5157425,23.7730834 C81.2622315,24.6925997 80.1761302,25.7646815 79.2566139,26.9901534 C78.3379223,28.2156254 77.6278743,29.4551168 77.1264699,30.7078032 C76.6250655,31.9621388 76.3182852,32.922889 76.2069536,33.5917031 L79.6326672,33.5917031 C80.635476,33.5917031 81.6242653,33.5785083 82.599035,33.5496445 C83.5738047,33.5224301 84.5906331,33.4943911 85.64952,33.4655273 C86.7067575,33.438313 87.876976,33.4234688 89.1593508,33.4234688 C89.9947499,33.4234688 90.7740708,33.3962544 91.4981384,33.3401762 C92.2222059,33.2857475 92.8629809,33.1463768 93.4204635,32.922889 C93.8097116,32.4775628 94.1024724,32.0594509 94.2979212,31.669378 C94.4925452,31.2801299 94.5898573,30.695433 94.5898573,29.9152873 C94.5898573,27.8544163 93.880634,26.0846567 92.4597133,24.6084825 M102.027631,52.7679473 C101.24666,54.3018489 100.189423,55.7071007 98.8517947,56.9886508 C97.5149912,58.2702009 95.9126413,59.3282631 94.047219,60.1636622 C92.1801473,60.9990613 90.1052568,61.4171732 87.8217226,61.4171732 C84.9807059,61.4171732 82.3903914,60.8877297 80.0507791,59.8296675 C77.7111668,58.7724299 75.718744,57.2805869 74.0759849,55.3590865 C72.4324011,53.4367614 71.1648705,51.1812663 70.274218,48.5901271 C69.3827408,45.9998126 68.9374145,43.2569326 68.9374145,40.3598378 C68.9374145,38.0202255 69.3547017,35.6938081 70.1909255,33.3822348 C71.0263246,31.0714863 72.2089133,28.9949464 73.7419902,27.1575631 C75.2734178,25.3185305 77.1388401,23.8291616 79.3407311,22.6869821 C81.5401481,21.5448027 83.9778971,20.9741253 86.6523288,20.9741253 C88.8245314,20.9741253 90.8722076,21.2536913 92.793708,21.8086998 C94.7160331,22.3661823 96.3868313,23.2172503 97.807752,24.3577803 C99.227848,25.4999598 100.383222,26.9349 101.274699,28.6609516 C102.166177,30.3886527 102.69562,32.4214846 102.86303,34.7619216 L76.0395439,34.7619216 C76.0395439,35.2080726 76.0115048,35.7226718 75.9562514,36.3073687 C75.9001733,36.8920656 75.8729589,37.4907821 75.8729589,38.103518 C75.8729589,40.4431303 76.2069536,42.6862553 76.8757677,44.8304188 C77.5445818,46.975407 78.5177022,48.8705177 79.8000769,50.5124522 C81.0808023,52.156036 82.696347,53.4516056 84.6467112,54.3983363 C86.5962506,55.345067 88.8517458,55.8184323 91.4148459,55.8184323 C94.1997845,55.8184323 96.6375335,55.1075596 98.7264436,53.6882883 C100.815354,52.2665429 102.194216,50.5264717 102.86303,48.4656007 L103.531844,48.6321857 C103.308356,49.8584823 102.806952,51.2365197 102.027631,52.7679473" id="Fill-3" fill="#EDE1DD"></path>
                <path d="M164.112134,10.6952527 C163.778139,11.4201449 163.289105,12.563149 162.649979,14.121791 C162.008379,15.6820823 161.215039,17.5763683 160.268308,19.8038244 C159.319928,22.0321051 158.275885,24.5539713 157.135355,27.3661243 C155.992351,30.1799266 154.75286,33.2295869 153.416056,36.5159299 L174.222689,36.5159299 C173.275134,34.0097325 172.314384,31.5018859 171.340439,28.9948639 C170.364844,26.4878419 169.418114,24.0797813 168.499422,21.7673834 C167.579906,19.4566348 166.744507,17.338861 165.9924,15.4173606 C165.240294,13.4950355 164.613538,11.9215493 164.112134,10.6952527 L164.112134,10.6952527 Z M175.058913,61.3329735 L175.058913,60.4983991 C175.225498,60.4983991 175.628766,60.4431457 176.270366,60.3309894 C176.910316,60.2196579 177.578305,60.0250338 178.275159,59.7462925 C178.972012,59.4675513 179.583923,59.0774784 180.114191,58.576074 C180.641985,58.073845 180.908356,57.435544 180.908356,56.6537489 C180.908356,56.1523445 180.753317,55.3317897 180.448186,54.1887855 C180.141405,53.0474308 179.709274,51.6545492 179.153441,50.0109653 C178.595134,48.3690309 177.954359,46.5431931 177.231116,44.5375756 C176.506224,42.531958 175.726903,40.4430479 174.891504,38.2708453 L152.66395,38.2708453 C151.828551,40.3886191 151.020366,42.4066069 150.241045,44.3281073 C149.460074,46.2504324 148.680754,48.1876017 147.901433,50.1363164 C146.731214,53.1447428 146.146517,55.2625167 146.146517,56.4863393 C146.146517,57.2112315 146.368356,57.8107726 146.814507,58.2833132 C147.259833,58.7566786 147.83051,59.1475761 148.528188,59.4535317 C149.224217,59.7603121 149.975498,59.9837999 150.783683,60.1215211 C151.591043,60.2617164 152.357169,60.3870675 153.082062,60.4983991 L153.082062,61.3329735 L135.28303,61.3329735 L135.28303,60.4142819 C136.732814,60.2468722 137.970657,59.8576241 139.002329,59.2440634 C140.032352,58.6321522 140.631893,58.2140403 140.798478,57.9913771 C141.187727,57.602129 141.828502,56.6834374 142.720804,55.2336529 C143.611456,53.7855179 144.697557,51.6405296 145.979107,48.7986883 C147.149326,46.1811594 148.457266,43.2007721 149.90705,39.8575263 C151.355185,36.5159299 152.844554,33.0770214 154.377631,29.5391516 C155.909059,26.0021064 157.427291,22.4361975 158.931505,18.8430742 C160.435718,15.2491262 161.855814,11.8935103 163.192617,8.77375229 L162.357218,6.93471971 C163.360027,6.48939344 164.264699,5.96159934 165.072884,5.34803869 C165.880244,4.73530272 166.590292,4.09452769 167.203853,3.4257136 C167.816588,2.75772419 168.332012,2.11777384 168.750124,1.50338852 C169.167412,0.891477228 169.487387,0.39007283 169.710875,0 L170.378864,0 C172.104916,4.62479583 173.749324,9.01125964 175.309615,13.1602161 C176.868257,17.3108219 178.359276,21.3072129 179.780196,25.1510384 C181.200292,28.9948639 182.579154,32.7133383 183.915958,36.3072863 C185.252761,39.9004095 186.589565,43.4514743 187.926369,46.961305 C188.539929,48.6881814 189.109782,50.1231216 189.64005,51.2644763 C190.168669,52.4066558 190.76821,53.7014007 191.436199,55.1495357 C191.547531,55.3730236 191.798233,55.7630964 192.188306,56.3197542 C192.577554,56.8772368 193.092978,57.4470895 193.733753,58.032611 C194.374528,58.6173079 195.167869,59.1327319 196.115424,59.5788828 C197.062979,60.0250338 198.176295,60.275736 199.45867,60.3309894 L199.45867,61.3329735 L175.058913,61.3329735 Z" id="Fill-5" fill="#EDE1DD"></path>
                <path d="M267.016892,22.8954608 C266.319214,22.9515389 265.63803,23.1329682 264.970041,23.4380991 C264.301227,23.7448794 263.645607,24.2190695 263.006482,24.8590198 C262.364882,25.4997948 261.794205,26.4052916 261.293625,27.5746854 C260.624811,29.1349767 259.830646,30.9583404 258.911129,33.0488999 C257.992438,35.1369853 257.044058,37.3240321 256.070937,39.6075663 C255.095343,41.8927498 254.119748,44.1614398 253.145803,46.4177596 C252.170209,48.6740794 251.293576,50.7778337 250.51343,52.7265485 C250.012026,53.7854354 249.594739,54.6901075 249.260744,55.4422141 C248.925925,56.1943207 248.619144,56.8623101 248.341228,57.447007 C248.061662,58.0325286 247.797765,58.6048553 247.547887,59.1606885 C247.29636,59.718171 247.0036,60.330907 246.669605,60.9988964 C246.446942,61.3328911 246.196239,61.5011254 245.917498,61.5011254 C245.637932,61.5011254 245.458152,61.4442226 245.37486,61.3328911 C245.290743,61.2232089 245.21982,61.0830136 245.165392,60.9164285 C244.441324,58.7434013 243.745296,56.6685107 243.077306,54.6901075 C242.407667,52.7133536 241.710814,50.6665021 240.988396,48.5479036 C240.263504,46.4317791 239.483358,44.1193812 238.647959,41.6131839 C237.81256,39.1061619 236.836966,36.2379308 235.72365,33.0060166 L227.785297,53.7293573 C227.003502,55.2335705 226.418805,56.5159452 226.030381,57.5731828 C225.639484,58.6320697 225.166118,59.7742491 224.609461,60.9988964 C224.386798,61.3328911 224.108881,61.5011254 223.774062,61.5011254 C223.49532,61.5011254 223.243793,61.3056767 223.021955,60.9164285 C220.849752,55.624468 218.731154,50.4710534 216.671107,45.4561847 C214.609412,40.4429654 212.409995,35.1237904 210.070382,29.4970105 C209.736388,28.7176895 209.35951,27.8674462 208.942223,26.9479299 C208.524111,26.0292383 208.091979,25.2078587 207.646653,24.4837912 C207.312658,24.2050499 206.824449,23.856211 206.184498,23.4380991 C205.543723,23.0208119 204.304232,22.7841292 202.466024,22.7280511 L202.466024,21.8093595 L221.26704,21.8093595 L221.26704,22.7280511 C220.876967,22.7841292 220.417621,22.841032 219.889002,22.8954608 C219.358734,22.9515389 218.829291,23.0496756 218.301496,23.1873969 C217.770404,23.3275922 217.269824,23.4801577 216.797283,23.6475674 C216.322269,23.8141524 215.94704,24.0376402 215.668299,24.3163815 C215.77963,24.7625324 216.212586,25.9739849 216.963868,27.9507387 C217.715975,29.9283172 218.648686,32.2827737 219.762826,35.0116342 C220.876967,37.742144 222.0744,40.6392388 223.356774,43.7012693 C224.636675,46.7657738 225.806894,49.5795761 226.86578,52.1418516 C227.311107,51.0277112 227.839726,49.6909077 228.453286,48.1314411 C229.065197,46.5719744 229.734012,44.8442734 230.458904,42.9499874 C231.182147,41.056526 231.921058,39.0789475 232.673165,37.0172518 C233.426096,34.9572054 234.163359,32.9227241 234.887426,30.9179312 C234.497353,29.8037908 234.080066,28.731709 233.63474,27.7000365 C233.187764,26.6700133 232.68636,25.653185 232.130527,24.6503762 C231.963117,24.4837912 231.809727,24.302362 231.671181,24.1077379 C231.530986,23.9122891 231.307498,23.7176651 231.002367,23.5222163 C230.695586,23.3275922 230.263455,23.1601825 229.706797,23.0208119 C229.149315,22.882266 228.369994,22.7841292 227.367185,22.7280511 L227.367185,21.8093595 L246.418903,21.8093595 L246.418903,22.7280511 C245.972752,22.7841292 245.416919,22.8534022 244.748104,22.9375194 C244.080115,23.0208119 243.424496,23.146163 242.783721,23.3135727 C242.142946,23.4801577 241.585463,23.7176651 241.112923,24.0236207 C240.639557,24.330401 240.402875,24.7905715 240.402875,25.4016581 C240.402875,25.6820487 240.55544,26.3360186 240.86222,27.3660418 C241.167351,28.3977143 241.572268,29.6635955 242.073673,31.1678087 C242.575077,32.6720219 243.146579,34.3436448 243.78653,36.1818527 C244.42648,38.0200606 245.082099,39.8574438 245.750913,41.6964764 C246.418903,43.5346843 247.072873,45.3316583 247.714472,47.085749 C248.353598,48.8414891 248.925925,50.3869362 249.427329,51.7237397 C249.761324,51.0004968 250.233864,49.9275904 250.84825,48.5074944 C251.460161,47.085749 252.114956,45.4982433 252.810984,43.7433279 C253.507012,41.9892372 254.231905,40.179893 254.984011,38.3119967 C255.736118,36.4465744 256.404932,34.6924837 256.989629,33.0488999 C257.574326,31.405316 258.061711,29.9431614 258.451784,28.6607867 C258.841032,27.3792367 259.03648,26.4877594 259.03648,25.9871797 C259.03648,25.2078587 258.855876,24.6083176 258.493842,24.1902057 C258.130984,23.7729185 257.685657,23.4669629 257.157039,23.2715141 C256.625946,23.07689 256.056093,22.9515389 255.444182,22.8954608 C254.830621,22.841032 254.273963,22.7841292 253.772559,22.7280511 L253.772559,21.8093595 L269.063744,21.8093595 L269.063744,22.7280511 C268.395754,22.7841292 267.712921,22.841032 267.016892,22.8954608" id="Fill-7" fill="#EDE1DD"></path>
                <path d="M298.560837,38.6045926 C297.558028,39.3294848 296.305342,40.0964356 294.800304,40.9029709 C293.29609,41.7111557 291.834761,42.5877887 290.41384,43.535344 C288.992919,44.4828994 287.766623,45.5277668 286.736599,46.6682968 C285.705752,47.8104763 285.191152,49.1052212 285.191152,50.5541809 C285.191152,52.0031407 285.692557,53.3119051 286.694541,54.4812989 C287.698174,55.6515174 289.006114,56.2362143 290.622483,56.2362143 C292.070619,56.2362143 293.351344,56.0696293 294.466309,55.7348099 C295.580449,55.3999905 296.610473,54.7608649 297.558028,53.8124848 C298.226842,53.2005736 298.560837,52.4212526 298.560837,51.4728725 L298.560837,38.6045926 Z M313.351442,56.2362143 C312.905291,57.2390231 312.319769,58.1445199 311.596526,58.9518799 C310.871634,59.7600646 310.021391,60.3728006 309.04827,60.7900878 C308.071851,61.207375 306.99977,61.4168433 305.830376,61.4168433 C303.93609,61.4168433 302.251272,60.8601855 300.775923,59.7460451 C299.298924,58.6319048 298.560837,56.68319 298.560837,53.896602 L298.393427,53.8124848 C297.947276,54.5373771 297.349384,55.3455618 296.597278,56.2362143 C295.845171,57.1285162 294.953694,57.9639153 293.923671,58.7432363 C292.891998,59.523382 291.750643,60.1501375 290.497132,60.6226781 C289.243621,61.0968681 287.864759,61.3335508 286.361371,61.3335508 C285.469069,61.3335508 284.564397,61.207375 283.64488,60.9566728 C282.726189,60.7067953 281.89079,60.261469 281.138683,59.6198693 C280.386577,58.9807437 279.773016,58.1585394 279.300475,57.1557306 C278.826285,56.1520971 278.589603,54.9274499 278.589603,53.4784901 C278.589603,51.9198482 279.216358,50.415635 280.469869,48.9658506 C281.72338,47.5185402 283.268827,46.208951 285.10786,45.0387326 C286.946068,43.8693387 288.575632,42.8665299 289.995728,42.0303062 C291.416649,41.1957317 292.655315,40.4848591 293.714202,39.9001621 C294.77144,39.3146406 295.704976,38.8140608 296.513985,38.395949 C297.320521,37.9778371 298.003354,37.6017838 298.560837,37.2677891 L298.560837,28.6606218 C298.560837,28.5501149 298.4627,28.2845685 298.268901,27.8672813 C298.072627,27.449994 297.738632,27.0186873 297.266092,26.5717117 C296.791077,26.1272101 296.137932,25.7239424 295.302533,25.3602593 C294.466309,24.9990502 293.380208,24.8167963 292.043404,24.8167963 C291.151927,24.8167963 290.273645,24.9718358 289.411031,25.2769668 C288.545944,25.5837471 287.781467,25.9746446 287.112653,26.4471853 C286.444663,26.9205506 285.914395,27.3947406 285.525147,27.8672813 C285.135074,28.3414713 284.939625,28.744739 284.939625,29.0787337 L284.939625,32.8392667 C284.939625,33.6194123 284.535533,34.3162655 283.728998,34.9281768 C282.920813,35.5417374 282.043355,35.8468684 281.096625,35.8468684 C280.205147,35.8468684 279.439021,35.5277179 278.798246,34.8861182 C278.158296,34.2469925 277.837496,33.5072561 277.837496,32.6726816 C277.837496,32.0030429 278.004906,31.3911316 278.3389,30.8336491 C278.67372,30.2769912 279.091007,29.7764115 279.592411,29.3294359 C280.093816,28.8849343 280.637279,28.4940368 281.221976,28.1592174 C281.807497,27.8260473 282.321272,27.5200917 282.768247,27.2405258 C284.215558,26.4051267 285.692557,25.5985913 287.19677,24.8167963 C288.700983,24.0374753 290.134274,23.3686612 291.499116,22.8120034 C292.864784,22.2553455 294.11747,21.8091946 295.260474,21.4751999 C296.401829,21.1403805 297.335365,20.9737955 298.060257,20.9737955 C299.507567,20.9737955 300.87241,21.3498488 302.15396,22.1011307 C303.434685,22.8532373 304.353377,23.7867731 304.911684,24.9009135 C305.133523,25.2909863 305.273718,25.9746446 305.328971,26.947765 C305.3834,27.9233594 305.413089,28.8849343 305.413089,29.8308403 C305.413089,31.8364579 305.398244,33.6466267 305.37103,35.2621715 C305.342991,36.8785409 305.328971,38.4380075 305.328971,39.9413961 C305.328971,41.4456093 305.314127,42.9910564 305.287737,44.5793867 C305.258874,46.1668924 305.245679,47.908613 305.245679,49.8020743 C305.245679,52.3082716 305.676161,53.9666997 306.541248,54.773235 C307.404687,55.5822444 308.392651,55.9855121 309.506792,55.9855121 C310.788342,55.9855121 311.735072,55.7216151 312.348633,55.1913469 C312.960544,54.6627282 313.378656,53.9798945 313.601319,53.1444954 L314.103548,53.1444954 C314.046646,54.2033824 313.796768,55.2334055 313.351442,56.2362143 L313.351442,56.2362143 Z" id="Fill-9" fill="#EDE1DD"></path>
                <path d="M350.619478,28.4523905 C349.894586,29.2605752 349.058362,29.6638429 348.112456,29.6638429 C347.220979,29.6638429 346.510931,29.5112774 345.981488,29.2044971 C345.451219,28.8985415 344.991874,28.5497025 344.602625,28.1596297 C344.211728,27.7712062 343.794441,27.4223673 343.349939,27.115587 C342.902963,26.810456 342.290227,26.6554165 341.510907,26.6554165 C340.842917,26.6554165 340.187298,26.8929239 339.547348,27.3662892 C338.906572,27.8396545 338.307031,28.438371 337.751198,29.1624385 C337.193716,29.886506 336.691487,30.7078856 336.246985,31.6282266 C335.800009,32.5469182 335.411586,33.4235512 335.076767,34.259775 L335.076767,58.3255368 C335.243352,58.8261165 335.605385,59.217014 336.163693,59.4957553 C336.719526,59.7736718 337.345456,59.9691206 338.043134,60.0804522 C338.739163,60.1917837 339.464055,60.2610567 340.216162,60.2882711 C340.968268,60.3179595 341.622238,60.3872325 342.179721,60.4977394 L342.179721,61.3331385 L323.461998,61.3331385 L323.461998,60.4977394 C324.742723,60.3872325 325.843668,60.1365303 326.76236,59.7456328 C327.681876,59.3572093 328.141222,58.7156096 328.141222,57.8233077 L328.141222,29.5805504 C328.141222,29.1352241 328.099164,28.8012294 328.015871,28.5777416 C327.932579,28.3559031 327.694246,28.1052009 327.305823,27.825635 C326.804419,27.5468937 326.219722,27.1980548 325.551732,26.7815923 C324.882094,26.3634804 324.213279,26.0154662 323.54529,25.7359002 L323.54529,25.2353205 L334.49207,20.9742078 L334.993474,20.9742078 L334.826064,32.5889768 L334.993474,32.5889768 C335.272215,31.9201627 335.716717,30.945393 336.330278,29.6638429 C336.943013,28.3831175 337.72151,27.0883726 338.66989,25.7787835 C339.61662,24.4700191 340.7588,23.3418592 342.096428,22.3934791 C343.433232,21.4475731 344.964659,20.9742078 346.691536,20.9742078 C348.083592,20.9742078 349.26783,21.3906703 350.243425,22.2268941 C351.21737,23.0622932 351.705579,24.1211801 351.705579,25.4019055 C351.705579,26.6282021 351.342721,27.6450305 350.619478,28.4523905" id="Fill-11" fill="#EDE1DD"></path>
                <path d="M384.33546,24.6084825 C382.91454,23.1331331 381.006234,22.3933967 378.612193,22.3933967 C377.051077,22.3933967 375.645001,22.8535672 374.39149,23.7730834 C373.138803,24.6925997 372.051877,25.7646815 371.132361,26.9901534 C370.213669,28.2156254 369.503621,29.4551168 369.002217,30.7078032 C368.500813,31.9621388 368.194032,32.922889 368.082701,33.5917031 L371.508414,33.5917031 C372.511223,33.5917031 373.500012,33.5785083 374.475607,33.5496445 C375.449552,33.5224301 376.46638,33.4943911 377.525267,33.4655273 C378.582505,33.438313 379.752723,33.4234688 381.035098,33.4234688 C381.870497,33.4234688 382.649818,33.3962544 383.37471,33.3401762 C384.097953,33.2857475 384.738728,33.1463768 385.296211,32.922889 C385.686283,32.4775628 385.978219,32.0594509 386.173668,31.669378 C386.368292,31.2801299 386.466429,30.695433 386.466429,29.9152873 C386.466429,27.8544163 385.756381,26.0846567 384.33546,24.6084825 M393.903378,52.7679473 C393.122407,54.3018489 392.06517,55.7071007 390.727542,56.9886508 C389.390738,58.2702009 387.788388,59.3282631 385.923791,60.1636622 C384.055894,60.9990613 381.981829,61.4171732 379.69747,61.4171732 C376.857278,61.4171732 374.266138,60.8877297 371.926526,59.8296675 C369.586914,58.7724299 367.594491,57.2805869 365.951732,55.3590865 C364.308148,53.4367614 363.040618,51.1812663 362.15079,48.5901271 C361.258488,45.9998126 360.813162,43.2569326 360.813162,40.3598378 C360.813162,38.0202255 361.230449,35.6938081 362.066673,33.3822348 C362.902072,31.0714863 364.08466,28.9949464 365.617737,27.1575631 C367.149165,25.3185305 369.015412,23.8291616 371.216478,22.6869821 C373.41672,21.5448027 375.854469,20.9741253 378.528076,20.9741253 C380.701103,20.9741253 382.747955,21.2536913 384.669455,21.8086998 C386.59178,22.3661823 388.263403,23.2172503 389.683499,24.3577803 C391.103595,25.4999598 392.258969,26.9349 393.150447,28.6609516 C394.041924,30.3886527 394.571367,32.4214846 394.738777,34.7619216 L367.916116,34.7619216 C367.916116,35.2080726 367.887252,35.7226718 367.831998,36.3073687 C367.77592,36.8920656 367.748706,37.4907821 367.748706,38.103518 C367.748706,40.4431303 368.082701,42.6862553 368.751515,44.8304188 C369.419504,46.975407 370.394274,48.8705177 371.675824,50.5124522 C372.956549,52.156036 374.572094,53.4516056 376.522458,54.3983363 C378.471998,55.345067 380.728318,55.8184323 383.290593,55.8184323 C386.075532,55.8184323 388.513281,55.1075596 390.603015,53.6882883 C392.691925,52.2665429 394.070788,50.5264717 394.738777,48.4656007 L395.407591,48.6321857 C395.184103,49.8584823 394.682699,51.2365197 393.903378,52.7679473" id="Fill-13" fill="#EDE1DD"></path>
                <path d="M455.988211,10.6952527 C455.654216,11.4201449 455.165182,12.563149 454.526056,14.121791 C453.884456,15.6820823 453.090291,17.5763683 452.14356,19.8038244 C451.19518,22.0321051 450.151962,24.5539713 449.010608,27.3661243 C447.868428,30.1799266 446.628112,33.2295869 445.292133,36.5159299 L466.098766,36.5159299 C465.150386,34.0097325 464.189636,31.5018859 463.216516,28.9948639 C462.240097,26.4878419 461.294191,24.0797813 460.37385,21.7673834 C459.455983,19.4566348 458.619759,17.338861 457.867652,15.4173606 C457.11637,13.4950355 456.48879,11.9215493 455.988211,10.6952527 L455.988211,10.6952527 Z M466.934165,61.3329735 L466.934165,60.4983991 C467.1024,60.4983991 467.505668,60.4431457 468.145618,60.3309894 C468.786393,60.2196579 469.454382,60.0250338 470.15206,59.7462925 C470.848089,59.4675513 471.46,59.0774784 471.989443,58.576074 C472.518887,58.073845 472.783609,57.435544 472.783609,56.6537489 C472.783609,56.1523445 472.629394,55.3317897 472.324263,54.1887855 C472.017482,53.0474308 471.584526,51.6545492 471.028693,50.0109653 C470.471211,48.3690309 469.830436,46.5431931 469.106368,44.5375756 C468.382301,42.531958 467.60298,40.4430479 466.76758,38.2708453 L444.540027,38.2708453 C443.704627,40.3886191 442.895618,42.4066069 442.117122,44.3281073 C441.336151,46.2504324 440.55683,48.1876017 439.777509,50.1363164 C438.607291,53.1447428 438.022594,55.2625167 438.022594,56.4863393 C438.022594,57.2112315 438.244433,57.8107726 438.690583,58.2833132 C439.13591,58.7566786 439.707412,59.1475761 440.404265,59.4535317 C441.099469,59.7603121 441.850751,59.9837999 442.660585,60.1215211 C443.46712,60.2617164 444.233246,60.3870675 444.958138,60.4983991 L444.958138,61.3329735 L427.159107,61.3329735 L427.159107,60.4142819 C428.608891,60.2468722 429.846734,59.8576241 430.878406,59.2440634 C431.908429,58.6321522 432.507146,58.2140403 432.673731,57.9913771 C433.063804,57.602129 433.704579,56.6834374 434.59688,55.2336529 C435.486708,53.7855179 436.57281,51.6405296 437.855184,48.7986883 C439.025403,46.1811594 440.333343,43.2007721 441.781478,39.8575263 C443.230437,36.5159299 444.720631,33.0770214 446.252059,29.5391516 C447.784311,26.0021064 449.303368,22.4361975 450.807582,18.8430742 C452.311795,15.2491262 453.732715,11.8935103 455.068694,8.77375229 L454.233295,6.93471971 C455.236104,6.48939344 456.140776,5.96159934 456.948961,5.34803869 C457.756321,4.73530272 458.466369,4.09452769 459.079929,3.4257136 C459.691016,2.75772419 460.207265,2.11777384 460.625377,1.50338852 C461.043488,0.891477228 461.363464,0.39007283 461.586951,0 L462.255766,0 C463.980993,4.62479583 465.624576,9.01125964 467.184868,13.1602161 C468.744334,17.3108219 470.234528,21.3072129 471.655449,25.1510384 C473.076369,28.9948639 474.454407,32.7133383 475.792035,36.3072863 C477.129663,39.9004095 478.465642,43.4514743 479.80327,46.961305 C480.414357,48.6881814 480.985859,50.1231216 481.515302,51.2644763 C482.044746,52.4066558 482.643462,53.7014007 483.312276,55.1495357 C483.423608,55.3730236 483.673485,55.7630964 484.064383,56.3197542 C484.453631,56.8772368 484.96988,57.4470895 485.60983,58.032611 C486.24978,58.6173079 487.043945,59.1327319 487.992326,59.5788828 C488.938232,60.0250338 490.052372,60.275736 491.333922,60.3309894 L491.333922,61.3329735 L466.934165,61.3329735 Z" id="Fill-15" fill="#EDE1DD"></path>
                <path d="M522.75334,61.3332209 L522.75334,60.4145293 C524.256728,60.3031978 525.454161,60.1209439 526.345639,59.8710663 C527.237116,59.6203641 527.683267,59.0496868 527.683267,58.1582095 L527.683267,37.1008742 C527.683267,33.8706093 527.068881,31.2654506 525.844234,29.2878721 C524.618762,27.3111182 522.557067,26.3215043 519.661621,26.3215043 C517.822588,26.3215043 516.289512,26.7124018 515.065689,27.4917228 C513.838568,28.2718684 512.47455,29.4132232 510.971161,30.9174364 L510.971161,58.3256192 C511.081668,58.8822771 511.276292,59.2863694 511.555858,59.536247 C511.833775,59.7877738 512.167769,59.9692031 512.558667,60.07971 C512.94709,60.1918662 513.394066,60.2611392 513.89547,60.2883536 C514.396875,60.318042 514.925494,60.387315 515.482976,60.4978218 L515.482976,61.3332209 L499.356392,61.3332209 L499.356392,60.4978218 C500.637118,60.387315 501.737239,60.1366128 502.656755,59.7457152 C503.575446,59.3572918 504.035617,58.7156921 504.035617,57.8233902 L504.035617,29.0792285 C504.035617,28.6339022 503.993558,28.2990828 503.909441,28.0764197 C503.826973,27.8537565 503.589466,27.603879 503.199393,27.3243131 C502.698813,27.0463965 502.113292,26.7255966 501.444478,26.3635629 C500.776488,26.0015291 500.107674,25.6823786 499.43886,25.401988 L499.43886,24.9005836 L510.38564,20.9742903 L510.887044,20.9742903 L510.887044,29.9979201 L511.054454,30.0812126 C511.66554,29.1353066 512.427543,28.1184783 513.344585,27.0315523 C514.259154,25.945451 515.299898,24.9574864 516.466817,24.0651845 C517.632088,23.1745319 518.909514,22.4364449 520.296623,21.8509233 C521.683732,21.2662264 523.127744,20.9742903 524.626184,20.9742903 C527.846553,20.9742903 530.316465,22.1725478 532.037568,24.5665889 C533.758672,26.9622793 534.618811,30.0539982 534.618811,33.8417456 L534.618811,58.4089117 C534.618811,58.7998092 534.798591,59.1329793 535.161449,59.4117205 C535.522659,59.6912865 535.955615,59.8999301 536.456194,60.038476 C536.958423,60.1778467 537.501886,60.2883536 538.086583,60.3724707 C538.67128,60.4565879 539.213919,60.5258609 539.715323,60.5811143 L539.715323,61.3332209 L522.75334,61.3332209 Z" id="Fill-17" fill="#EDE1DD"></path>
                <path d="M580.49286,30.1653298 C579.266564,27.8809709 577.706272,26.042763 575.813636,24.6507061 C573.918525,23.2586491 572.16361,22.5609713 570.54889,22.5609713 C568.376687,22.5609713 566.52446,23.0623757 564.992207,24.0651845 C563.459955,25.0679933 562.193249,26.4047968 561.19044,28.0764197 C560.187632,29.7472179 559.447895,31.6687183 558.975354,33.8417456 C558.501989,36.0147729 558.265306,38.2430536 558.265306,40.5265878 C558.265306,42.8117713 558.544048,45.0260325 559.10153,47.1701961 C559.656539,49.3151843 560.492763,51.2094703 561.608552,52.8522294 C562.721868,54.4958133 564.10073,55.8177726 565.744314,56.821406 C567.386248,57.8233902 569.295379,58.3247946 571.468406,58.3247946 C573.751115,58.3247946 575.715499,57.5454736 577.359083,55.9860069 C579.001017,54.4265403 580.045885,52.4489618 580.49286,50.0524467 L580.49286,30.1653298 Z M581.077557,61.5839231 L580.576978,61.5839231 L580.576978,53.2282827 L580.49286,53.2282827 C578.876491,56.014046 576.96901,58.0740924 574.768768,59.4117205 C572.567702,60.748524 569.823997,61.4173381 566.537654,61.4173381 C564.476783,61.4173381 562.485185,61.0132458 560.563685,60.2058857 C558.64136,59.3985257 556.928503,58.1450147 555.425114,56.4453527 C553.920077,54.7465155 552.721819,52.6576054 551.831166,50.1786224 C550.939689,47.6996395 550.494363,44.8446033 550.494363,41.6135138 C550.494363,38.7172436 551.008962,36.0147729 552.040635,33.5077509 C553.070658,31.0015536 554.518793,28.8153314 556.385865,26.9482598 C558.251287,25.0820128 560.492763,23.6198582 563.111941,22.5609713 C565.730294,21.5037337 568.626564,20.9734656 571.802401,20.9734656 C573.473199,20.9734656 575.046685,21.1128362 576.524508,21.3907528 C577.999033,21.6703187 579.349856,22.0043135 580.576978,22.3935616 C580.520075,21.5581625 580.478016,20.4176324 580.450802,18.967848 C580.421938,17.5197129 580.408743,16.0435388 580.408743,14.5393256 L580.408743,10.3615054 L580.408743,7.43637152 L573.557316,4.84688169 L573.557316,4.34465262 L586.842883,0.667412137 L587.512522,0.667412137 L587.512522,54.899081 C587.957024,55.1786469 588.792423,55.567895 590.018719,56.0692994 C591.243366,56.5707038 592.386371,57.0440692 593.444433,57.4893955 L593.444433,58.0740924 L581.077557,61.5839231 Z" id="Fill-19" fill="#EDE1DD"></path>
                <path d="M673.787066,52.0579818 C672.700964,54.1757556 671.195926,55.9859245 669.274426,57.489313 C667.352926,58.9935262 665.054547,60.1084912 662.38094,60.8325588 C659.707333,61.5558016 656.783024,61.9178354 653.607188,61.9178354 C650.877503,61.9178354 648.537066,61.7512504 646.588351,61.4172557 C644.637162,61.0824363 643.021617,60.6791686 641.741717,60.2058033 C640.459342,59.7332626 639.498592,59.3003065 638.858641,58.9102337 C638.217042,58.5209855 637.814599,58.3255368 637.647189,58.3255368 C637.480604,58.3255368 637.116921,58.6595315 636.560263,59.3275209 C636.003605,59.996335 635.501376,60.63711 635.056875,61.249846 L634.304768,61.249846 L634.053241,44.621033 L634.889465,44.621033 C635.390869,46.1252462 636.03082,47.5874008 636.810965,49.0083215 C637.590286,50.4284175 638.441354,51.7660457 639.360046,53.018732 C640.278737,54.2730677 641.252682,55.3731885 642.28518,56.3199192 C643.315203,57.2674745 644.303167,57.9907174 645.250723,58.4929465 C646.197453,58.9935262 647.450964,59.4957553 649.011256,59.996335 C650.570722,60.4977394 652.074111,60.7484416 653.523895,60.7484416 C657.645637,60.7484416 660.987234,59.6202817 663.551159,57.3647866 C666.111785,55.1076421 667.394984,52.0579818 667.394984,48.2141563 C667.394984,46.6555143 667.144282,45.2898471 666.642878,44.1196286 C666.141473,42.9502348 665.457815,41.9342311 664.595201,41.0699683 C663.731763,40.2073548 662.714935,39.4692677 661.544716,38.8557071 C660.375323,38.2429711 659.121812,37.6854886 657.785008,37.1840842 C656.448205,36.6826798 655.278811,36.2653926 654.276002,35.9305732 C653.273193,35.5965785 652.339657,35.2766033 651.476219,34.969823 C650.611956,34.6638674 649.721304,34.357087 648.802612,34.0503067 C647.883096,33.7451758 646.782975,33.3402587 645.501425,32.8388543 C644.052465,32.2830211 642.661233,31.516895 641.324429,30.5413006 C639.986801,29.5681802 638.817408,28.4251761 637.814599,27.115587 C636.810965,25.8068226 636.003605,24.3578628 635.390869,22.7695324 C634.777309,21.1828514 634.471353,19.4980337 634.471353,17.7142545 C634.471353,14.7066528 635.019764,12.1155136 636.11906,9.94331104 C637.217532,7.77110843 638.693706,5.96176427 640.547583,4.51197984 C642.402284,3.06466945 644.540675,1.991763 646.964404,1.29490985 C649.387309,0.59970605 651.93639,0.250867135 654.609997,0.250867135 C657.117019,0.250867135 659.260358,0.459510741 661.044137,0.876797954 C662.826266,1.29490985 664.288421,1.75425565 665.4306,2.25566005 C666.571955,2.75788913 667.436218,3.21641025 668.02174,3.63452215 C668.606437,4.05263404 668.925587,4.26127764 668.98249,4.26127764 C669.149075,4.26127764 669.497089,3.92728294 670.026533,3.25846885 C670.555976,2.59047943 671.042536,1.92166534 671.489512,1.25367593 L672.408203,1.25367593 L672.408203,16.7122704 L671.489512,16.7122704 C670.819873,14.8732378 669.95561,13.0490495 668.898373,11.2388806 C667.839486,9.42953647 666.614014,7.81316702 665.221957,6.39224634 C663.829075,4.97132565 662.24157,3.81595137 660.45944,2.92447414 C658.675661,2.03382159 656.698907,1.58767064 654.526704,1.58767064 C652.799003,1.58767064 651.169439,1.83837284 649.638011,2.33895256 C648.104934,2.84035696 646.768131,3.59246355 645.627601,4.59527235 C644.484597,5.59808115 643.593119,6.83839729 642.952344,8.31374674 C642.312394,9.79074556 641.991594,11.476388 641.991594,13.3698493 C641.991594,16.3230223 642.880597,18.6898489 644.660253,20.4719787 C646.437435,22.2549332 648.743235,23.6766785 651.577655,24.7339161 C652.687672,25.1800671 653.730065,25.5693152 654.702361,25.9033099 C655.675481,26.2373046 656.633757,26.5589292 657.578839,26.8640601 C658.523095,27.1708404 659.480547,27.4916403 660.453667,27.825635 C661.426787,28.1596297 662.441142,28.5224882 663.49673,28.9117363 C667.275406,30.3046179 670.206312,32.3242551 672.291099,34.969823 C674.374237,37.6162156 675.41663,40.9165781 675.41663,44.8717352 C675.41663,47.5453422 674.873167,49.9418573 673.787066,52.0579818" id="Fill-21" fill="#EDE1DD"></path>
                <path d="M713.436031,61.3332209 L713.436031,60.4145293 C714.940244,60.3031978 716.193755,60.1209439 717.196564,59.8710663 C718.198548,59.6203641 718.700777,59.0496868 718.700777,58.1582095 L718.700777,37.2674592 C718.700777,35.6527391 718.588621,34.1485259 718.366782,32.7556443 C718.143294,31.3635873 717.740027,30.1653298 717.15533,29.162521 C716.569808,28.1588875 715.775643,27.3795665 714.772834,26.822084 C713.770025,26.2670755 712.488475,25.9875096 710.929009,25.9875096 C708.923391,25.9875096 707.224554,26.350368 705.831672,27.0736109 C704.438791,27.7985031 703.32465,28.7732728 702.490076,29.9979201 C702.377095,30.1653298 702.224529,30.513344 702.029905,31.0427875 C701.834457,31.5722309 701.737145,32.0596158 701.737145,32.5049421 L701.737145,58.1582095 C701.737145,58.6596139 701.87569,59.0496868 702.155256,59.3276034 C702.433173,59.6071693 702.795207,59.8158129 703.242182,59.9543589 C703.687509,60.0945542 704.188088,60.1918662 704.745571,60.2471196 C705.302229,60.3031978 705.858887,60.387315 706.417194,60.4978218 L706.417194,61.3332209 L689.788381,61.3332209 L689.788381,60.4978218 C691.069106,60.387315 692.22448,60.1778467 693.256153,59.8710663 C694.286176,59.5651107 694.8016,58.8822771 694.8016,57.8233902 L694.8016,10.3615054 C694.8016,9.91535445 694.760366,9.58218442 694.677074,9.3586966 C694.592957,9.13685814 694.355449,8.88533127 693.967026,8.60576533 C693.52005,8.21816653 692.922158,7.84211323 692.170052,7.47843011 C691.417945,7.11639634 690.678209,6.71312866 689.954966,6.2669777 L689.954966,5.76557331 L701.152448,0.667412137 L701.821262,0.667412137 L701.57056,29.6639254 L701.737145,29.7472179 C702.125568,28.9678969 702.722635,28.0764197 703.527521,27.0736109 C704.331582,26.0708021 705.344287,25.1240714 706.567285,24.2325942 C707.787809,23.3419416 709.188938,22.5758155 710.771495,21.9350405 C712.354053,21.2942654 714.089176,20.9742903 715.976865,20.9742903 C717.80765,20.9742903 719.348149,21.2942654 720.597537,21.9350405 C721.845275,22.5758155 722.84561,23.4672927 723.595243,24.6086475 C724.344875,25.7516516 724.871845,27.1016499 725.1778,28.6611166 C725.482931,30.2214079 725.635497,31.9202452 725.635497,33.7584531 L725.635497,58.4089117 C725.635497,58.7998092 725.802906,59.1329793 726.136901,59.4117205 C726.47172,59.6912865 726.889008,59.8999301 727.391237,60.038476 C727.891816,60.1778467 728.42126,60.2883536 728.978742,60.3724707 C729.534576,60.4565879 730.064844,60.5258609 730.565423,60.5811143 L730.565423,61.3332209 L713.436031,61.3332209 Z" id="Fill-23" fill="#EDE1DD"></path>
                <path d="M763.154318,38.6045926 C762.150684,39.3294848 760.897998,40.0964356 759.39296,40.9029709 C757.889572,41.7111557 756.427417,42.5877887 755.006496,43.535344 C753.585576,44.4828994 752.360104,45.5277668 751.33008,46.6682968 C750.298408,47.8104763 749.784633,49.1052212 749.784633,50.5541809 C749.784633,52.0031407 750.286038,53.3119051 751.288022,54.4812989 C752.290831,55.6515174 753.59877,56.2362143 755.215965,56.2362143 C756.663275,56.2362143 757.944825,56.0696293 759.05979,55.7348099 C760.173106,55.3999905 761.203129,54.7608649 762.150684,53.8124848 C762.820323,53.2005736 763.154318,52.4212526 763.154318,51.4728725 L763.154318,38.6045926 Z M777.944923,56.2362143 C777.497947,57.2390231 776.91325,58.1445199 776.190007,58.9518799 C775.465115,59.7600646 774.614872,60.3728006 773.640927,60.7900878 C772.665332,61.207375 771.593251,61.4168433 770.423857,61.4168433 C768.529571,61.4168433 766.843928,60.8601855 765.368579,59.7460451 C763.89158,58.6319048 763.154318,56.68319 763.154318,53.896602 L762.986908,53.8124848 C762.540757,54.5373771 761.942041,55.3455618 761.189934,56.2362143 C760.438652,57.1285162 759.54635,57.9639153 758.516327,58.7432363 C757.484655,59.523382 756.344124,60.1501375 755.090613,60.6226781 C753.836278,61.0968681 752.45824,61.3335508 750.954027,61.3335508 C750.06255,61.3335508 749.157053,61.207375 748.238362,60.9566728 C747.318845,60.7067953 746.483446,60.261469 745.73134,59.6198693 C744.980058,58.9807437 744.366497,58.1585394 743.893956,57.1557306 C743.418942,56.1520971 743.183084,54.9274499 743.183084,53.4784901 C743.183084,51.9198482 743.809839,50.415635 745.06335,48.9658506 C746.316861,47.5185402 747.862308,46.208951 749.701341,45.0387326 C751.538724,43.8693387 753.169113,42.8665299 754.588384,42.0303062 C756.009305,41.1957317 757.248797,40.4848591 758.306859,39.9001621 C759.364921,39.3146406 760.298457,38.8140608 761.107466,38.395949 C761.913177,37.9778371 762.596011,37.6017838 763.154318,37.2677891 L763.154318,28.6606218 C763.154318,28.5501149 763.056181,28.2845685 762.861557,27.8672813 C762.665284,27.449994 762.331289,27.0186873 761.859573,26.5717117 C761.384558,26.1272101 760.730588,25.7239424 759.895189,25.3602593 C759.05979,24.9990502 757.973689,24.8167963 756.636061,24.8167963 C755.744583,24.8167963 754.867126,24.9718358 754.003687,25.2769668 C753.139425,25.5837471 752.374948,25.9746446 751.706134,26.4471853 C751.038144,26.9205506 750.507876,27.3947406 750.117803,27.8672813 C749.728555,28.3414713 749.533106,28.744739 749.533106,29.0787337 L749.533106,32.8392667 C749.533106,33.6194123 749.128189,34.3162655 748.322479,34.9281768 C747.513469,35.5417374 746.636836,35.8468684 745.690106,35.8468684 C744.797804,35.8468684 744.031678,35.5277179 743.391727,34.8861182 C742.750952,34.2469925 742.430977,33.5072561 742.430977,32.6726816 C742.430977,32.0030429 742.597562,31.3911316 742.932381,30.8336491 C743.266376,30.2769912 743.684488,29.7764115 744.185892,29.3294359 C744.686472,28.8849343 745.23076,28.4940368 745.815457,28.1592174 C746.400154,27.8260473 746.914753,27.5200917 747.360904,27.2405258 C748.808214,26.4051267 750.286038,25.5985913 751.789426,24.8167963 C753.293639,24.0374753 754.727755,23.3686612 756.092598,22.8120034 C757.458265,22.2553455 758.710126,21.8091946 759.853131,21.4751999 C760.994485,21.1403805 761.928846,20.9737955 762.652913,20.9737955 C764.100224,20.9737955 765.465066,21.3498488 766.746616,22.1011307 C768.027342,22.8532373 768.946858,23.7867731 769.504341,24.9009135 C769.727004,25.2909863 769.866374,25.9746446 769.922452,26.947765 C769.976881,27.9233594 770.005745,28.8849343 770.005745,29.8308403 C770.005745,31.8364579 769.991725,33.6466267 769.964511,35.2621715 C769.935647,36.8785409 769.922452,38.4380075 769.922452,39.9413961 C769.922452,41.4456093 769.907608,42.9910564 769.880394,44.5793867 C769.85153,46.1668924 769.838335,47.908613 769.838335,49.8020743 C769.838335,52.3082716 770.269642,53.9666997 771.13473,54.773235 C771.997343,55.5822444 772.985308,55.9855121 774.100273,55.9855121 C775.380998,55.9855121 776.328553,55.7216151 776.942114,55.1913469 C777.554025,54.6627282 777.972137,53.9798945 778.1948,53.1444954 L778.696205,53.1444954 C778.640127,54.2033824 778.389424,55.2334055 777.944923,56.2362143 L777.944923,56.2362143 Z" id="Fill-25" fill="#EDE1DD"></path>
                <path d="M815.212135,28.4523905 C814.487242,29.2605752 813.651843,29.6638429 812.705113,29.6638429 C811.813635,29.6638429 811.103587,29.5112774 810.574144,29.2044971 C810.043876,28.8985415 809.58453,28.5497025 809.196106,28.1596297 C808.804384,27.7712062 808.387922,27.4223673 807.942595,27.115587 C807.496445,26.810456 806.882884,26.6554165 806.103563,26.6554165 C805.436398,26.6554165 804.779954,26.8929239 804.140004,27.3662892 C803.499229,27.8396545 802.899688,28.438371 802.343855,29.1624385 C801.786372,29.886506 801.284968,30.7078856 800.839641,31.6282266 C800.392666,32.5469182 800.004242,33.4235512 799.669423,34.259775 L799.669423,58.3255368 C799.836008,58.8261165 800.198866,59.217014 800.756349,59.4957553 C801.313007,59.7736718 801.938938,59.9691206 802.636615,60.0804522 C803.332644,60.1917837 804.056711,60.2610567 804.808818,60.2882711 C805.560925,60.3179595 806.215719,60.3872325 806.773202,60.4977394 L806.773202,61.3331385 L788.054654,61.3331385 L788.054654,60.4977394 C789.336204,60.3872325 790.436325,60.1365303 791.355016,59.7456328 C792.275357,59.3572093 792.733879,58.7156096 792.733879,57.8233077 L792.733879,29.5805504 C792.733879,29.1352241 792.69182,28.8012294 792.609352,28.5777416 C792.525235,28.3559031 792.287728,28.1052009 791.898479,27.825635 C791.397075,27.5468937 790.812378,27.1980548 790.144389,26.7815923 C789.475575,26.3634804 788.806761,26.0154662 788.138771,25.7359002 L788.138771,25.2353205 L799.084726,20.9742078 L799.58613,20.9742078 L799.419545,32.5889768 L799.58613,32.5889768 C799.864872,31.9201627 800.309373,30.945393 800.922934,29.6638429 C801.53567,28.3831175 802.314991,27.0883726 803.263371,25.7787835 C804.209277,24.4700191 805.352281,23.3418592 806.689084,22.3934791 C808.025888,21.4475731 809.55814,20.9742078 811.284192,20.9742078 C812.677074,20.9742078 813.860487,21.3906703 814.836081,22.2268941 C815.810851,23.0622932 816.298236,24.1211801 816.298236,25.4019055 C816.298236,26.6282021 815.935377,27.6450305 815.212135,28.4523905" id="Fill-27" fill="#EDE1DD"></path>
                <g id="Group-31" transform="translate(825.406643, 20.974125)">
                    <mask id="mask-2" fill="white">
                        <use xlink:href="#path-1"></use>
                    </mask>
                    <g id="Clip-30"></g>
                    <path d="M23.5214741,3.63435721 C22.1005534,2.15900775 20.1922479,1.41927133 17.7982068,1.41927133 C16.2379155,1.41927133 14.8310143,1.87944182 13.5775033,2.79895811 C12.324817,3.7184744 11.237891,4.79055617 10.3183747,6.0160281 C9.39968311,7.24150004 8.68963511,8.4809915 8.18823071,9.73367782 C7.68682631,10.9880135 7.38004599,11.9487637 7.2695391,12.6175778 L10.694428,12.6175778 C11.6980615,12.6175778 12.6860261,12.6043829 13.6616205,12.5755192 C14.6355656,12.5483048 15.6523939,12.5202657 16.7112808,12.491402 C17.7685184,12.4641876 18.9387369,12.4493434 20.2202869,12.4493434 C21.0565107,12.4493434 21.8358317,12.422129 22.5607239,12.3660509 C23.2839667,12.3116221 23.9247418,12.1722515 24.4822243,11.9487637 C24.8722971,11.5034374 25.1634086,11.0853255 25.359682,10.6952527 C25.5543061,10.3060045 25.6524428,9.72130764 25.6524428,8.94116199 C25.6524428,6.88029095 24.9423948,5.11053134 23.5214741,3.63435721 M33.0893916,31.793822 C32.3084212,33.3277236 31.2511837,34.7329754 29.9143802,36.0145255 C28.576752,37.2960755 26.9752268,38.3541378 25.1098045,39.1895369 C23.2419082,40.024936 21.1678423,40.4430479 18.8834834,40.4430479 C16.0432914,40.4430479 13.4521522,39.9136044 11.1125399,38.8555422 C8.77292761,37.7983046 6.78050487,36.3064616 5.13774573,34.3849612 C3.4941619,32.4626361 2.22663137,30.207141 1.3368035,27.6160018 C0.445326275,25.0256873 9.37550666e-14,22.2828073 9.37550666e-14,19.3857125 C9.37550666e-14,17.0461002 0.416462535,14.7196827 1.25268632,12.4081095 C2.0889101,10.0973609 3.27067409,8.02082102 4.80375102,6.18343779 C6.3351786,4.34440521 8.20142556,2.85503623 10.4033166,1.7128568 C12.6027336,0.570677374 15.0404826,0 17.7140896,0 C19.8871169,0 21.9339684,0.279565939 23.8554688,0.834574426 C25.7769692,1.39205695 27.4494168,2.24312494 28.8695128,3.38365501 C30.2904335,4.52583444 31.4449831,5.96077466 32.337285,7.68682631 C33.2279375,9.41452732 33.757381,11.4473593 33.9247907,13.7877963 L7.10212941,13.7877963 C7.10212941,14.2339472 7.07326567,14.7485465 7.01801222,15.3332434 C6.96275878,15.9179403 6.93471971,16.5166567 6.93471971,17.1293927 C6.93471971,19.469005 7.2695391,21.7121299 7.93752851,23.8562935 C8.6063426,26.0012817 9.58028766,27.8963924 10.8618377,29.5383269 C12.1425631,31.1819107 13.7581079,32.4774803 15.708472,33.424211 C17.6580115,34.3709416 19.9135066,34.844307 22.4766067,34.844307 C25.2615453,34.844307 27.6992943,34.1334343 29.7890291,32.714163 C31.8779392,31.2924176 33.2568013,29.5523464 33.9247907,27.4914754 L34.5936048,27.6580604 C34.370117,28.884357 33.8687126,30.2623944 33.0893916,31.793822" id="Fill-29" fill="#EDE1DD" mask="url(#mask-2)"></path>
                </g>
            </g>
        </g>
    </g>
</svg>