<?xml version="1.0" encoding="UTF-8"?>
<svg width="921px" height="161px" viewBox="0 0 921 161" version="1.1" xmlns="http://www.w3.org/2000/svg" xmlns:xlink="http://www.w3.org/1999/xlink">
    <title>illust_text_section1</title>
    <g id="components" stroke="none" stroke-width="1" fill="none" fill-rule="evenodd">
        <g id="illust" transform="translate(-71.000000, -1897.000000)" fill="#EDE1DD">
            <g id="Group" transform="translate(71.000000, 1897.000000)">
                <path d="M62.672,119.7557 C61.496,118.6997 60.169,117.8447 58.69,117.1937 C57.211,116.5427 55.63,116.1327 53.953,115.9657 C52.277,115.7987 50.536,115.8587 48.776,116.1737 C47.348,116.4297 45.974,116.8177 44.683,117.3077 C43.391,117.7967 41.916,118.4607 40.263,119.3027 C36.945,120.9927 35.289,121.8467 31.984,123.5717 C32.833,125.1987 33.681,126.8257 34.53,128.4517 C35.379,130.0797 36.188,131.6297 36.957,133.1037 C37.7,134.5277 38.397,135.8307 39.048,137.0087 C39.699,138.1887 40.244,139.2307 40.701,140.0757 C41.722,141.9677 42.691,143.5177 43.478,144.6907 C44.265,145.8647 45.216,146.7177 46.287,147.1557 C47.052,147.4677 48.063,147.5417 49.253,147.4117 C50.442,147.2827 51.973,146.7367 53.851,145.7807 C55.451,144.9657 57.14,143.9827 58.921,142.8337 C60.7,141.6867 62.26,140.2297 63.61,138.4857 C65.378,136.2047 66.469,133.8137 66.847,131.3047 C67.223,128.7967 66.785,126.2237 65.516,123.5887 C64.795,122.0907 63.847,120.8107 62.672,119.7557 M43.216,91.8687 C40.735,90.5947 38.149,90.0737 35.48,90.3177 C32.321,90.6067 28.667,91.8017 24.555,93.9097 C23.321,94.5417 22.232,95.1687 21.287,95.7857 C20.342,96.4047 19.647,96.9267 19.199,97.3547 C19.299,97.6907 19.386,98.0017 19.461,98.2847 C19.535,98.5697 19.657,98.9107 19.826,99.3067 C19.995,99.7027 20.212,100.1907 20.474,100.7637 C20.736,101.3387 21.068,102.1187 21.496,103.0437 C22.326,104.8397 23.343,106.8347 24.428,108.9837 C25.512,111.1337 26.56,113.1757 27.568,115.1067 C28.549,116.9887 29.398,118.6147 30.114,119.9877 C30.83,121.3597 31.255,122.1737 31.387,122.4277 C33.264,121.4487 34.858,120.6247 36.17,119.9497 C37.48,119.2747 38.523,118.7107 39.297,118.2517 C44.304,115.3767 47.562,112.1287 49.078,108.4427 C50.594,104.7567 50.52,101.1617 48.814,97.6547 C47.56,95.0767 45.698,93.1437 43.216,91.8687 M76.498,123.5127 C76.582,125.3107 76.387,127.0177 75.914,128.6357 C75.442,130.2537 74.781,131.7567 73.934,133.1447 C73.087,134.5347 72.151,135.7307 71.126,136.7347 C69.359,138.4797 67.213,140.0657 64.685,141.5047 C62.155,142.9447 59.678,144.2777 57.25,145.5037 C47.703,150.3007 38.227,155.2957 28.875,160.4597 C28.709,160.1587 28.626,160.0077 28.46,159.7067 C29.712,158.7577 30.829,157.7217 31.813,156.5997 C32.797,155.4777 33.455,154.3077 33.789,153.0857 C33.9,152.6347 33.882,152.0757 33.735,151.4057 C33.588,150.7367 33.38,149.9847 33.11,149.1537 C32.841,148.3227 32.511,147.4727 32.119,146.6097 C31.728,145.7477 31.315,144.9117 30.881,144.1027 C30.502,143.3947 30,142.4267 29.378,141.1997 C28.756,139.9727 28.072,138.6297 27.328,137.1747 C26.585,135.7197 25.806,134.2337 24.993,132.7177 C24.154,131.1517 23.368,129.6847 22.637,128.3207 C21.824,126.8047 21.107,125.4657 20.483,124.3027 C19.86,123.1407 19.264,122.0287 18.695,120.9667 C18.1,119.8557 17.476,118.7257 16.824,117.5787 C16.172,116.4327 15.44,115.0997 14.627,113.5837 C14.139,112.6747 13.616,111.7677 13.057,110.8637 C12.499,109.9607 11.916,109.1177 11.31,108.3357 C10.705,107.5557 10.116,106.8787 9.547,106.3057 C8.976,105.7337 8.436,105.3887 7.924,105.2737 C6.617,104.9367 5.45,104.8657 4.427,105.0627 C3.405,105.2597 2.066,105.7097 0.414,106.4197 C0.248,106.1177 0.165,105.9667 -2.13162821e-14,105.6647 C9.821,100.3557 19.673,95.1727 29.61,90.0847 C31.851,88.9537 34.05,87.9997 36.204,87.2207 C38.359,86.4427 40.536,85.9037 42.729,85.5977 C46.222,85.1117 49.431,85.4147 52.341,86.5057 C55.252,87.5967 57.433,89.7077 58.901,92.8187 C60.517,96.2407 60.577,99.5867 59.115,102.8577 C57.651,106.1307 55.147,109.0707 51.596,111.7097 C51.657,111.8327 51.687,111.8947 51.748,112.0177 C53.916,111.2087 56.175,110.6667 58.524,110.3927 C60.871,110.1197 63.12,110.2057 65.264,110.6477 C67.407,111.0897 69.335,111.9097 71.046,113.1017 C72.757,114.2947 74.095,115.9337 75.065,118.0107 C75.939,119.8817 76.414,121.7167 76.498,123.5127" id="Fill-1"></path>
                <path d="M106.8126,81.2994 C104.7296,80.5144 102.4086,80.6504 99.8696,81.7164 C98.2146,82.4104 96.9086,83.4764 95.9546,84.9114 C94.9996,86.3454 94.2886,87.8524 93.8196,89.4264 C93.3516,91.0024 93.1126,92.4954 93.1006,93.9064 C93.0876,95.3174 93.1626,96.3634 93.3206,97.0454 C94.6566,96.4644 95.8496,95.9504 96.8966,95.4994 C97.9446,95.0494 98.9726,94.5944 99.9806,94.1344 C100.9876,93.6744 102.0416,93.1974 103.1396,92.7044 C104.2346,92.2114 105.4566,91.6844 106.8006,91.1244 C107.6766,90.7604 108.4846,90.3944 109.2226,90.0284 C109.9596,89.6624 110.7816,89.2274 111.0776,88.7994 C111.3586,88.3944 111.4586,87.6834 111.5126,87.2274 C111.5656,86.7744 111.4406,86.1744 111.1376,85.4294 C110.3356,83.4664 108.8966,82.0854 106.8126,81.2994 M127.6896,104.1204 C127.4666,105.9074 126.9166,107.6854 126.0376,109.4604 C125.1586,111.2364 123.9296,112.9084 122.3526,114.4834 C120.7736,116.0584 118.8286,117.3264 116.5076,118.2964 C113.6216,119.5024 110.7836,120.1154 107.9796,120.1334 C105.1776,120.1514 102.5436,119.6224 100.0796,118.5424 C97.6146,117.4614 95.3836,115.9084 93.3926,113.8744 C91.3996,111.8414 89.7916,109.4664 88.5796,106.7424 C87.6006,104.5414 87.0586,102.1624 86.9646,99.6004 C86.8706,97.0404 87.2436,94.5394 88.0926,92.1004 C88.9406,89.6634 90.2956,87.4004 92.1576,85.3194 C94.0196,83.2404 96.3756,81.5964 99.2156,80.4054 C101.5226,79.4364 103.8116,78.7984 106.0726,78.4884 C108.3336,78.1794 110.4426,78.2674 112.3916,78.7474 C114.3416,79.2274 116.1186,80.1074 117.7196,81.3814 C119.3216,82.6554 120.6526,84.3794 121.7166,86.5484 C112.2916,90.2694 102.9126,94.1684 93.6256,98.2254 C93.8096,98.6474 93.9916,99.1464 94.1736,99.7224 C94.3556,100.2994 94.5726,100.8784 94.8246,101.4564 C95.7846,103.6644 97.0526,105.6314 98.6196,107.3564 C100.1866,109.0844 101.9616,110.4404 103.9426,111.4294 C105.9226,112.4194 108.0996,112.9404 110.4726,112.9954 C112.8456,113.0504 115.3386,112.5354 117.9626,111.4514 C120.8136,110.2744 123.0366,108.5824 124.6396,106.3604 C126.2446,104.1384 127.0076,101.9084 126.9176,99.6604 C127.2206,99.6144 127.3716,99.5914 127.6746,99.5454 C127.9076,100.8104 127.9106,102.3364 127.6896,104.1204" id="Fill-3"></path>
                <path d="M179.4449,39.8072 C179.2989,40.6342 179.1139,41.9252 178.8949,43.6772 C178.6739,45.4312 178.3939,47.5662 178.0579,50.0792 C177.7219,52.5932 177.3779,55.4292 177.0349,58.5822 C176.6909,61.7362 176.3279,65.1552 175.9539,68.8382 C184.8449,65.9232 189.3049,64.5232 198.2499,61.8362 C196.4889,59.6712 194.7059,57.5132 192.9009,55.3662 C191.0939,53.2182 189.3389,51.1622 187.6359,49.1962 C185.9339,47.2312 184.3739,45.4322 182.9619,43.8002 C181.5489,42.1682 180.3749,40.8382 179.4449,39.8072 M206.4719,86.0402 L206.2259,85.2162 C206.4009,85.1642 206.8069,84.9832 207.4449,84.6722 C208.0829,84.3632 208.7259,83.9642 209.3759,83.4732 C210.0239,82.9832 210.5529,82.4092 210.9649,81.7502 C211.3759,81.0922 211.4699,80.3792 211.2449,79.6072 C211.1009,79.1122 210.7019,78.3462 210.0489,77.3132 C209.3979,76.2802 208.5369,75.0362 207.4699,73.5882 C206.4029,72.1392 205.1899,70.5372 203.8319,68.7872 C202.4729,67.0372 201.0249,65.2242 199.4869,63.3502 C189.9479,66.2072 185.1929,67.7012 175.7149,70.8172 C175.5049,73.1822 175.2989,75.4382 175.0969,77.5892 C174.8949,79.7412 174.6919,81.9162 174.5219,84.0832 C174.2609,87.4132 174.3659,89.7022 174.7689,90.8972 C175.0079,91.6032 175.4379,92.1092 176.0559,92.4142 C176.6749,92.7202 177.3979,92.9022 178.2209,92.9582 C179.0439,93.0152 179.8999,92.9732 180.7839,92.8302 C181.6679,92.6882 182.5059,92.5482 183.2959,92.4102 C183.4029,92.7362 183.4559,92.9002 183.5639,93.2272 C176.1659,95.6552 172.4769,96.9102 165.1199,99.5012 C164.9949,99.1442 164.9319,98.9662 164.8059,98.6092 C166.2479,97.9192 167.3979,97.0932 168.2599,96.1252 C169.1209,95.1592 169.6039,94.5382 169.7029,94.2612 C169.9769,93.7432 170.3349,92.6192 170.7819,90.8892 C171.2279,89.1612 171.6579,86.6792 172.0629,83.4582 C172.4359,80.4962 172.8369,77.1172 173.2919,73.3402 C173.7459,69.5642 174.2309,65.6762 174.7509,61.6752 C175.2709,57.6752 175.7869,53.6502 176.2989,49.6022 C176.8109,45.5542 177.3259,41.7672 177.8379,38.2382 C177.2409,37.6332 176.9429,37.3302 176.3449,36.7252 C177.3169,35.9382 178.1549,35.1042 178.8629,34.2212 C179.5699,33.3402 180.1619,32.4652 180.6409,31.5962 C181.1179,30.7282 181.4979,29.9222 181.7779,29.1752 C182.0589,28.4302 182.2649,27.8272 182.3959,27.3662 C182.6949,27.2752 182.8439,27.2292 183.1429,27.1382 C186.4609,31.1022 189.5899,34.8752 192.5319,38.4522 C195.4749,42.0312 198.2759,45.4942 200.9369,48.8372 C203.5979,52.1802 206.1579,55.4222 208.6219,58.5622 C211.0859,61.7022 213.5219,64.8082 215.9289,67.8822 C217.0659,69.4092 218.0739,70.6602 218.9519,71.6332 C219.8309,72.6072 220.8249,73.7142 221.9309,74.9542 C222.1109,75.1432 222.4839,75.4562 223.0489,75.8942 C223.6119,76.3312 224.3139,76.7482 225.1499,77.1432 C225.9839,77.5372 226.9619,77.8202 228.0789,77.9912 C229.1969,78.1632 230.4369,78.0962 231.8029,77.7882 C231.9089,78.1872 231.9629,78.3872 232.0699,78.7862 C221.7989,81.5352 216.6779,82.9862 206.4719,86.0402" id="Fill-5"></path>
                <path d="M296.5748,23.7601 C295.8088,23.9581 295.0838,24.2821 294.3978,24.7291 C293.7108,25.1781 293.0718,25.7931 292.4838,26.5741 C291.8938,27.3561 291.4328,28.3911 291.1038,29.6791 C290.6628,31.3981 290.1388,33.4091 289.5348,35.7161 C288.9318,38.0221 288.3228,40.4341 287.7128,42.9491 C287.1018,45.4661 286.4968,47.9681 285.8978,50.4551 C285.2988,52.9431 284.7808,55.2571 284.3428,57.3931 C284.0218,58.5711 283.7608,59.5741 283.5578,60.4061 C283.3548,61.2381 283.1658,61.9801 282.9898,62.6301 C282.8138,63.2811 282.6508,63.9161 282.4998,64.5321 C282.3488,65.1491 282.1648,65.8311 281.9498,66.5791 C281.7828,66.9651 281.5508,67.1891 281.2558,67.2501 C280.9588,67.3121 280.7558,67.2961 280.6428,67.2031 C280.5308,67.1101 280.4258,66.9851 280.3328,66.8291 C279.1028,64.8021 277.9178,62.8691 276.7788,61.0301 C275.6398,59.1911 274.4508,57.2901 273.2128,55.3271 C271.9748,53.3661 270.6278,51.2211 269.1718,48.8981 C267.7148,46.5751 266.0198,43.9241 264.0808,40.9471 C262.4508,50.0471 261.6778,54.5981 260.2108,63.6961 C259.7268,65.3971 259.4038,66.8281 259.2388,67.9851 C259.0718,69.1431 258.8368,70.4061 258.5368,71.7711 C258.3798,72.1621 258.1248,72.3991 257.7708,72.4831 C257.4758,72.5531 257.1638,72.4211 256.8368,72.0861 C253.2768,67.3331 249.7678,62.7241 246.3208,58.2571 C242.8718,53.7901 239.1628,49.0721 235.1788,44.1071 C234.6168,43.4231 233.9888,42.6791 233.2968,41.8801 C232.6048,41.0801 231.9208,40.3831 231.2458,39.7861 C230.8068,39.6041 230.1808,39.3941 229.3698,39.1601 C228.5578,38.9261 227.1328,39.0441 225.0978,39.5211 C225.0018,39.1551 224.9528,38.9721 224.8568,38.6061 C233.1308,36.4241 237.2768,35.3801 245.5868,33.3861 C245.6748,33.7541 245.7188,33.9381 245.8068,34.3061 C245.3898,34.4661 244.8958,34.6441 244.3258,34.8401 C243.7558,35.0361 243.1958,35.2771 242.6458,35.5571 C242.0958,35.8391 241.5808,36.1271 241.1008,36.4221 C240.6198,36.7181 240.2608,37.0431 240.0238,37.3961 C240.2558,37.8121 241.0318,38.9051 242.3408,40.6791 C243.6508,42.4541 245.2468,44.5591 247.1198,46.9961 C248.9928,49.4321 250.9888,52.0221 253.0988,54.7621 C255.2098,57.5011 257.1278,60.0281 258.8588,62.3321 C259.0748,61.1041 259.3298,59.6331 259.6288,57.9151 C259.9268,56.2001 260.2488,54.3011 260.5978,52.2211 C260.9468,50.1431 261.2978,47.9751 261.6508,45.7201 C262.0028,43.4671 262.3518,41.2431 262.6978,39.0511 C262.0198,38.0271 261.3208,37.0521 260.5978,36.1271 C259.8758,35.2031 259.0918,34.3061 258.2498,33.4381 C258.0268,33.3121 257.8158,33.1681 257.6178,33.0081 C257.4208,32.8471 257.1278,32.7071 256.7458,32.5881 C256.3638,32.4701 255.8458,32.4111 255.1998,32.4121 C254.5528,32.4141 253.6668,32.5141 252.5458,32.7161 C252.4598,32.3471 252.4168,32.1631 252.3308,31.7941 C260.7628,29.8361 264.9878,28.9061 273.4518,27.1431 C273.5298,27.5131 273.5678,27.6981 273.6448,28.0691 C273.1618,28.2291 272.5588,28.4271 271.8358,28.6671 C271.1118,28.9071 270.4118,29.1881 269.7388,29.5071 C269.0648,29.8261 268.4978,30.1981 268.0408,30.6181 C267.5828,31.0391 267.4218,31.5581 267.5538,32.1741 C267.6158,32.4551 267.9278,33.0771 268.4878,34.0411 C269.0488,35.0051 269.7678,36.1851 270.6428,37.5811 C271.5168,38.9781 272.5008,40.5271 273.5938,42.2301 C274.6848,43.9331 275.7888,45.6351 276.9028,47.3351 C278.0168,49.0351 279.1028,50.6981 280.1598,52.3241 C281.2178,53.9491 282.1538,55.3821 282.9688,56.6201 C283.1788,55.8171 283.4678,54.6301 283.8378,53.0631 C284.2088,51.4971 284.5938,49.7501 284.9948,47.8291 C285.3958,45.9071 285.8208,43.9221 286.2688,41.8741 C286.7188,39.8281 287.1038,37.9121 287.4218,36.1251 C287.7408,34.3411 287.9918,32.7581 288.1718,31.3801 C288.3518,30.0031 288.3948,29.0591 288.2978,28.5521 C288.1458,27.7641 287.8268,27.1971 287.3448,26.8531 C286.8598,26.5081 286.3038,26.2951 285.6788,26.2121 C285.0528,26.1301 284.3918,26.1281 283.7008,26.2061 C283.0088,26.2841 282.3788,26.3511 281.8098,26.4051 C281.7368,26.0341 281.6998,25.8481 281.6258,25.4771 C288.4288,24.1221 291.8348,23.4761 298.6568,22.2461 C298.7238,22.6181 298.7568,22.8041 298.8248,23.1771 C298.0898,23.3681 297.3388,23.5621 296.5748,23.7601" id="Fill-7"></path>
                <path d="M334.09,34.0089 C333.094,34.9059 331.831,35.8869 330.305,36.9539 C328.779,38.0219 327.315,39.1579 325.912,40.3609 C324.509,41.5639 323.339,42.8359 322.402,44.1739 C321.465,45.5129 321.119,46.9199 321.356,48.3909 C321.592,49.8639 322.348,51.1059 323.618,52.1239 C324.889,53.1419 326.389,53.5149 328.13,53.2469 C329.689,53.0069 331.043,52.6289 332.194,52.1089 C333.344,51.5889 334.359,50.7739 335.243,49.6599 C335.875,48.9309 336.122,48.0849 335.983,47.1189 C335.226,41.8749 334.847,39.2529 334.09,34.0089 M352.643,49.8119 C352.291,50.8969 351.777,51.9019 351.105,52.8259 C350.431,53.7509 349.598,54.4949 348.609,55.0589 C347.617,55.6229 346.496,55.9889 345.24,56.1589 C343.208,56.4349 341.323,56.1179 339.578,55.2069 C337.832,54.2959 336.749,52.4259 336.339,49.5879 C336.262,49.5639 336.223,49.5519 336.146,49.5289 C335.77,50.3369 335.244,51.2539 334.567,52.2799 C333.889,53.3069 333.056,54.2989 332.068,55.2589 C331.079,56.2189 329.952,57.0429 328.683,57.7299 C327.414,58.4189 325.977,58.8899 324.367,59.1459 C323.413,59.2979 322.424,59.3259 321.4,59.2319 C320.375,59.1359 319.406,58.8309 318.492,58.3139 C317.579,57.7969 316.782,57.0709 316.104,56.1389 C315.424,55.2069 314.959,54.0069 314.711,52.5359 C314.444,50.9529 314.862,49.3119 315.976,47.6139 C317.09,45.9179 318.552,44.3119 320.364,42.8009 C322.176,41.2899 323.796,39.9909 325.218,38.9009 C326.641,37.8109 327.889,36.8819 328.962,36.1119 C330.032,35.3419 330.982,34.6799 331.808,34.1239 C332.633,33.5679 333.329,33.0759 333.893,32.6469 C333.387,29.1399 333.134,27.3859 332.628,23.8789 C332.611,23.7659 332.464,23.5099 332.186,23.1169 C331.907,22.7229 331.47,22.3359 330.878,21.9599 C330.285,21.5829 329.494,21.2779 328.507,21.0479 C327.522,20.8169 326.281,20.8139 324.791,21.0409 C323.796,21.1919 322.842,21.4989 321.929,21.9589 C321.014,22.4209 320.225,22.9519 319.557,23.5499 C318.89,24.1499 318.378,24.7259 318.023,25.2749 C317.666,25.8259 317.517,26.2709 317.571,26.6109 C317.818,28.1389 317.941,28.9039 318.187,30.4319 C318.314,31.2249 317.981,32.0039 317.194,32.7699 C316.404,33.5389 315.49,34.0069 314.449,34.1789 C313.468,34.3419 312.571,34.1569 311.757,33.6259 C310.943,33.0949 310.462,32.4049 310.318,31.5579 C310.203,30.8789 310.281,30.2259 310.556,29.5979 C310.83,28.9709 311.207,28.3839 311.686,27.8379 C312.166,27.2929 312.702,26.7959 313.295,26.3499 C313.888,25.9029 314.407,25.4989 314.857,25.1339 C316.327,24.0219 317.838,22.9369 319.388,21.8789 C320.939,20.8209 322.434,19.8929 323.873,19.0919 C325.311,18.2929 326.646,17.6279 327.874,17.0979 C329.101,16.5689 330.123,16.2459 330.935,16.1279 C332.558,15.8929 334.143,16.0589 335.686,16.6239 C337.228,17.1899 338.387,18.0009 339.165,19.0519 C339.467,19.4159 339.719,20.0919 339.916,21.0769 C340.113,22.0619 340.277,23.0389 340.409,24.0039 C340.688,26.0499 340.923,27.8999 341.117,29.5499 C341.31,31.2029 341.511,32.7949 341.72,34.3289 C341.929,35.8629 342.129,37.4429 342.319,39.0659 C342.508,40.6879 342.736,42.4669 342.999,44.3979 C343.347,46.9549 344.046,48.5819 345.09,49.2799 C346.133,49.9769 347.255,50.2479 348.459,50.0899 C349.842,49.9089 350.829,49.5089 351.424,48.8829 C352.017,48.2589 352.381,47.5039 352.515,46.6199 C352.733,46.5929 352.841,46.5789 353.059,46.5519 C353.134,47.6409 352.995,48.7279 352.643,49.8119" id="Fill-9"></path>
                <path d="M390.6422,17.1161 C389.8992,18.0111 389.0022,18.5021 387.9452,18.5921 C386.9502,18.6761 386.1432,18.5871 385.5262,18.3251 C384.9092,18.0631 384.3622,17.7501 383.8922,17.3891 C383.4212,17.0291 382.9202,16.7121 382.3942,16.4441 C381.8682,16.1751 381.1672,16.0801 380.2942,16.1611 C379.5462,16.2301 378.8352,16.5421 378.1662,17.0951 C377.4962,17.6481 376.8852,18.3261 376.3362,19.1281 C375.7872,19.9301 375.3102,20.8271 374.9082,21.8171 C374.5052,22.8071 374.1622,23.7501 373.8772,24.6431 C374.8662,34.5011 375.3602,39.4311 376.3502,49.2901 C376.5812,49.7851 377.0132,50.1461 377.6422,50.3721 C378.2692,50.5971 378.9652,50.7311 379.7272,50.7731 C380.4882,50.8141 381.2772,50.8111 382.0902,50.7631 C382.9032,50.7161 383.6152,50.7221 384.2262,50.7811 C384.2582,51.1231 384.2742,51.2951 384.3062,51.6371 C376.2422,52.3771 372.2132,52.7921 364.1642,53.7101 L364.0672,52.8561 C365.4322,52.5851 366.5882,52.1971 367.5342,51.6881 C368.4812,51.1811 368.9052,50.4711 368.8062,49.5591 C367.7602,39.9251 366.7132,30.2911 365.6662,20.6571 C365.6172,20.2011 365.5332,19.8641 365.4152,19.6461 C365.2972,19.4291 364.9902,19.1631 364.5382,18.9631 C363.9932,18.7211 363.2552,18.4551 362.4602,18.1111 C361.6662,17.7671 360.8782,17.4961 360.0982,17.2961 L360.0392,16.7831 C364.7402,14.4811 367.1032,13.3441 371.8542,11.1011 C372.0802,11.0781 372.1922,11.0671 372.4182,11.0441 C372.8212,15.8101 373.0222,18.1931 373.4272,22.9591 C373.5012,22.9511 373.5382,22.9481 373.6122,22.9401 C373.8532,22.2241 374.2482,21.1771 374.8022,19.7971 C375.3552,18.4171 376.0962,17.0051 377.0292,15.5611 C377.9602,14.1191 379.1342,12.8421 380.5482,11.7321 C381.9622,10.6241 383.6442,9.9831 385.5902,9.8151 C387.1582,9.6801 388.5292,9.9971 389.6972,10.7641 C390.8632,11.5311 391.4992,12.5741 391.6042,13.8881 C391.7052,15.1461 391.3832,16.2221 390.6422,17.1161" id="Fill-11"></path>
                <path d="M428.2037,10.8417 C426.5437,9.3907 424.3567,8.7237 421.6577,8.8537 C419.8997,8.9387 418.3377,9.4927 416.9777,10.5127 C415.6187,11.5327 414.4587,12.7037 413.5007,14.0217 C412.5427,15.3407 411.8237,16.6597 411.3407,17.9817 C410.8577,19.3027 410.5767,20.3107 410.4947,21.0057 C411.9197,20.9187 413.1917,20.8447 414.3077,20.7807 C415.4237,20.7177 416.5237,20.6437 417.6067,20.5567 C418.6887,20.4707 419.8217,20.3837 420.9977,20.2967 C422.1737,20.2087 423.4757,20.1327 424.9047,20.0677 C425.8347,20.0257 426.7027,19.9587 427.5067,19.8677 C428.3087,19.7757 429.2147,19.6477 429.6297,19.3487 C430.0257,19.0637 430.3537,18.4307 430.5567,18.0207 C430.7587,17.6117 430.8447,17.0067 430.8127,16.2027 C430.7307,14.0837 429.8647,12.2947 428.2037,10.8417 M439.8387,39.4297 C439.0347,41.0317 437.9297,42.5147 436.5227,43.8807 C435.1167,45.2487 433.4217,46.3987 431.4387,47.3387 C429.4537,48.2777 427.2337,48.8027 424.7687,48.9187 C421.7027,49.0627 418.8797,48.6647 416.2897,47.7197 C413.7007,46.7747 411.4507,45.3747 409.5417,43.5137 C407.6307,41.6527 406.0967,39.4267 404.9407,36.8337 C403.7857,34.2397 403.0977,31.4567 402.8907,28.4827 C402.7237,26.0797 403.0187,23.6597 403.7867,21.2217 C404.5557,18.7857 405.7337,16.5647 407.3307,14.5667 C408.9267,12.5687 410.9297,10.9087 413.3417,9.5937 C415.7527,8.2797 418.4747,7.5447 421.4927,7.3987 C423.9447,7.2797 426.2707,7.4637 428.4617,7.9477 C430.6527,8.4307 432.5697,9.2357 434.2087,10.3537 C435.8487,11.4727 437.1957,12.9077 438.2487,14.6527 C439.3017,16.3967 439.9537,18.4727 440.2097,20.8747 C430.2667,21.1477 420.3087,21.5957 410.3827,22.2187 C410.4107,22.6777 410.4117,23.2087 410.3867,23.8127 C410.3617,24.4167 410.3687,25.0347 410.4077,25.6637 C410.5547,28.0677 411.0657,30.3497 411.9327,32.5077 C412.7997,34.6677 413.9827,36.5517 415.4767,38.1597 C416.9727,39.7687 418.8047,41.0047 420.9747,41.8707 C423.1447,42.7367 425.6177,43.1057 428.4017,42.9877 C431.4267,42.8577 434.0457,42.0287 436.2717,40.4897 C438.4967,38.9517 439.9497,37.1167 440.6207,34.9747 C440.9157,35.0347 441.0627,35.0647 441.3577,35.1257 C441.1487,36.3937 440.6407,37.8277 439.8387,39.4297" id="Fill-13"></path>
                <path d="M505.0431,25.1854 C503.9021,25.8864 502.4841,26.6204 500.7941,27.3914 C499.1031,28.1624 497.4591,29.0124 495.8631,29.9394 C494.2691,30.8664 492.8901,31.9044 491.7281,33.0484 C490.5641,34.1944 489.9701,35.5144 489.9341,37.0044 C489.8971,38.4954 490.4121,39.8544 491.4731,41.0864 C492.5321,42.3194 493.9361,42.9594 495.6911,43.0134 C497.2651,43.0624 498.6611,42.9364 499.8861,42.6354 C501.1071,42.3344 502.2521,41.7184 503.3221,40.7834 C504.0741,40.1824 504.4721,39.3954 504.5111,38.4204 C504.7241,33.1264 504.8301,30.4794 505.0431,25.1854 M520.3711,44.1044 C519.8271,45.1074 519.1401,46.0024 518.3121,46.7884 C517.4811,47.5744 516.5281,48.1544 515.4541,48.5284 C514.3781,48.9024 513.2111,49.0584 511.9481,48.9964 C509.9031,48.8964 508.1101,48.2414 506.5641,47.0284 C505.0171,45.8144 504.2961,43.7784 504.4111,40.9134 C504.3401,40.8754 504.3041,40.8564 504.2321,40.8194 C503.7161,41.5454 503.0331,42.3514 502.1821,43.2364 C501.3301,44.1224 500.3311,44.9464 499.1881,45.7094 C498.0431,46.4744 496.7871,47.0774 495.4181,47.5234 C494.0481,47.9684 492.5521,48.1694 490.9281,48.1284 C489.9641,48.1034 488.9901,47.9504 488.0031,47.6704 C487.0151,47.3904 486.1211,46.9134 485.3201,46.2374 C484.5191,45.5634 483.8701,44.7044 483.3741,43.6644 C482.8791,42.6234 482.6421,41.3584 482.6661,39.8674 C482.6921,38.2624 483.4001,36.7254 484.8021,35.2594 C486.2021,33.7954 487.9281,32.4824 489.9801,31.3274 C492.0311,30.1724 493.8561,29.1904 495.4501,28.3774 C497.0441,27.5654 498.4371,26.8794 499.6291,26.3174 C500.8191,25.7564 501.8721,25.2784 502.7831,24.8824 C503.6931,24.4864 504.4661,24.1294 505.0991,23.8104 C505.2401,20.2694 505.3121,18.4994 505.4541,14.9584 C505.4581,14.8444 505.3601,14.5664 505.1591,14.1284 C504.9571,13.6904 504.6001,13.2314 504.0871,12.7524 C503.5741,12.2744 502.8531,11.8304 501.9291,11.4234 C501.0041,11.0174 499.7871,10.7884 498.2831,10.7394 C497.2801,10.7064 496.2891,10.8344 495.3101,11.1204 C494.3281,11.4074 493.4571,11.7854 492.6941,12.2524 C491.9311,12.7194 491.3231,13.1934 490.8761,13.6684 C490.4261,14.1454 490.1981,14.5554 490.1891,14.8994 C490.1521,16.4464 490.1341,17.2214 490.0971,18.7684 C490.0781,19.5724 489.6091,20.2774 488.6971,20.8864 C487.7841,21.4984 486.8031,21.7924 485.7511,21.7714 C484.7601,21.7524 483.9141,21.4064 483.2131,20.7364 C482.5131,20.0664 482.1661,19.3004 482.1801,18.4404 C482.1901,17.7524 482.3871,17.1244 482.7701,16.5574 C483.1521,15.9904 483.6281,15.4824 484.1971,15.0324 C484.7671,14.5844 485.3831,14.1944 486.0451,13.8624 C486.7071,13.5314 487.2911,13.2294 487.7981,12.9524 C489.4401,12.1274 491.1191,11.3364 492.8331,10.5784 C494.5461,9.8214 496.1811,9.1814 497.7381,8.6564 C499.2941,8.1334 500.7251,7.7224 502.0261,7.4254 C503.3261,7.1284 504.3881,6.9974 505.2051,7.0294 C506.8411,7.0934 508.3651,7.5454 509.7761,8.3834 C511.1871,9.2204 512.1761,10.2294 512.7481,11.4044 C512.9791,11.8174 513.1031,12.5284 513.1161,13.5314 C513.1301,14.5364 513.1131,15.5274 513.0661,16.5004 C512.9671,18.5624 512.8611,20.4244 512.7501,22.0824 C512.6391,23.7414 512.5461,25.3444 512.4721,26.8914 C512.3971,28.4374 512.3061,30.0264 512.1961,31.6564 C512.0861,33.2864 511.9851,35.0774 511.8921,37.0244 C511.7671,39.6014 512.1561,41.3284 513.0541,42.2044 C513.9511,43.0804 515.0021,43.5514 516.2131,43.6154 C517.6041,43.6894 518.6471,43.4764 519.3441,42.9694 C520.0401,42.4634 520.5351,41.7884 520.8281,40.9434 C521.0461,40.9564 521.1551,40.9624 521.3741,40.9754 C521.2491,42.0594 520.9141,43.1024 520.3711,44.1044" id="Fill-15"></path>
                <path d="M556.0968,52.14 C556.1338,51.764 556.1518,51.575 556.1888,51.199 C557.8218,51.243 559.1298,51.187 560.1178,51.028 C561.1028,50.87 561.6458,50.336 561.7398,49.423 C562.6338,40.799 563.0798,36.487 563.9738,27.863 C564.3168,24.556 563.9128,21.817 562.7528,19.654 C561.5928,17.491 559.3828,16.245 556.1408,15.941 C554.0828,15.747 552.3298,15.993 550.8898,16.671 C549.4478,17.35 547.8218,18.389 546.0158,19.791 C545.2328,29.163 544.4488,38.534 543.6648,47.905 C543.7378,48.487 543.9118,48.918 544.1928,49.201 C544.4708,49.483 544.8178,49.7 545.2278,49.85 C545.6378,50 546.1138,50.112 546.6518,50.188 C547.1888,50.264 547.7538,50.386 548.3448,50.553 C548.3138,50.896 548.2988,51.067 548.2688,51.41 C541.3198,50.792 537.8428,50.516 530.8858,50.032 C530.9098,49.688 530.9218,49.517 530.9458,49.174 C532.3368,49.156 533.5428,48.984 534.5658,48.657 C535.5868,48.33 536.1338,47.71 536.2028,46.795 C536.9438,36.96 537.6848,27.125 538.4248,17.291 C538.4598,16.834 538.4388,16.487 538.3628,16.251 C538.2858,16.016 538.0338,15.699 537.6248,15.42 C537.1338,15.083 536.4538,14.716 535.7318,14.289 C535.0098,13.864 534.2828,13.482 533.5528,13.143 C533.5668,12.937 533.5748,12.834 533.5888,12.628 C538.6178,11.358 541.1418,10.74 546.2088,9.537 C546.4358,9.556 546.5478,9.565 546.7748,9.584 C546.4648,13.287 546.3108,15.138 546.0008,18.841 C546.0738,18.881 546.1088,18.901 546.1808,18.942 C546.9438,18.028 547.8828,17.057 549.0048,16.031 C550.1258,15.006 551.3818,14.094 552.7728,13.298 C554.1628,12.504 555.6688,11.878 557.2868,11.427 C558.9038,10.975 560.5588,10.833 562.2448,11.002 C565.8688,11.364 568.5218,12.888 570.1828,15.548 C571.8438,18.209 572.4458,21.481 572.0118,25.355 C570.8858,35.407 570.3238,40.433 569.1988,50.486 C569.1538,50.885 569.3108,51.248 569.6678,51.577 C570.0258,51.905 570.4678,52.172 570.9908,52.376 C571.5138,52.58 572.0858,52.761 572.7048,52.92 C573.3248,53.078 573.9008,53.219 574.4338,53.338 C574.3968,53.646 574.3788,53.8 574.3428,54.107 C567.0508,53.246 563.4018,52.853 556.0968,52.14" id="Fill-17"></path>
                <path d="M623.3575,28.702 C622.3895,26.156 620.9645,24 619.0855,22.245 C617.2045,20.489 615.3525,19.47 613.5475,19.19 C611.1205,18.813 608.9695,19.011 607.1085,19.777 C605.2455,20.544 603.6335,21.701 602.2735,23.243 C600.9135,24.785 599.8155,26.628 598.9795,28.768 C598.1425,30.908 597.5635,33.144 597.2365,35.471 C596.9095,37.8 596.8985,40.101 597.1955,42.371 C597.4935,44.642 598.1255,46.703 599.0885,48.55 C600.0525,50.398 601.3415,51.963 602.9595,53.248 C604.5755,54.534 606.5465,55.355 608.8795,55.721 C611.3335,56.104 613.5665,55.651 615.5935,54.356 C617.6205,53.062 619.0835,51.243 619.9745,48.891 C621.3275,40.816 622.0045,36.778 623.3575,28.702 M618.6375,60.702 C618.4225,60.667 618.3155,60.649 618.1015,60.613 C618.6705,57.22 618.9555,55.523 619.5245,52.13 C619.4885,52.124 619.4695,52.121 619.4335,52.115 C617.2155,54.651 614.8245,56.406 612.2475,57.386 C609.6695,58.366 606.6285,58.584 603.1095,58.054 C600.9015,57.722 598.8295,56.998 596.8845,55.88 C594.9405,54.762 593.2775,53.228 591.8925,51.272 C590.5075,49.318 589.4975,47.012 588.8655,44.355 C588.2325,41.698 588.1265,38.72 588.5575,35.422 C588.9455,32.466 589.8735,29.781 591.3545,27.375 C592.8355,24.97 594.7435,22.955 597.0865,21.338 C599.4285,19.723 602.1455,18.586 605.2335,17.936 C608.3195,17.287 611.6475,17.237 615.2025,17.794 C617.0725,18.088 618.8105,18.511 620.4155,19.062 C622.0175,19.614 623.4715,20.204 624.7735,20.828 C624.8525,19.97 625.0015,18.802 625.2155,17.327 C625.4305,15.852 625.6675,14.35 625.9225,12.823 C626.1785,11.296 626.4155,9.883 626.6325,8.581 C626.8605,7.224 627.0255,6.235 627.1295,5.612 C624.1985,4.04 622.7265,3.26 619.7745,1.71 C619.8065,1.506 619.8235,1.404 619.8555,1.201 C626.1465,0.668 629.3015,0.428 635.6285,0 C635.9345,0.054 636.0865,0.08 636.3925,0.134 C633.1635,18.459 629.9345,36.785 626.7065,55.11 C627.1345,55.477 627.9635,56.03 629.1895,56.774 C630.4135,57.517 631.5515,58.22 632.6035,58.879 C632.5605,59.116 632.5385,59.234 632.4955,59.471 C626.9365,59.921 624.1655,60.167 618.6375,60.702" id="Fill-19"></path>
                <path d="M719.5519,73.4464 C717.8039,75.2154 715.7079,76.5574 713.2659,77.4834 C710.8229,78.4094 708.0999,78.8484 705.0919,78.8074 C702.0829,78.7664 698.9119,78.3114 695.5679,77.4454 C692.6919,76.7014 690.2669,75.9114 688.2919,75.0634 C686.3169,74.2154 684.7079,73.3914 683.4689,72.5884 C682.2279,71.7844 681.3129,71.1064 680.7279,70.5534 C680.1429,70.0014 679.7599,69.7024 679.5819,69.6604 C679.4049,69.6184 678.9399,69.8624 678.1909,70.3904 C677.4419,70.9204 676.7579,71.4364 676.1419,71.9394 C675.8229,71.8644 675.6639,71.8274 675.3459,71.7524 C676.8019,65.0614 677.5289,61.7164 678.9819,55.0244 C679.3419,55.1084 679.5219,55.1504 679.8829,55.2354 C680.0689,56.8694 680.4119,58.4974 680.9109,60.1184 C681.4099,61.7384 681.9989,63.2954 682.6789,64.7864 C683.3589,66.2764 684.1299,67.6294 684.9929,68.8434 C685.8569,70.0574 686.7259,71.0404 687.6069,71.7904 C688.4849,72.5394 689.6869,73.3714 691.2089,74.2884 C692.7299,75.2054 694.2529,75.8624 695.7809,76.2574 C700.1289,77.3824 703.9429,77.2024 707.2589,75.6964 C710.5729,74.1894 712.7729,71.5434 713.8269,67.7304 C714.2549,66.1834 714.3619,64.7544 714.1449,63.4454 C713.9269,62.1364 713.4719,60.9254 712.7779,59.8154 C712.0829,58.7054 711.1869,57.6754 710.0889,56.7254 C708.9899,55.7774 707.7839,54.8614 706.4689,53.9804 C705.1559,53.0994 703.9959,52.3524 702.9949,51.7374 C701.9949,51.1214 701.0639,50.5404 700.2049,49.9964 C699.3459,49.4504 698.4539,48.8974 697.5309,48.3394 C696.6099,47.7814 695.5109,47.0704 694.2399,46.2294 C692.8059,45.2794 691.4679,44.1424 690.2419,42.8114 C689.0179,41.4814 688.0099,40.0294 687.2219,38.4554 C686.4329,36.8824 685.8859,35.2204 685.5839,33.4704 C685.2809,31.7194 685.3379,29.9524 685.7569,28.1654 C686.4639,25.1504 687.6849,22.6974 689.4299,20.8124 C691.1739,18.9284 693.2659,17.5084 695.7019,16.5654 C698.1389,15.6214 700.8159,15.1404 703.7209,15.1291286 C706.6259,15.1174 709.5909,15.5034 712.6039,16.2864 C715.4279,17.0204 717.7859,17.8694 719.6799,18.8224 C721.5719,19.7754 723.0889,20.6794 724.2339,21.5284 C725.3759,22.3764 726.2179,23.1004 726.7579,23.6964 C727.2969,24.2914 727.5969,24.5984 727.6589,24.6164 C727.8469,24.6684 728.3279,24.4454 729.1059,23.9484 C729.8819,23.4524 730.6139,22.9414 731.3009,22.4204 C731.7129,22.5364 731.9189,22.5944 732.3309,22.7114 C730.5979,28.8364 729.7319,31.8984 727.9979,38.0224 C727.5929,37.9074 727.3909,37.8504 726.9859,37.7364 C726.7609,35.7074 726.3139,33.6304 725.6399,31.5094 C724.9659,29.3874 724.0429,27.4064 722.8749,25.5704 C721.7059,23.7344 720.2389,22.1024 718.4779,20.6824 C716.7149,19.2614 714.6079,18.2294 712.1629,17.5934 C710.2199,17.0884 708.3209,16.8674 706.4699,16.9304 C704.6169,16.9934 702.9249,17.3674 701.3939,18.0504 C699.8609,18.7324 698.5539,19.7264 697.4759,21.0254 C696.3959,22.3254 695.6269,23.9244 695.1649,25.8174 C694.4449,28.7704 694.8559,31.3774 696.3799,33.6444 C697.9049,35.9124 700.0879,37.9654 702.9309,39.8174 C704.0349,40.5754 705.0779,41.2584 706.0579,41.8684 C707.0369,42.4784 708.0039,43.0734 708.9559,43.6504 C709.9089,44.2274 710.8719,44.8254 711.8459,45.4414 C712.8199,46.0584 713.8289,46.7174 714.8759,47.4164 C718.6179,49.9184 721.2429,52.8134 722.7539,56.0704 C724.2639,59.3284 724.4419,62.9164 723.3189,66.8294 C722.5599,69.4754 721.2999,71.6794 719.5519,73.4464" id="Fill-21"></path>
                <path d="M758.2941,95.4777 C758.4151,95.1187 758.4761,94.9397 758.5971,94.5817 C760.1941,94.9987 761.5551,95.2647 762.6791,95.3767 C763.8031,95.4877 764.5141,95.1127 764.8131,94.2447 C767.6101,86.1107 769.0091,82.0437 771.8081,73.9107 C772.3481,72.3377 772.7331,70.8317 772.9611,69.3957 C773.1891,67.9597 773.1561,66.6437 772.8621,65.4517 C772.5681,64.2607 771.9731,63.2097 771.0771,62.3007 C770.1811,61.3917 768.8901,60.6527 767.2071,60.0917 C765.0431,59.3697 763.0881,59.1197 761.3551,59.3367 C759.6181,59.5537 758.1071,60.1197 756.8201,61.0297 C756.6471,61.1547 756.3721,61.4427 755.9951,61.8937 C755.6181,62.3447 755.3601,62.7897 755.2211,63.2257 C751.9891,73.2817 750.3731,78.3097 747.1421,88.3657 C746.9831,88.8567 747.0071,89.2857 747.2091,89.6517 C747.4111,90.0177 747.7231,90.3447 748.1431,90.6317 C748.5631,90.9167 749.0551,91.1827 749.6161,91.4257 C750.1771,91.6687 750.7321,91.9407 751.2751,92.2387 C751.1681,92.5657 751.1141,92.7297 751.0081,93.0567 C744.0961,90.7917 740.6301,89.6947 733.6851,87.5717 C733.7851,87.2427 733.8351,87.0787 733.9361,86.7497 C735.3081,87.0497 736.5781,87.2157 737.7501,87.2487 C738.9201,87.2817 739.6681,86.7797 739.9931,85.7397 C744.8471,70.1947 749.6991,54.6497 754.5531,39.1037 C754.6901,38.6667 754.7461,38.3237 754.7221,38.0757 C754.6981,37.8287 754.4791,37.4967 754.1681,37.0917 C753.7871,36.5977 753.2471,35.9807 752.5241,35.3667 C751.8021,34.7537 751.1051,34.1057 750.4371,33.4207 C750.4971,33.2237 750.5271,33.1247 750.5881,32.9267 C756.1721,32.4407 758.9741,32.2177 764.5971,31.8167 C764.8941,31.9127 765.0421,31.9597 765.3401,32.0557 C762.2021,41.4967 759.0671,50.9397 755.9361,60.3837 C755.9971,60.4387 756.0271,60.4677 756.0891,60.5227 C756.7521,59.8937 757.6781,59.2267 758.8651,58.5267 C760.0531,57.8257 761.4501,57.2557 763.0591,56.8167 C764.6661,56.3797 766.4331,56.1307 768.3571,56.0767 C770.2791,56.0237 772.2681,56.3437 774.3141,57.0407 C776.2971,57.7157 777.8591,58.6027 778.9921,59.6937 C780.1261,60.7827 780.9021,62.0287 781.3201,63.4197 C781.7381,64.8127 781.8431,66.3247 781.6361,67.9537 C781.4291,69.5827 781.0091,71.2897 780.3781,73.0737 C776.9971,82.6437 775.3061,87.4287 771.9251,96.9977 C771.7911,97.3767 771.8501,97.7627 772.1001,98.1547 C772.3501,98.5487 772.7111,98.9037 773.1811,99.2227 C773.6501,99.5417 774.1591,99.8457 774.7061,100.1327 C775.2511,100.4197 775.7741,100.6837 776.2731,100.9237 C776.1681,101.2147 776.1151,101.3607 776.0111,101.6517 C768.9431,99.1067 765.4001,97.8727 758.2941,95.4777" id="Fill-23"></path>
                <path d="M818.2159,92.7518 C816.8869,93.0178 815.2799,93.2208 813.4019,93.3638 C811.5229,93.5068 809.6609,93.7418 807.8229,94.0648 C805.9849,94.3878 804.3149,94.8918 802.8179,95.5698 C801.3179,96.2488 800.3029,97.2858 799.7659,98.6768 C799.2279,100.0678 799.2619,101.5248 799.8609,103.0488 C800.4599,104.5738 801.5869,105.6598 803.2489,106.3148 C804.7369,106.9018 806.1169,107.2648 807.3909,107.4028 C808.6629,107.5408 809.9659,107.3548 811.3069,106.8438 C812.2299,106.5368 812.8759,105.9328 813.2419,105.0288 C815.2319,100.1178 816.2259,97.6628 818.2159,92.7518 M826.5259,115.8598 C825.6659,116.6158 824.7049,117.2208 823.6459,117.6738 C822.5839,118.1268 821.4749,118.3428 820.3189,118.3238 C819.1609,118.3038 817.9899,118.0468 816.8009,117.5528 C814.8739,116.7518 813.3779,115.5178 812.3059,113.8408 C811.2339,112.1648 811.2289,109.9988 812.3059,107.3408 C812.2499,107.2808 812.2219,107.2518 812.1659,107.1918 C811.4269,107.6968 810.4999,108.2198 809.3869,108.7598 C808.2729,109.2998 807.0379,109.7318 805.6869,110.0568 C804.3319,110.3818 802.9259,110.5178 801.4649,110.4658 C800.0049,110.4138 798.5049,110.0888 796.9649,109.4908 C796.0509,109.1358 795.1709,108.6578 794.3199,108.0538 C793.4709,107.4508 792.7769,106.6948 792.2379,105.7838 C791.6999,104.8738 791.3679,103.8428 791.2449,102.6928 C791.1219,101.5428 791.3219,100.2708 791.8489,98.8748 C792.4149,97.3738 793.6119,96.1688 795.4459,95.2708 C797.2789,94.3728 799.3719,93.7298 801.7249,93.3478 C804.0759,92.9658 806.1539,92.6688 807.9539,92.4528 C809.7529,92.2358 811.3189,92.0698 812.6499,91.9518 C813.9779,91.8338 815.1479,91.7458 816.1529,91.6878 C817.1589,91.6278 818.0189,91.5588 818.7329,91.4758 C820.0629,88.1918 820.7279,86.5498 822.0589,83.2648 C822.1019,83.1588 822.1009,82.8638 822.0559,82.3828 C822.0109,81.8998 821.8219,81.3448 821.4929,80.7168 C821.1629,80.0898 820.6219,79.4228 819.8739,78.7218 C819.1259,78.0208 818.0389,77.3858 816.6149,76.8218 C815.6669,76.4468 814.6739,76.2248 813.6409,76.1578 C812.6059,76.0898 811.6439,76.1468 810.7559,76.3228 C809.8679,76.5008 809.1269,76.7368 808.5379,77.0308 C807.9469,77.3258 807.5909,77.6328 807.4669,77.9538 C806.9089,79.3978 806.6309,80.1208 806.0729,81.5648 C805.7829,82.3148 805.0979,82.8168 804.0199,83.0778 C802.9399,83.3398 801.9029,83.2788 800.9039,82.8988 C799.9619,82.5398 799.2699,81.9238 798.8259,81.0528 C798.3819,80.1808 798.3099,79.3408 798.6119,78.5358 C798.8549,77.8918 799.2539,77.3688 799.8119,76.9658 C800.3679,76.5638 800.9949,76.2478 801.6909,76.0208 C802.3859,75.7938 803.1079,75.6378 803.8529,75.5538 C804.5979,75.4698 805.2579,75.3858 805.8359,75.2988 C807.6859,75.0868 809.5589,74.9188 811.4529,74.7948 C813.3479,74.6718 815.1279,74.6308 816.7959,74.6738 C818.4619,74.7168 819.9699,74.8228 821.3169,74.9918 C822.6609,75.1598 823.7229,75.4018 824.4949,75.7138 C826.0389,76.3388 827.3469,77.2908 828.4169,78.5658 C829.4859,79.8408 830.0929,81.1328 830.2449,82.4368 C830.3259,82.9048 830.2059,83.6168 829.8799,84.5658 C829.5549,85.5168 829.2049,86.4438 828.8319,87.3438 C828.0409,89.2508 827.3129,90.9678 826.6469,92.4908 C825.9799,94.0148 825.3509,95.4918 824.7569,96.9218 C824.1639,98.3518 823.5399,99.8168 822.8859,101.3138 C822.2319,102.8098 821.5299,104.4608 820.7839,106.2618 C819.7959,108.6448 819.5859,110.4058 820.1509,111.5408 C820.7159,112.6748 821.5649,113.4818 822.7029,113.9608 C824.0119,114.5118 825.0829,114.6708 825.9229,114.4348 C826.7619,114.1998 827.4639,113.7348 828.0289,113.0418 C828.2349,113.1288 828.3369,113.1728 828.5429,113.2608 C828.0579,114.2388 827.3849,115.1038 826.5259,115.8598" id="Fill-25"></path>
                <path d="M876.628,107.1754 C875.518,107.5644 874.474,107.5254 873.494,107.0574 C872.571,106.6174 871.903,106.1244 871.49,105.5814 C871.076,105.0364 870.752,104.4854 870.52,103.9324 C870.286,103.3794 870.003,102.8484 869.675,102.3464 C869.345,101.8434 868.774,101.4014 867.962,101.0214 C867.266,100.6964 866.479,100.6004 865.608,100.7324 C864.734,100.8644 863.852,101.1354 862.961,101.5444 C862.068,101.9544 861.193,102.4834 860.337,103.1294 C859.48,103.7764 858.698,104.4124 857.995,105.0364 C853.872,114.0464 851.812,118.5514 847.689,127.5614 C847.642,128.1084 847.841,128.6404 848.281,129.1584 C848.721,129.6754 849.269,130.1484 849.92,130.5764 C850.571,131.0034 851.27,131.4064 852.012,131.7834 C852.755,132.1614 853.381,132.5324 853.892,132.8984 C853.746,133.2094 853.673,133.3654 853.527,133.6774 C846.025,130.1654 842.26,128.4544 834.699,125.1214 C834.838,124.8064 834.907,124.6494 835.046,124.3344 C836.387,124.8004 837.604,125.0574 838.694,125.1044 C839.786,125.1524 840.521,124.7584 840.896,123.9204 C844.853,115.0754 848.811,106.2294 852.769,97.3834 C852.955,96.9654 853.052,96.6314 853.059,96.3824 C853.065,96.1344 852.929,95.7484 852.632,95.3434 C852.273,94.8554 851.757,94.2474 851.231,93.5434 C850.704,92.8394 850.148,92.2024 849.562,91.6294 C849.645,91.4404 849.686,91.3454 849.77,91.1564 C855.078,91.5804 857.739,91.8124 863.07,92.3194 C863.281,92.4154 863.386,92.4634 863.597,92.5604 C861.537,96.8764 860.508,99.0354 858.45,103.3524 C858.52,103.3844 858.555,103.4004 858.624,103.4324 C859.198,102.9384 860.078,102.2384 861.268,101.3324 C862.455,100.4274 863.824,99.5904 865.38,98.8244 C866.934,98.0604 868.617,97.5624 870.43,97.3334 C872.241,97.1054 874.054,97.4184 875.859,98.2764 C877.315,98.9674 878.367,99.9474 879.012,101.2114 C879.655,102.4744 879.689,103.7014 879.116,104.8894 C878.568,106.0254 877.737,106.7874 876.628,107.1754" id="Fill-27"></path>
                <path d="M913.128,121.2198 C912.388,119.1058 910.781,117.3928 908.317,116.1038 C906.713,115.2638 905.045,114.9308 903.32,115.1038 C901.596,115.2778 899.974,115.6868 898.455,116.3258 C896.936,116.9658 895.628,117.7308 894.53,118.6198 C893.432,119.5088 892.671,120.2318 892.247,120.7888 C893.555,121.4518 894.721,122.0468 895.743,122.5708 C896.766,123.0948 897.779,123.6008 898.785,124.0888 C899.79,124.5748 900.84,125.0878 901.93,125.6248 C903.018,126.1598 904.214,126.7698 905.516,127.4568 C906.364,127.9038 907.168,128.2978 907.931,128.6368 C908.691,128.9758 909.556,129.3368 910.081,129.2938 C910.576,129.2538 911.191,128.8798 911.579,128.6318 C911.966,128.3848 912.35,127.9068 912.73,127.1988 C913.731,125.3288 913.867,123.3358 913.128,121.2198 M908.98,151.9198 C907.451,152.8818 905.716,153.5838 903.772,154.0288 C901.825,154.4748 899.734,154.5828 897.494,154.3608 C895.253,154.1368 893.013,153.4348 890.765,152.2538 C887.966,150.7848 885.662,148.9788 883.843,146.8198 C882.023,144.6628 880.737,142.2908 879.988,139.6978 C879.238,137.1048 879.005,134.3918 879.296,131.5588 C879.587,128.7248 880.388,125.9708 881.713,123.2988 C882.783,121.1418 884.272,119.2078 886.189,117.5028 C888.105,115.7998 890.276,114.4958 892.704,113.5998 C895.132,112.7038 897.751,112.3098 900.559,112.4268 C903.364,112.5428 906.154,113.3218 908.91,114.7628 C911.149,115.9348 913.121,117.3028 914.824,118.8588 C916.527,120.4168 917.825,122.1078 918.717,123.9258 C919.608,125.7448 920.079,127.6828 920.132,129.7358 C920.184,131.7888 919.711,133.9178 918.722,136.1218 C909.752,131.1798 900.674,126.3908 891.531,121.7758 C891.323,122.1858 891.056,122.6438 890.727,123.1518 C890.398,123.6598 890.091,124.1968 889.806,124.7588 C888.718,126.9068 888.015,129.1388 887.689,131.4488 C887.363,133.7598 887.458,135.9968 887.969,138.1578 C888.48,140.3198 889.48,142.3358 890.968,144.2088 C892.456,146.0808 894.465,147.6838 897.001,149.0298 C899.756,150.4918 902.506,151.1408 905.267,150.9748 C908.028,150.8088 910.252,149.9848 911.936,148.4888 C912.168,148.6948 912.284,148.7978 912.516,149.0038 C911.687,149.9878 910.507,150.9588 908.98,151.9198" id="Fill-29"></path>
            </g>
        </g>
    </g>
</svg>