<?xml version="1.0" encoding="UTF-8"?>
<svg width="683px" height="82px" viewBox="0 0 683 82" version="1.1" xmlns="http://www.w3.org/2000/svg" xmlns:xlink="http://www.w3.org/1999/xlink">
    <title>logo_text_black</title>
    <defs>
        <path d="M271.6376,0.9916 L271.6376,2.3556 L271.6376,48.9756 C271.6376,50.4776 272.8546,51.6946 274.3556,51.6946 L274.3556,51.6946 L392.3216,51.6946 L392.3216,46.8446 L277.0336,46.8446 L277.0336,1.0246 L276.9956,0.9916 L271.6376,0.9916 Z" id="path-1"></path>
    </defs>
    <g id="components" stroke="none" stroke-width="1" fill="none" fill-rule="evenodd">
        <g id="illust" transform="translate(-32.000000, -604.000000)">
            <g id="Group" transform="translate(32.000000, 604.000000)">
                <path d="M5.396,5.8494 L5.396,29.1914 L33.883,29.1744 C38.122,29.1744 41.681,27.5464 44.56,24.2904 C46.125,22.1674 46.91,19.9734 46.91,17.7114 L46.91,17.2954 C46.91,13.7844 45.228,10.7844 41.862,8.2914 C39.419,6.6514 36.748,5.8324 33.843,5.8324 L5.396,5.8494 Z M2.715,51.7034 C1.216,51.7034 1.13686838e-13,50.4874 1.13686838e-13,48.9894 L1.13686838e-13,11.1284 L1.13686838e-13,0.9824 L33.883,0.9824 C39.304,0.9824 44.005,2.9214 47.99,6.8014 C50.866,10.0574 52.308,13.5444 52.308,17.2594 L52.308,17.7794 C52.308,22.0044 50.521,25.8044 46.948,29.1744 C43.146,32.4304 38.817,34.0584 33.959,34.0584 L5.396,34.0754 L5.396,51.5984 L5.282,51.7034 L2.715,51.7034 Z" id="Fill-1" fill="#333333"></path>
                <path d="M69.2304,51.6622 C67.7264,51.6612 66.5074,50.4422 66.5074,48.9382 L66.5074,5.8122 L66.5074,0.9912 L118.7764,0.9912 L118.8144,1.0252 L118.8144,5.8052 L118.7764,5.8412 L71.9034,5.8412 L71.9034,23.9182 L114.2284,23.9182 L114.2664,23.9522 L114.2664,28.7332 L114.2284,28.7672 L71.9034,28.7672 L71.9034,46.8452 L118.7764,46.8452 L118.8144,46.8812 L118.8144,51.6602 L118.7764,51.6942 L69.2304,51.6622 Z" id="Fill-4" fill="#333333"></path>
                <path d="M205.979,51.6945 C204.478,51.6945 203.261,50.4775 203.261,48.9765 L203.261,3.6275 L203.261,0.9915 L255.53,0.9915 L255.568,1.0255 L255.568,5.8045 L255.53,5.8405 L208.657,5.8405 L208.657,23.9175 L250.981,23.9175 L251.02,23.9525 L251.02,28.7335 L250.981,28.7675 L208.657,28.7675 L208.657,46.8445 L255.53,46.8445 L255.568,46.8815 L255.568,51.6605 L255.53,51.6945 L205.979,51.6945 Z" id="Fill-6" fill="#333333"></path>
                <path d="M181.7177,44.0406 L181.7937,44.0406 L181.7937,1.0956 L181.8727,0.9916 L187.0747,0.9916 L187.1917,1.0956 L187.1917,51.5906 L187.0747,51.6946 L181.8997,51.6946 C181.1437,51.6946 180.4207,51.3806 179.9047,50.8276 L140.5507,8.6446 L140.5507,51.5906 L140.4347,51.6946 L137.5927,51.6946 C136.0967,51.6946 134.8847,50.4816 134.8847,48.9856 L134.8847,8.7386 L134.8847,0.9916 L141.6287,0.9916 L181.7937,44.0406" id="Fill-8" fill="#333333"></path>
                <path d="M541.1714,51.6945 C539.6694,51.6945 538.4524,50.4775 538.4524,48.9765 L538.4524,3.7105 L538.4524,0.9915 L590.7224,0.9915 L590.7604,1.0255 L590.7604,5.8045 L590.7224,5.8405 L543.8484,5.8405 L543.8484,23.9175 L586.1734,23.9175 L586.2114,23.9525 L586.2114,28.7335 L586.1734,28.7675 L543.8484,28.7675 L543.8484,46.8445 L590.7224,46.8445 L590.7604,46.8815 L590.7604,51.6605 L590.7224,51.6945 L541.1714,51.6945 Z" id="Fill-10" fill="#333333"></path>
                <path d="M653.6626,44.0406 L653.7386,44.0406 L653.7386,1.0956 L653.8166,0.9916 L659.0196,0.9916 L659.1366,1.0956 L659.1366,51.5906 L659.0196,51.6946 L653.8406,51.6946 C653.0866,51.6946 652.3666,51.3816 651.8526,50.8306 L612.4956,8.6446 L612.4956,51.5906 L612.3796,51.6946 L609.5476,51.6946 C608.0466,51.6946 606.8296,50.4776 606.8296,48.9756 L606.8296,6.5936 L606.8296,0.9916 L613.5736,0.9916 L653.7386,44.0406" id="Fill-12" fill="#333333"></path>
                <path d="M271.6376,0.9916 L271.6376,2.3556 L271.6376,48.9756 C271.6376,50.4776 272.8546,51.6946 274.3556,51.6946 L274.3556,51.6946 L392.3216,51.6946 L392.3216,46.8446 L277.0336,46.8446 L277.0336,1.0246 L276.9956,0.9916 L271.6376,0.9916 Z" id="Fill-15"></path>
                <mask id="mask-2" fill="white">
                    <use xlink:href="#path-1"></use>
                </mask>
                <use id="Clip-16" fill="#333333" xlink:href="#path-1"></use>
                <path d="M417.7436,34.8978 L431.1506,5.2038 L445.5976,34.8978 L417.7436,34.8978 Z M455.4606,51.6598 L459.4566,51.6598 L434.6526,0.9918 L427.6976,0.9918 L406.1416,47.8268 C405.3146,49.6238 406.6196,51.6738 408.5976,51.6848 L410.1596,51.6948 L415.5386,39.7818 L447.9726,39.7818 L453.0046,50.1248 C453.4616,51.0638 454.4156,51.6598 455.4606,51.6598 L455.4606,51.6598 Z" id="Fill-18" fill="#333333"></path>
                <path d="M522.2417,23.7661 L518.4547,23.7661 L516.5877,23.7661 L499.3527,23.7661 L499.3527,26.2031 C499.3527,27.7031 500.5687,28.9191 502.0687,28.9191 L516.5877,28.9191 C515.2097,38.8551 506.0117,46.5411 494.8437,46.5411 C482.7257,46.5411 472.9027,37.4981 472.9027,26.3431 C472.9027,15.1881 482.7257,6.1441 494.8437,6.1441 C502.8627,6.1441 509.8567,10.1171 513.6837,16.0291 L518.7357,13.7691 C513.9887,6.1411 505.0777,0.9911 494.8437,0.9911 C479.6347,0.9911 467.3037,12.3411 467.3037,26.3431 C467.3037,40.3441 479.6347,51.6941 494.8437,51.6941 C510.0537,51.6941 522.3837,40.3441 522.3837,26.3431 C522.3837,25.4731 522.3357,24.6131 522.2417,23.7661" id="Fill-20" fill="#333333"></path>
                <path d="M676.687,6.543 C677.332,6.543 677.702,6.107 677.702,5.35 C677.702,4.593 677.332,4.206 676.655,4.206 L675.091,4.206 L675.091,6.543 L676.687,6.543 Z M673.672,2.902 L676.655,2.902 C678.396,2.902 679.136,3.997 679.136,5.35 C679.136,6.349 678.734,7.204 677.847,7.591 L679.523,10.589 L677.976,10.589 L676.46,7.816 L675.091,7.816 L675.091,10.315 C675.091,10.54 674.802,10.685 674.381,10.685 C673.93,10.685 673.672,10.54 673.672,10.315 L673.672,2.902 Z M676.203,1.257 C673.173,1.257 670.691,3.739 670.691,6.77 C670.691,9.799 673.173,12.28 676.203,12.28 C679.233,12.28 681.715,9.799 681.715,6.77 C681.715,3.739 679.233,1.257 676.203,1.257 L676.203,1.257 Z M676.203,13.538 C672.449,13.538 669.402,10.524 669.402,6.77 C669.402,3.014 672.449,0 676.203,0 C679.959,0 683.004,3.014 683.004,6.77 C683.004,10.524 679.959,13.538 676.203,13.538 L676.203,13.538 Z" id="Fill-22" fill="#333333"></path>
                <polygon id="Fill-25" fill="#333333" points="88.313 72.0156 97.962 72.0156 97.969 72.0226 97.969 72.9046 97.962 72.9116 89.302 72.9116 89.302 76.2516 97.122 76.2516 97.129 76.2576 97.129 77.1416 97.122 77.1476 89.302 77.1476 89.302 80.4866 97.962 80.4866 97.969 80.4936 97.969 81.3766 97.962 81.3836 88.313 81.3836 88.306 81.3766 88.306 72.0226"></polygon>
                <polyline id="Fill-27" fill="#333333" points="134.9438 79.9697 134.9578 79.9697 134.9578 72.0337 134.9718 72.0147 135.9338 72.0147 135.9548 72.0337 135.9548 81.3647 135.9338 81.3837 134.7578 81.3837 127.3368 73.4287 127.3368 81.3647 127.3148 81.3837 126.3108 81.3837 126.2898 81.3647 126.2898 72.0337 126.3108 72.0147 127.5358 72.0147 134.9578 79.9697"></polyline>
                <polygon id="Fill-29" fill="#333333" points="140.2041 72.0146 141.1871 72.0146 141.1941 72.0206 141.1941 80.4876 149.8631 80.4876 149.8631 81.3836 140.2041 81.3836 140.1971 81.3776 140.1971 72.0206"></polygon>
                <polygon id="Fill-31" fill="#333333" points="60.4927 72.0139 70.1517 72.0139 70.1587 72.0199 70.1587 72.8809 70.1517 72.8869 65.8177 72.8869 65.8177 81.3789 65.8107 81.3849 64.8417 81.3849 64.8337 81.3789 64.8337 72.8869 60.4927 72.8869 60.4857 72.8809 60.4857 72.0199"></polygon>
                <polygon id="Fill-33" fill="#333333" points="74.4179 72.0313 75.3589 72.0313 75.3799 72.0493 75.3799 76.2813 83.0799 76.2583 83.0799 72.0273 83.0939 72.0083 84.0419 72.0083 84.0629 72.0273 84.0629 81.3483 84.0419 81.3673 83.0939 81.3673 83.0799 81.3483 83.0799 77.1313 75.3799 77.1543 75.3799 81.3713 75.3589 81.3903 74.4179 81.3903 74.3969 81.3713 74.3969 72.0493"></polygon>
                <path d="M196.9223,80.4095 C194.6963,80.4095 192.8923,78.7485 192.8923,76.6995 C192.8923,74.6505 194.6963,72.9895 196.9223,72.9895 C199.1483,72.9895 200.9523,74.6505 200.9523,76.6995 C200.9523,78.7485 199.1483,80.4095 196.9223,80.4095 M196.9223,72.0425 C194.1283,72.0425 191.8643,74.1275 191.8643,76.6995 C191.8643,79.2715 194.1283,81.3555 196.9223,81.3555 C199.7153,81.3555 201.9803,79.2715 201.9803,76.6995 C201.9803,74.1275 199.7153,72.0425 196.9223,72.0425" id="Fill-35" fill="#333333"></path>
                <polygon id="Fill-37" fill="#333333" points="261.6357 72.0156 271.2857 72.0156 271.2927 72.0226 271.2927 72.9046 271.2857 72.9116 262.6257 72.9116 262.6257 76.2516 270.4457 76.2516 270.4517 76.2576 270.4517 77.1416 270.4457 77.1476 262.6257 77.1476 262.6257 80.4866 271.2857 80.4866 271.2927 80.4936 271.2927 81.3766 271.2857 81.3836 261.6357 81.3836 261.6287 81.3766 261.6287 72.0226"></polygon>
                <polyline id="Fill-39" fill="#333333" points="284.1894 79.9697 284.2034 79.9697 284.2034 72.0337 284.2184 72.0147 285.1794 72.0147 285.2004 72.0337 285.2004 81.3647 285.1794 81.3837 284.0034 81.3837 276.5824 73.4287 276.5824 81.3647 276.5614 81.3837 275.5564 81.3837 275.5354 81.3647 275.5354 72.0337 275.5564 72.0147 276.7814 72.0147 284.2034 79.9697"></polyline>
                <polygon id="Fill-41" fill="#333333" points="219.9116 72.0146 220.8946 72.0146 220.9016 72.0206 220.9016 80.4876 229.5706 80.4876 229.5706 81.3836 219.9116 81.3836 219.9046 81.3776 219.9046 72.0206"></polygon>
                <polygon id="Fill-43" fill="#333333" points="206.0044 72.0146 206.9874 72.0146 206.9944 72.0206 206.9944 80.4876 215.6624 80.4876 215.6624 81.3836 206.0044 81.3836 205.9974 81.3776 205.9974 72.0206"></polygon>
                <path d="M236.0268,78.2797 L238.5038,72.7937 L241.1728,78.2797 L236.0268,78.2797 Z M242.6788,81.3767 L243.7338,81.3767 L239.1508,72.0157 L237.8658,72.0157 L233.5568,81.3767 L234.6258,81.3837 L235.6188,79.1827 L241.6108,79.1827 L242.6788,81.3767 Z" id="Fill-45" fill="#333333"></path>
                <path d="M257.5854,76.2262 L256.8894,76.2262 L256.5464,76.2262 L253.3814,76.2262 L253.3814,77.1732 L256.5464,77.1732 C256.2934,78.9972 254.6044,80.4092 252.5524,80.4092 C250.3274,80.4092 248.5234,78.7482 248.5234,76.6992 C248.5234,74.6502 250.3274,72.9892 252.5524,72.9892 C254.0254,72.9892 255.3104,73.7192 256.0134,74.8052 L256.9414,74.3902 C256.0694,72.9892 254.4324,72.0432 252.5524,72.0432 C249.7594,72.0432 247.4944,74.1282 247.4944,76.6992 C247.4944,79.2712 249.7594,81.3562 252.5524,81.3562 C255.3464,81.3562 257.6114,79.2712 257.6114,76.6992 C257.6114,76.5392 257.6024,76.3812 257.5854,76.2262" id="Fill-47" fill="#333333"></path>
                <path d="M183.3579,80.4095 C181.1319,80.4095 179.3279,78.7485 179.3279,76.6995 C179.3279,74.6505 181.1319,72.9895 183.3579,72.9895 C184.8289,72.9895 186.1029,73.7225 186.8069,74.8055 L187.7299,74.3965 C186.8579,72.9965 185.2369,72.0425 183.3579,72.0425 C180.5649,72.0425 178.2989,74.1275 178.2989,76.6995 C178.2989,79.2715 180.5649,81.3555 183.3579,81.3555 C185.2369,81.3555 186.8579,80.4015 187.7299,79.0015 L186.8069,78.5925 C186.1029,79.6765 184.8289,80.4095 183.3579,80.4095" id="Fill-49" fill="#333333"></path>
                <path d="M117.2148,80.4095 C114.9888,80.4095 113.1848,78.7485 113.1848,76.6995 C113.1848,74.6505 114.9888,72.9895 117.2148,72.9895 C119.4408,72.9895 121.2448,74.6505 121.2448,76.6995 C121.2448,78.7485 119.4408,80.4095 117.2148,80.4095 M117.2148,72.0425 C114.4208,72.0425 112.1558,74.1275 112.1558,76.6995 C112.1558,79.2715 114.4208,81.3555 117.2148,81.3555 C120.0078,81.3555 122.2728,79.2715 122.2728,76.6995 C122.2728,74.1275 120.0078,72.0425 117.2148,72.0425" id="Fill-51" fill="#333333"></path>
                <polygon id="Fill-53" fill="#333333" points="159.4282 81.4526 158.4512 81.4526 158.4512 77.0026 153.9482 72.6506 154.6282 71.9466 158.9402 76.1146 163.2472 71.9516 163.9272 72.6556 159.4282 77.0026"></polygon>
                <path d="M556.6597,72.8821 L556.6597,77.0861 L561.9847,77.0861 C562.7587,77.0861 563.4067,76.7931 563.9307,76.2061 C564.2167,75.8241 564.3597,75.4291 564.3597,75.0211 L564.3597,74.9471 C564.3597,74.3151 564.0527,73.7741 563.4387,73.3251 C562.9947,73.0301 562.5077,72.8821 561.9777,72.8821 L556.6597,72.8821 Z M555.6977,72.0091 L561.9847,72.0091 C562.9737,72.0091 563.8297,72.3581 564.5557,73.0571 C565.0807,73.6431 565.3427,74.2711 565.3427,74.9401 L565.3427,75.0341 C565.3427,75.8401 564.9767,76.5621 564.2467,77.1981 C563.8537,77.4891 563.4717,77.6861 563.1017,77.7901 L565.3567,81.3771 L565.3497,81.3891 L564.1977,81.3891 C564.1657,81.3611 563.8867,80.9261 563.3617,80.0851 L562.0767,77.9651 L556.6597,77.9651 L556.6597,81.3711 L556.6387,81.3891 L555.6977,81.3891 L555.6777,81.3711 L555.6777,72.0281 L555.6977,72.0091 Z" id="Fill-55" fill="#333333"></path>
                <path d="M532.7016,80.4091 C530.4756,80.4091 528.6716,78.7481 528.6716,76.6991 C528.6716,74.6501 530.4756,72.9891 532.7016,72.9891 C534.9276,72.9891 536.7316,74.6501 536.7316,76.6991 C536.7316,78.7481 534.9276,80.4091 532.7016,80.4091 M532.7016,72.0431 C529.9076,72.0431 527.6426,74.1281 527.6426,76.6991 C527.6426,79.2711 529.9076,81.3561 532.7016,81.3561 C535.4946,81.3561 537.7606,79.2711 537.7606,76.6991 C537.7606,74.1281 535.4946,72.0431 532.7016,72.0431" id="Fill-57" fill="#333333"></path>
                <path d="M550.5415,72.0216 L550.5415,76.7206 C550.5415,78.7686 548.7805,80.4306 546.6085,80.4306 C544.4375,80.4306 542.6765,78.7686 542.6765,76.7206 L542.6765,72.0216 L541.6735,72.0216 L541.6735,76.7206 C541.6735,79.2916 543.8835,81.3766 546.6085,81.3766 C549.3355,81.3766 551.5455,79.2916 551.5455,76.7206 L551.5455,72.0216 L550.5415,72.0216 Z" id="Fill-59" fill="#333333"></path>
                <polygon id="Fill-61" fill="#333333" points="519.2847 81.4526 518.3067 81.4526 518.3067 77.0026 513.8047 72.6506 514.4837 71.9466 518.7967 76.1146 523.1037 71.9516 523.7837 72.6556 519.2847 77.0026"></polygon>
                <polyline id="Fill-63" fill="#333333" points="621.5073 79.9697 621.5223 79.9697 621.5223 72.0337 621.5353 72.0147 622.4973 72.0147 622.5193 72.0337 622.5193 81.3647 622.4973 81.3837 621.3213 81.3837 613.9003 73.4287 613.9003 81.3647 613.8783 81.3837 612.8743 81.3837 612.8533 81.3647 612.8533 72.0337 612.8743 72.0147 614.0993 72.0147 621.5223 79.9697"></polyline>
                <path d="M584.6948,80.5494 L584.7488,80.5494 C585.4378,80.5494 586.1578,80.4884 586.8228,80.2704 C587.5698,80.0254 588.7588,79.4174 588.4728,78.3614 C588.1458,77.1594 585.7548,77.0894 585.7548,77.0894 C584.1848,76.8594 580.1088,77.0524 580.1088,74.6174 L580.1088,74.5674 C580.1088,73.9764 580.5208,73.4554 580.9548,73.0884 C581.0418,73.0134 581.1998,72.9054 581.4298,72.7634 C581.6968,72.6184 581.9238,72.5144 582.1108,72.4524 C582.4128,72.3354 582.7518,72.2404 583.1258,72.1654 C583.6738,72.0654 584.1988,72.0154 584.7028,72.0154 L584.8758,72.0154 C585.6098,72.0154 586.3378,72.1254 587.0568,72.3464 C587.2798,72.4214 587.5248,72.5184 587.7918,72.6394 C587.9138,72.6974 588.0718,72.7834 588.2658,72.8954 C588.5398,73.0784 588.7348,73.2254 588.8498,73.3374 C588.9508,73.4254 589.0298,73.5084 589.0878,73.5934 L588.2408,73.8204 C586.9208,72.8484 585.0858,72.7474 584.7258,72.7614 C583.9628,72.7914 583.1788,72.8564 582.4578,73.1224 C581.7808,73.3714 580.8218,73.9834 581.0678,74.8434 C581.2378,75.4404 581.9248,75.6854 582.4658,75.8164 C583.5088,76.0674 584.5818,76.1414 585.6428,76.2714 C586.5728,76.3864 587.7198,76.4744 588.5098,77.0264 C589.5398,77.7444 589.7048,79.1164 588.8498,80.0424 C588.3388,80.5704 587.5648,80.9534 586.5278,81.1904 C585.9238,81.3184 585.3358,81.3834 584.7668,81.3834 L584.5838,81.3834 C583.8708,81.3834 583.1438,81.2814 582.4018,81.0774 C582.1648,81.0064 581.9088,80.9134 581.6348,80.7964 C581.2318,80.6174 580.8728,80.4084 580.5548,80.1664 C580.3248,79.9794 580.1338,79.7994 579.9828,79.6244 C579.8528,79.4664 579.7888,79.3834 579.7888,79.3744 C579.8178,79.3664 579.7688,79.3654 580.6698,79.1484 C580.6698,79.1484 582.1698,80.6714 584.6948,80.5494" id="Fill-65" fill="#333333"></path>
                <polygon id="Fill-67" fill="#333333" points="607.6108 72.0139 608.5798 72.0139 608.5878 72.0199 608.5878 81.1379 608.5838 81.3849 607.6078 81.3789 607.6038 72.0199"></polygon>
                <polygon id="Fill-69" fill="#333333" points="602.8081 81.3785 603.3381 80.5555 597.3991 76.7995 602.5071 73.3935 601.9651 72.5805 594.6481 77.4595 594.6481 72.0205 593.6651 72.0205 593.6651 81.3755 594.6481 81.3755 594.6481 78.6345 596.5051 77.3955"></polygon>
                <polygon id="Fill-71" fill="#333333" points="299.3945 72.0139 309.0535 72.0139 309.0605 72.0199 309.0605 72.8809 309.0535 72.8869 304.7185 72.8869 304.7185 81.3789 304.7115 81.3849 303.7435 81.3849 303.7355 81.3789 303.7355 72.8869 299.3945 72.8869 299.3875 72.8809 299.3875 72.0199"></polygon>
                <polygon id="Fill-73" fill="#333333" points="313.3198 72.0313 314.2608 72.0313 314.2818 72.0493 314.2818 76.2813 321.9808 76.2583 321.9808 72.0273 321.9948 72.0083 322.9438 72.0083 322.9648 72.0273 322.9648 81.3483 322.9438 81.3673 321.9948 81.3673 321.9808 81.3483 321.9808 77.1313 314.2818 77.1543 314.2818 81.3713 314.2608 81.3903 313.3198 81.3903 313.2988 81.3713 313.2988 72.0493"></polygon>
                <polygon id="Fill-75" fill="#333333" points="341.1167 72.0139 350.7757 72.0139 350.7827 72.0199 350.7827 72.8809 350.7757 72.8869 346.4417 72.8869 346.4417 81.3789 346.4337 81.3849 345.4657 81.3849 345.4587 81.3789 345.4587 72.8869 341.1167 72.8869 341.1107 72.8809 341.1107 72.0199"></polygon>
                <path d="M329.2802,78.2733 L331.7582,72.7863 L334.4262,78.2733 L329.2802,78.2733 Z M336.2492,81.3703 L336.9882,81.3703 L332.4052,72.0083 L331.1192,72.0083 L327.1362,80.6623 C326.9842,80.9943 327.2252,81.3733 327.5902,81.3753 L327.8792,81.3773 L328.8732,79.1753 L334.8652,79.1753 L335.7952,81.0863 C335.8802,81.2603 336.0562,81.3703 336.2492,81.3703 L336.2492,81.3703 Z" id="Fill-77" fill="#333333"></path>
                <polygon id="Fill-79" fill="#333333" points="420.5239 72.0139 430.1829 72.0139 430.1899 72.0199 430.1899 72.8809 430.1829 72.8869 425.8479 72.8869 425.8479 81.3789 425.8409 81.3849 424.8729 81.3849 424.8659 81.3789 424.8659 72.8869 420.5239 72.8869 420.5169 72.8809 420.5169 72.0199"></polygon>
                <path d="M435.4057,72.8821 L435.4057,77.0861 L440.7317,77.0861 C441.5047,77.0861 442.1527,76.7931 442.6767,76.2061 C442.9627,75.8241 443.1057,75.4291 443.1057,75.0211 L443.1057,74.9471 C443.1057,74.3151 442.7987,73.7741 442.1847,73.3251 C441.7407,73.0301 441.2537,72.8821 440.7237,72.8821 L435.4057,72.8821 Z M434.4437,72.0091 L440.7317,72.0091 C441.7197,72.0091 442.5757,72.3581 443.3017,73.0571 C443.8267,73.6431 444.0887,74.2711 444.0887,74.9401 L444.0887,75.0341 C444.0887,75.8411 443.7227,76.5621 442.9927,77.1981 C442.5997,77.4891 442.2177,77.6871 441.8477,77.7901 L444.1027,81.3771 L444.0957,81.3891 L442.9447,81.3891 C442.9117,81.3611 442.6337,80.9261 442.1077,80.0861 L440.8227,77.9651 L435.4057,77.9651 L435.4057,81.3711 L435.3847,81.3891 L434.4437,81.3891 L434.4237,81.3711 L434.4237,72.0281 L434.4437,72.0091 Z" id="Fill-81" fill="#333333"></path>
                <path d="M365.8862,72.9195 L365.8862,77.2245 L371.1402,77.2215 C371.9222,77.2215 372.5782,76.9215 373.1102,76.3205 C373.3992,75.9295 373.5432,75.5245 373.5432,75.1075 L373.5432,75.0305 C373.5432,74.3835 373.2332,73.8295 372.6122,73.3695 C372.1612,73.0675 371.6682,72.9165 371.1332,72.9165 L365.8862,72.9195 Z M365.3922,81.3765 C365.1152,81.3765 364.8912,81.1525 364.8912,80.8765 L364.8912,73.8935 L364.8912,72.0225 L371.1402,72.0225 C372.1402,72.0225 373.0072,72.3795 373.7422,73.0955 C374.2732,73.6955 374.5382,74.3385 374.5382,75.0245 L374.5382,75.1195 C374.5382,75.8995 374.2092,76.6005 373.5502,77.2215 C372.8492,77.8225 372.0502,78.1225 371.1552,78.1225 L365.8862,78.1255 L365.8862,81.3575 L365.8652,81.3765 L365.3922,81.3765 Z" id="Fill-83" fill="#333333"></path>
                <path d="M379.3012,81.3708 C379.0242,81.3708 378.7982,81.1458 378.7982,80.8678 L378.7982,72.9118 L378.7982,72.0218 L388.4422,72.0218 L388.4492,72.0278 L388.4492,72.9098 L388.4422,72.9168 L379.7942,72.9168 L379.7942,76.2518 L387.6032,76.2518 L387.6102,76.2588 L387.6102,77.1408 L387.6032,77.1468 L379.7942,77.1468 L379.7942,80.4818 L388.4422,80.4818 L388.4492,80.4888 L388.4492,81.3708 L388.4422,81.3768 L379.3012,81.3708 Z" id="Fill-85" fill="#333333"></path>
                <path d="M407.1157,81.3768 C406.8387,81.3768 406.6137,81.1518 406.6137,80.8758 L406.6137,72.5088 L406.6137,72.0218 L416.2577,72.0218 L416.2637,72.0278 L416.2637,72.9098 L416.2577,72.9168 L407.6087,72.9168 L407.6087,76.2518 L415.4187,76.2518 L415.4257,76.2588 L415.4257,77.1408 L415.4187,77.1468 L407.6087,77.1468 L407.6087,80.4818 L416.2577,80.4818 L416.2637,80.4888 L416.2637,81.3708 L416.2577,81.3768 L407.1157,81.3768 Z" id="Fill-87" fill="#333333"></path>
                <path d="M401.3471,79.9645 L401.3611,79.9645 L401.3611,72.0415 L401.3751,72.0225 L402.3351,72.0225 L402.3571,72.0415 L402.3571,81.3575 L402.3351,81.3765 L401.3801,81.3765 C401.2411,81.3765 401.1081,81.3185 401.0121,81.2165 L393.7511,73.4345 L393.7511,81.3575 L393.7301,81.3765 L393.2051,81.3765 C392.9301,81.3765 392.7061,81.1525 392.7061,80.8775 L392.7061,73.4515 L392.7061,72.0225 L393.9511,72.0225 L401.3611,79.9645" id="Fill-89" fill="#333333"></path>
                <polygon id="Fill-91" fill="#333333" points="462.2417 72.0166 471.9007 72.0166 471.9077 72.0226 471.9077 72.8836 471.9007 72.8896 467.5667 72.8896 467.5667 81.3816 467.5597 81.3876 466.5907 81.3876 466.5837 81.3816 466.5837 72.8896 462.2417 72.8896 462.2347 72.8836 462.2347 72.0226"></polygon>
                <path d="M450.4057,78.2759 L452.8837,72.7899 L455.5517,78.2759 L450.4057,78.2759 Z M457.3747,81.3729 L458.1127,81.3729 L453.5297,72.0109 L452.2447,72.0109 L448.2617,80.6649 C448.1087,80.9969 448.3497,81.3759 448.7157,81.3779 L449.0047,81.3799 L449.9987,79.1779 L455.9907,79.1779 L456.9207,81.0889 C457.0057,81.2629 457.1807,81.3729 457.3747,81.3729 L457.3747,81.3729 Z" id="Fill-93" fill="#333333"></path>
                <path d="M476.6606,81.3708 C476.3836,81.3708 476.1576,81.1458 476.1576,80.8678 L476.1576,72.9118 L476.1576,72.0218 L485.8016,72.0218 L485.8086,72.0278 L485.8086,72.9098 L485.8016,72.9168 L477.1536,72.9168 L477.1536,76.2518 L484.9626,76.2518 L484.9696,76.2588 L484.9696,77.1408 L484.9626,77.1468 L477.1536,77.1468 L477.1536,80.4818 L485.8016,80.4818 L485.8086,80.4888 L485.8086,81.3708 L485.8016,81.3768 L476.6606,81.3708 Z" id="Fill-95" fill="#333333"></path>
                <path d="M495.0444,80.5015 C492.5174,80.5015 491.0414,79.1265 491.0414,79.1265 C490.1344,79.3595 490.1144,79.3665 490.0854,79.3745 C490.0854,79.3835 490.1494,79.4665 490.2794,79.6245 C490.4314,79.7995 490.6224,79.9795 490.8524,80.1665 C491.1694,80.4085 491.5284,80.6175 491.9324,80.7965 C492.2064,80.9125 492.4614,81.0065 492.6984,81.0775 C493.4404,81.2805 494.1674,81.3835 494.8814,81.3835 L495.0644,81.3835 C495.6334,81.3835 496.2204,81.3185 496.8244,81.1895 C497.8614,80.9525 498.6354,80.5705 499.1474,80.0425 C500.0014,79.1165 499.8364,77.7445 498.8074,77.0265 C498.0174,76.4745 496.8694,76.3865 495.9404,76.2715 C494.8784,76.1415 493.8064,76.0665 492.7634,75.8165 C492.2224,75.6855 491.6324,75.4285 491.4624,74.8325 C491.2174,73.9715 492.1074,73.4295 492.7854,73.1805 C493.5084,72.9145 494.2504,72.8565 495.0134,72.8275 C495.3734,72.8135 497.1184,72.8755 498.4404,73.8465 L499.3844,73.5935 C499.3264,73.5085 499.2474,73.4255 499.1474,73.3375 C499.0314,73.2255 498.8374,73.0785 498.5634,72.8945 C498.3694,72.7825 498.2114,72.6975 498.0884,72.6395 C497.8214,72.5185 497.5774,72.4205 497.3544,72.3465 C496.6344,72.1255 495.9064,72.0155 495.1724,72.0155 L494.9994,72.0155 C494.4954,72.0155 493.9704,72.0655 493.4234,72.1655 C493.0484,72.2405 492.7094,72.3355 492.4074,72.4525 C492.2204,72.5145 491.9934,72.6185 491.7274,72.7635 C491.4964,72.9055 491.3384,73.0135 491.2514,73.0885 C490.8174,73.4555 490.4054,73.9765 490.4054,74.5675 L490.4054,74.6165 C490.4054,75.0415 490.5424,75.4485 490.8214,75.7715 C491.1014,76.0935 491.4834,76.3105 491.8754,76.4685 C492.3224,76.6485 492.7974,76.7585 493.2734,76.8395 C494.0544,76.9735 494.8614,77.0215 495.6554,77.0945 C496.0614,77.1325 496.4664,77.1775 496.8664,77.2455 C497.3344,77.3245 497.7904,77.4225 498.1924,77.6885 C498.7134,78.0335 498.9524,78.6845 498.6224,79.2435 C498.3484,79.7095 497.8524,79.9905 497.3644,80.1815 C497.2834,80.2135 497.2014,80.2425 497.1194,80.2695 C496.4544,80.4885 495.7334,80.5015 495.0444,80.5015" id="Fill-97" fill="#333333"></path>
            </g>
        </g>
    </g>
</svg>