<?xml version="1.0" encoding="UTF-8"?>
<svg width="48px" height="46px" viewBox="0 0 48 46" version="1.1" xmlns="http://www.w3.org/2000/svg" xmlns:xlink="http://www.w3.org/1999/xlink">
    <title>logo_black</title>
    <g id="components" stroke="none" stroke-width="1" fill="none" fill-rule="evenodd">
        <g id="illust" transform="translate(-32.000000, -320.000000)" fill="#333333">
            <g id="Fill-1" transform="translate(32.000000, 320.000000)">
                <path d="M21.5589815,1.51090903 C22.24316,0.924201808 23.1232123,0.681426408 23.9876314,0.678667596 L23.9995862,0.678667596 C24.8695229,0.681426408 25.7302637,0.911327355 26.4282362,1.51090903 C26.9827518,1.98726379 27.4370317,2.72938405 27.4443885,3.52943934 C27.4489864,4.03889984 27.2577107,4.52720945 26.9753951,4.93735274 C26.5588186,4.47111362 25.922459,4.16304635 25.2456372,4.16304635 L22.7526156,4.16304635 C22.073035,4.16304635 21.4339166,4.47295283 21.0191793,4.94287037 C20.7368637,4.53180747 20.5474271,4.04349786 20.5437488,3.52943934 C20.5345528,2.73306246 21.0044658,1.98634418 21.5589815,1.51090903 M32.8083852,14.9803457 C32.8083852,18.6146199 29.8077472,21.1113442 26.3169652,21.3715921 L26.3169652,8.59001899 C29.8077472,8.84934726 32.8083852,11.3460715 32.8083852,14.9803457 M24.0005058,45.9001839 C24.0005058,44.0030413 26.3776584,42.4084483 27.7184277,41.395045 C29.4932458,40.0542626 31.3204807,38.7842898 33.1918562,37.5805284 C34.5887208,36.6820755 35.6343001,36.163419 37.4192337,34.900803 C47.2018836,29.0484445 48.000092,19.0725826 48.000092,19.0725826 L42.5202263,20.0179353 C41.746847,20.1954188 41.1858942,20.0841468 41.1537084,20.8740864 C41.0930151,22.3555681 40.9063373,24.755734 40.4686102,26.5793083 C39.0551929,32.4656922 34.9390864,35.2585289 29.6762451,36.3160732 C28.889072,36.4751647 27.9133818,36.3418221 27.2512735,35.8433969 C26.528472,35.2989914 26.3169652,34.4419207 26.3169652,33.5793324 L26.3169652,22.1339436 L29.5907228,22.1339436 C35.6057927,22.1339436 39.7264972,19.2638602 39.7264972,14.9803457 C39.7264972,10.6977509 35.6057927,7.82766745 29.5907228,7.82766745 L26.3601861,7.82766745 C26.8199836,7.59132928 27.1721884,7.20325648 27.3413938,6.73333894 C28.8706801,6.17789825 29.9116614,4.96861927 29.9116614,3.52943934 C29.9116614,1.54953238 27.9474068,0 25.4396717,0 L22.5604203,0 C20.0536047,0 18.0893501,1.54953238 18.0893501,3.52943934 C18.0893501,4.97321729 19.1358491,6.18525508 20.6734116,6.73793696 C20.8591698,7.20601529 21.2417213,7.59224888 21.7226694,7.82766745 L21.6840464,7.82766745 L21.6840464,10.3345074 L21.6840464,16.3680278 L21.6840464,23.7147425 L21.6840464,30.1574867 C21.6840464,31.2656092 21.6923227,32.3737318 21.6840464,33.482774 C21.6684133,35.485671 20.3395987,36.5910348 18.3560326,36.3225105 C13.0784778,35.2695641 8.94765781,32.477647 7.53240135,26.5793083 C7.0946742,24.755734 6.90799645,22.3555681 6.84730319,20.8740864 C6.81511737,20.0841468 6.25416452,20.1954188 5.47986566,20.0179353 L-2.84217094e-14,19.0725826 C-2.84217094e-14,19.0725826 0.774298857,28.7229047 10.1091061,34.6092886 C12.1579634,36.0972075 13.2430853,36.6140249 14.7457033,37.5805284 C16.6170788,38.7842898 18.4443137,40.0542626 20.2191318,41.395045 C21.5608207,42.4084483 24.0005058,44.0030413 24.0005058,45.9001839"></path>
            </g>
        </g>
    </g>
</svg>