<svg id="레이어_1" data-name="레이어 1" xmlns="http://www.w3.org/2000/svg" xmlns:xlink="http://www.w3.org/1999/xlink" viewBox="0 0 412.49 49.19"><defs><style>.cls-1{fill:#fff;}.cls-2{fill:url(#무제_그라디언트_7);}</style><linearGradient id="무제_그라디언트_7" x1="291.89" y1="117.99" x2="291.89" y2="148.61" gradientUnits="userSpaceOnUse"><stop offset="0" stop-color="#fff" stop-opacity="0"/><stop offset="0.05" stop-color="#fff" stop-opacity="0.07"/><stop offset="0.26" stop-color="#fff" stop-opacity="0.35"/><stop offset="0.45" stop-color="#fff" stop-opacity="0.58"/><stop offset="0.63" stop-color="#fff" stop-opacity="0.76"/><stop offset="0.78" stop-color="#fff" stop-opacity="0.89"/><stop offset="0.91" stop-color="#fff" stop-opacity="0.97"/><stop offset="1" stop-color="#fff"/></linearGradient></defs><path class="cls-1" d="M93,148.62A1.65,1.65,0,0,1,91.39,147V118h20.47a11.83,11.83,0,0,1,8.52,3.51,9.43,9.43,0,0,1,2.6,6.32v.31a9.24,9.24,0,0,1-3.23,6.88,11.72,11.72,0,0,1-7.85,3H94.65v10.59l-.07.06Zm1.62-27.69V135h17.21a8.26,8.26,0,0,0,6.45-2.95,6.62,6.62,0,0,0,1.41-4v-.25a6.63,6.63,0,0,0-3-5.44,8.53,8.53,0,0,0-4.85-1.48Z" transform="translate(-91.39 -117.39)"/><path class="cls-1" d="M133.2,148.59a1.64,1.64,0,0,1-1.64-1.64V118h31.57l0,0v2.89l0,0H134.82v10.92h25.56l0,0v2.89l0,0H134.82v10.91h28.31l0,0v2.88l0,0Z" transform="translate(-91.39 -117.39)"/><path class="cls-1" d="M215.79,148.61a1.63,1.63,0,0,1-1.64-1.64V118h31.57l0,0v2.89l0,0H217.41v10.92H243l0,0v2.89l0,0H217.41v10.91h28.31l0,0v2.88l0,0Z" transform="translate(-91.39 -117.39)"/><path class="cls-1" d="M201.14,144h.05V118.06l0-.07h3.14l.08.07v30.49l-.08.06h-3.12a1.68,1.68,0,0,1-1.21-.52l-23.76-25.48v25.94l-.07.06h-1.72a1.63,1.63,0,0,1-1.63-1.63V118h4.07l24.26,26" transform="translate(-91.39 -117.39)"/><path class="cls-1" d="M418.22,148.61a1.64,1.64,0,0,1-1.64-1.64V118h31.57l0,0v2.89l0,0H419.84v10.92H445.4l0,0v2.89l0,0H419.84v10.91h28.31l0,0v2.88l0,0Z" transform="translate(-91.39 -117.39)"/><path class="cls-1" d="M486.16,144h0V118.06l0-.07h3.15l.07.07v30.49l-.07.06h-3.13a1.64,1.64,0,0,1-1.2-.52L461.3,122.61v25.94l-.07.06h-1.71a1.63,1.63,0,0,1-1.64-1.64V118H462l24.26,26" transform="translate(-91.39 -117.39)"/><path class="cls-2" d="M257.09,148.61a1.64,1.64,0,0,1-1.65-1.64V118h3.24l0,0v27.67h69.63v2.93Z" transform="translate(-91.39 -117.39)"/><path class="cls-1" d="M366.46,148.59h2.41l-15-30.6h-4.2l-13,28.29a1.64,1.64,0,0,0,1.48,2.33h.94l3.25-7.19h19.59l3,6.24A1.64,1.64,0,0,0,366.46,148.59Zm-22.78-10.12,8.1-17.93,8.72,17.93Z" transform="translate(-91.39 -117.39)"/><path class="cls-1" d="M406.79,131.75H393v1.47a1.64,1.64,0,0,0,1.64,1.64h8.77c-.84,6-6.39,10.64-13.13,10.64-7.32,0-13.26-5.46-13.26-12.2s5.94-12.2,13.26-12.2a13.48,13.48,0,0,1,11.37,6l3.05-1.36A16.88,16.88,0,0,0,390.25,118c-9.19,0-16.64,6.86-16.64,15.31s7.45,15.31,16.64,15.31,16.63-6.85,16.63-15.31A13.3,13.3,0,0,0,406.79,131.75Z" transform="translate(-91.39 -117.39)"/><path class="cls-1" d="M499.77,125.57a4.09,4.09,0,1,1,4.11-4.09A4.09,4.09,0,0,1,499.77,125.57Zm0-7.42a3.33,3.33,0,1,0,3.33,3.33A3.34,3.34,0,0,0,499.77,118.15Zm-1.52,1h1.8a1.35,1.35,0,0,1,1.49,1.47,1.38,1.38,0,0,1-.77,1.36l1,1.81h-.94l-.91-1.68h-.83v1.51c0,.14-.17.23-.43.23s-.42-.09-.42-.23Zm1.82,2.19c.38,0,.61-.26.61-.72s-.23-.69-.63-.69h-.95v1.41Z" transform="translate(-91.39 -117.39)"/><path class="cls-1" d="M144.73,160.89h5.83v.53h-5.23v2h4.72V164h-4.72v2h5.23v.53h-5.84v-5.65Z" transform="translate(-91.39 -117.39)"/><path class="cls-1" d="M172.89,165.69h0V160.9h.6v5.63h-.72l-4.48-4.8v4.79h-.64V160.9h.76l4.48,4.8" transform="translate(-91.39 -117.39)"/><path class="cls-1" d="M176.07,160.89h.6V166h5.23v.54h-5.84v-5.65Z" transform="translate(-91.39 -117.39)"/><path class="cls-1" d="M127.93,160.88h5.84v.52h-2.63v5.13h-.59v-5.13h-2.63v-.52Z" transform="translate(-91.39 -117.39)"/><path class="cls-1" d="M136.34,160.9h.58v2.55h4.65v-2.56h.59v5.63h-.59V164h-4.65v2.55h-.59v-5.63Z" transform="translate(-91.39 -117.39)"/><path class="cls-1" d="M210.32,160.9a2.82,2.82,0,1,0,3.06,2.81A2.94,2.94,0,0,0,210.32,160.9Zm0,5a2.25,2.25,0,1,1,2.44-2.24A2.34,2.34,0,0,1,210.32,166Z" transform="translate(-91.39 -117.39)"/><path class="cls-1" d="M249.4,160.89h5.84v.53H250v2h4.73V164H250v2h5.24v.53H249.4v-5.65Z" transform="translate(-91.39 -117.39)"/><path class="cls-1" d="M263,165.69h0V160.9h.61v5.63h-.73l-4.48-4.8v4.79h-.63V160.9h.75l4.48,4.8" transform="translate(-91.39 -117.39)"/><path class="cls-1" d="M224.21,160.89h.59V166H230v.54H224.2v-5.65Z" transform="translate(-91.39 -117.39)"/><path class="cls-1" d="M215.81,160.89h.59V166h5.24v.54H215.8v-5.65Z" transform="translate(-91.39 -117.39)"/><path class="cls-1" d="M238,166.54h.63l-2.77-5.65h-.77l-2.6,5.65h.64l.6-1.33h3.62Zm-4-1.87,1.49-3.31,1.62,3.31Z" transform="translate(-91.39 -117.39)"/><path class="cls-1" d="M247,163.43h-2.54V164h1.91a2.43,2.43,0,1,1-2.41-2.53,2.48,2.48,0,0,1,2.09,1.1l.56-.25a3.11,3.11,0,0,0-2.65-1.42,2.82,2.82,0,1,0,3.05,2.81A2.62,2.62,0,0,0,247,163.43Z" transform="translate(-91.39 -117.39)"/><path class="cls-1" d="M202.13,166a2.25,2.25,0,1,1,0-4.48,2.47,2.47,0,0,1,2.08,1.1l.56-.25a3.11,3.11,0,0,0-2.64-1.42,2.82,2.82,0,1,0,0,5.63,3.1,3.1,0,0,0,2.64-1.43l-.56-.24A2.46,2.46,0,0,1,202.13,166Z" transform="translate(-91.39 -117.39)"/><path class="cls-1" d="M162.18,160.9a2.82,2.82,0,1,0,3.06,2.81A2.94,2.94,0,0,0,162.18,160.9Zm0,5a2.25,2.25,0,1,1,2.44-2.24A2.34,2.34,0,0,1,162.18,166Z" transform="translate(-91.39 -117.39)"/><polygon class="cls-1" points="96.28 49.19 95.69 49.19 95.69 46.5 92.97 43.88 93.38 43.45 95.99 45.97 98.59 43.45 99 43.88 96.28 46.5 96.28 49.19"/><path class="cls-1" d="M427,160.88h3.79a2.18,2.18,0,0,1,1.56.63,1.73,1.73,0,0,1,.47,1.14v.06a1.72,1.72,0,0,1-.66,1.31,2.25,2.25,0,0,1-.69.35l1.36,2.17h-.7s-.19-.28-.5-.79l-.78-1.28h-3.27v2.06H427v-5.65Zm.58.53V164h3.21a1.54,1.54,0,0,0,1.18-.53,1.2,1.2,0,0,0,.26-.72v0a1.18,1.18,0,0,0-.56-1,1.55,1.55,0,0,0-.88-.27Z" transform="translate(-91.39 -117.39)"/><path class="cls-1" d="M413.11,160.9a2.82,2.82,0,1,0,3.05,2.81A2.94,2.94,0,0,0,413.11,160.9Zm0,5a2.25,2.25,0,1,1,2.43-2.24A2.34,2.34,0,0,1,413.11,166Z" transform="translate(-91.39 -117.39)"/><path class="cls-1" d="M423.88,160.89v2.84a2.38,2.38,0,0,1-4.75,0v-2.84h-.6v2.84a3,3,0,0,0,6,0v-2.84Z" transform="translate(-91.39 -117.39)"/><polygon class="cls-1" points="313.61 49.19 313.02 49.19 313.02 46.5 310.3 43.88 310.71 43.45 313.32 45.97 315.92 43.45 316.33 43.88 313.61 46.5 313.61 49.19"/><path class="cls-1" d="M466.74,165.69h0V160.9h.6v5.63h-.72l-4.48-4.8v4.79h-.64V160.9h.76l4.48,4.8" transform="translate(-91.39 -117.39)"/><path class="cls-1" d="M444.46,166.54m.05-.5h0a4.06,4.06,0,0,0,1.25-.17c.46-.15,1.17-.51,1-1.15s-1.64-.77-1.64-.77c-.95-.14-3.41,0-3.41-1.49v0a1.28,1.28,0,0,1,.51-.9,2.42,2.42,0,0,1,.29-.19,2.77,2.77,0,0,1,.41-.19,3.38,3.38,0,0,1,.61-.17,5.34,5.34,0,0,1,.95-.09h.11a4.15,4.15,0,0,1,1.76.37l.29.16.35.26a.94.94,0,0,1,.14.16l-.51.14a3.88,3.88,0,0,0-2.12-.64,4.22,4.22,0,0,0-1.37.21c-.41.15-1,.52-.84,1,.1.36.52.51.84.59a17.76,17.76,0,0,0,1.92.28,3.93,3.93,0,0,1,1.73.45,1.2,1.2,0,0,1,.21,1.82,2.84,2.84,0,0,1-1.4.7,5.72,5.72,0,0,1-1.07.11h-.11a5.11,5.11,0,0,1-1.32-.18,4.51,4.51,0,0,1-.46-.17,3.7,3.7,0,0,1-.65-.38,2.25,2.25,0,0,1-.35-.33.54.54,0,0,1-.11-.15,3.47,3.47,0,0,1,.53-.14,3.35,3.35,0,0,0,2.43.85" transform="translate(-91.39 -117.39)"/><path class="cls-1" d="M458.35,160.88h.59v5.65h-.59v-5.65Z" transform="translate(-91.39 -117.39)"/><polygon class="cls-1" points="364.05 49.15 364.37 48.65 360.79 46.38 363.87 44.32 363.54 43.83 359.13 46.78 359.13 43.49 358.53 43.49 358.53 49.15 359.13 49.15 359.13 47.49 360.25 46.74 364.05 49.15"/><path class="cls-1" d="M272.21,160.88h5.84v.52h-2.63v5.13h-.59v-5.13H272.2v-.52Z" transform="translate(-91.39 -117.39)"/><path class="cls-1" d="M280.62,160.9h.58v2.55h4.65v-2.56h.59v5.63h-.59V164H281.2v2.55h-.6v-5.63Z" transform="translate(-91.39 -117.39)"/><path class="cls-1" d="M297.41,160.88h5.83v.52h-2.62v5.13H300v-5.13H297.4v-.52Z" transform="translate(-91.39 -117.39)"/><path class="cls-1" d="M294.47,166.54h.44l-2.77-5.66h-.77L289,166.11a.31.31,0,0,0,.28.43h.17l.6-1.33h3.62l.56,1.15A.31.31,0,0,0,294.47,166.54Zm-4.21-1.88,1.49-3.31,1.61,3.31Z" transform="translate(-91.39 -117.39)"/><path class="cls-1" d="M345.36,160.88h5.84v.52h-2.62v5.13H348v-5.13h-2.62v-.52Z" transform="translate(-91.39 -117.39)"/><path class="cls-1" d="M353.77,160.88h3.8a2.18,2.18,0,0,1,1.55.63,1.73,1.73,0,0,1,.47,1.14v.06a1.72,1.72,0,0,1-.66,1.31,2.25,2.25,0,0,1-.69.35l1.36,2.17h-.7s-.19-.28-.5-.79l-.78-1.28h-3.27v2.06h-.59v-5.65Zm.58.53V164h3.22a1.53,1.53,0,0,0,1.17-.53,1.2,1.2,0,0,0,.26-.72v0a1.18,1.18,0,0,0-.56-1,1.55,1.55,0,0,0-.88-.27Z" transform="translate(-91.39 -117.39)"/><path class="cls-1" d="M312.07,166.54a.31.31,0,0,1-.31-.3v-5.35h3.78a2.2,2.2,0,0,1,1.57.65,1.72,1.72,0,0,1,.48,1.16v.06A1.72,1.72,0,0,1,317,164a2.15,2.15,0,0,1-1.44.54h-3.19v1.95h-.29Zm.29-5.11V164h3.18a1.53,1.53,0,0,0,1.19-.54,1.28,1.28,0,0,0,.26-.74v0a1.25,1.25,0,0,0-.56-1,1.61,1.61,0,0,0-.9-.27Z" transform="translate(-91.39 -117.39)"/><path class="cls-1" d="M320.47,166.54a.31.31,0,0,1-.31-.31v-5.34H326v.54h-5.23v2h4.72V164h-4.72v2H326v.54h-5.52Z" transform="translate(-91.39 -117.39)"/><path class="cls-1" d="M337.26,166.54a.31.31,0,0,1-.3-.3v-5.35h5.83v.54h-5.23v2h4.72V164h-4.72v2h5.23v.54h-5.53Z" transform="translate(-91.39 -117.39)"/><path class="cls-1" d="M333.78,165.69h0V160.9h.6v5.63h-.59a.32.32,0,0,1-.22-.1l-4.39-4.7v4.79h-.33a.31.31,0,0,1-.3-.3v-5.35h.75l4.48,4.8" transform="translate(-91.39 -117.39)"/><path class="cls-1" d="M370.56,160.89h5.83v.52h-2.62v5.13h-.59v-5.13h-2.63v-.52Z" transform="translate(-91.39 -117.39)"/><path class="cls-1" d="M367.62,166.54h.44l-2.77-5.66h-.77l-2.41,5.23a.31.31,0,0,0,.28.43h.17l.6-1.33h3.62l.56,1.16A.32.32,0,0,0,367.62,166.54Zm-4.21-1.87,1.49-3.32,1.62,3.32Z" transform="translate(-91.39 -117.39)"/><path class="cls-1" d="M379.26,166.54a.31.31,0,0,1-.3-.31v-5.34h5.83v.54h-5.23v2h4.72V164h-4.72v2h5.23v.54h-5.53Z" transform="translate(-91.39 -117.39)"/><path class="cls-1" d="M390.37,166a3.74,3.74,0,0,1-2.42-.83l-.58.15.12.15a2.69,2.69,0,0,0,.34.33,3.72,3.72,0,0,0,1.12.55,5.11,5.11,0,0,0,1.32.18h.11a5.61,5.61,0,0,0,1.06-.11,2.75,2.75,0,0,0,1.4-.7,1.19,1.19,0,0,0-.2-1.82,4,4,0,0,0-1.73-.45,17.76,17.76,0,0,1-1.92-.28,1,1,0,0,1-.79-.59c-.15-.52.39-.85.8-1a4.14,4.14,0,0,1,1.35-.21,3.62,3.62,0,0,1,2.07.61l.57-.15-.15-.16a3.14,3.14,0,0,0-.35-.26l-.29-.16a3.57,3.57,0,0,0-.44-.17,4.23,4.23,0,0,0-1.32-.2h-.1a5.26,5.26,0,0,0-.95.09,3.49,3.49,0,0,0-.62.17,2.77,2.77,0,0,0-.41.19,2.09,2.09,0,0,0-.28.19,1.26,1.26,0,0,0-.52.9v0a1,1,0,0,0,.26.69,1.49,1.49,0,0,0,.63.42,4.11,4.11,0,0,0,.85.23c.47.08,1,.11,1.44.15l.73.09a2.11,2.11,0,0,1,.8.27.7.7,0,0,1,.26.94,1.54,1.54,0,0,1-.76.57l-.15.05A4.07,4.07,0,0,1,390.37,166Z" transform="translate(-91.39 -117.39)"/></svg>